G04 #@! TF.GenerationSoftware,KiCad,Pcbnew,5.1.12-84ad8e8a86~92~ubuntu20.04.1*
G04 #@! TF.CreationDate,2022-02-09T05:50:52+09:00*
G04 #@! TF.ProjectId,Akashi-09,416b6173-6869-42d3-9039-2e6b69636164,rev?*
G04 #@! TF.SameCoordinates,Original*
G04 #@! TF.FileFunction,Legend,Bot*
G04 #@! TF.FilePolarity,Positive*
%FSLAX46Y46*%
G04 Gerber Fmt 4.6, Leading zero omitted, Abs format (unit mm)*
G04 Created by KiCad (PCBNEW 5.1.12-84ad8e8a86~92~ubuntu20.04.1) date 2022-02-09 05:50:52*
%MOMM*%
%LPD*%
G01*
G04 APERTURE LIST*
%ADD10C,0.120000*%
%ADD11C,0.150000*%
G04 APERTURE END LIST*
D10*
G04 #@! TO.C,C2*
X158141767Y-106915000D02*
X157849233Y-106915000D01*
X158141767Y-107935000D02*
X157849233Y-107935000D01*
G04 #@! TO.C,C1*
X162514233Y-106555000D02*
X162806767Y-106555000D01*
X162514233Y-105535000D02*
X162806767Y-105535000D01*
G04 #@! TO.C,R1*
X147080500Y-106657224D02*
X147080500Y-106147776D01*
X146035500Y-106657224D02*
X146035500Y-106147776D01*
G04 #@! TO.C,R2*
X144540500Y-106657224D02*
X144540500Y-106147776D01*
X143495500Y-106657224D02*
X143495500Y-106147776D01*
G04 #@! TO.C,R9*
X161275500Y-97812776D02*
X161275500Y-98322224D01*
X162320500Y-97812776D02*
X162320500Y-98322224D01*
G04 #@! TO.C,R8*
X158735500Y-97812776D02*
X158735500Y-98322224D01*
X159780500Y-97812776D02*
X159780500Y-98322224D01*
G04 #@! TO.C,R7*
X156195500Y-97812776D02*
X156195500Y-98322224D01*
X157240500Y-97812776D02*
X157240500Y-98322224D01*
G04 #@! TO.C,R6*
X153655500Y-97812776D02*
X153655500Y-98322224D01*
X154700500Y-97812776D02*
X154700500Y-98322224D01*
G04 #@! TO.C,R5*
X151115500Y-97812776D02*
X151115500Y-98322224D01*
X152160500Y-97812776D02*
X152160500Y-98322224D01*
G04 #@! TO.C,R4*
X148575500Y-97812776D02*
X148575500Y-98322224D01*
X149620500Y-97812776D02*
X149620500Y-98322224D01*
G04 #@! TO.C,R3*
X143495500Y-97812776D02*
X143495500Y-98322224D01*
X144540500Y-97812776D02*
X144540500Y-98322224D01*
G04 #@! TO.C,C2*
D11*
X158162166Y-106352142D02*
X158209785Y-106399761D01*
X158352642Y-106447380D01*
X158447880Y-106447380D01*
X158590738Y-106399761D01*
X158685976Y-106304523D01*
X158733595Y-106209285D01*
X158781214Y-106018809D01*
X158781214Y-105875952D01*
X158733595Y-105685476D01*
X158685976Y-105590238D01*
X158590738Y-105495000D01*
X158447880Y-105447380D01*
X158352642Y-105447380D01*
X158209785Y-105495000D01*
X158162166Y-105542619D01*
X157781214Y-105542619D02*
X157733595Y-105495000D01*
X157638357Y-105447380D01*
X157400261Y-105447380D01*
X157305023Y-105495000D01*
X157257404Y-105542619D01*
X157209785Y-105637857D01*
X157209785Y-105733095D01*
X157257404Y-105875952D01*
X157828833Y-106447380D01*
X157209785Y-106447380D01*
G04 #@! TO.C,C1*
X162827166Y-105132142D02*
X162874785Y-105179761D01*
X163017642Y-105227380D01*
X163112880Y-105227380D01*
X163255738Y-105179761D01*
X163350976Y-105084523D01*
X163398595Y-104989285D01*
X163446214Y-104798809D01*
X163446214Y-104655952D01*
X163398595Y-104465476D01*
X163350976Y-104370238D01*
X163255738Y-104275000D01*
X163112880Y-104227380D01*
X163017642Y-104227380D01*
X162874785Y-104275000D01*
X162827166Y-104322619D01*
X161874785Y-105227380D02*
X162446214Y-105227380D01*
X162160500Y-105227380D02*
X162160500Y-104227380D01*
X162255738Y-104370238D01*
X162350976Y-104465476D01*
X162446214Y-104513095D01*
G04 #@! TO.C,R1*
X147010380Y-103338333D02*
X146534190Y-103005000D01*
X147010380Y-102766904D02*
X146010380Y-102766904D01*
X146010380Y-103147857D01*
X146058000Y-103243095D01*
X146105619Y-103290714D01*
X146200857Y-103338333D01*
X146343714Y-103338333D01*
X146438952Y-103290714D01*
X146486571Y-103243095D01*
X146534190Y-103147857D01*
X146534190Y-102766904D01*
X147010380Y-104290714D02*
X147010380Y-103719285D01*
X147010380Y-104005000D02*
X146010380Y-104005000D01*
X146153238Y-103909761D01*
X146248476Y-103814523D01*
X146296095Y-103719285D01*
G04 #@! TO.C,R2*
X144470380Y-103338333D02*
X143994190Y-103005000D01*
X144470380Y-102766904D02*
X143470380Y-102766904D01*
X143470380Y-103147857D01*
X143518000Y-103243095D01*
X143565619Y-103290714D01*
X143660857Y-103338333D01*
X143803714Y-103338333D01*
X143898952Y-103290714D01*
X143946571Y-103243095D01*
X143994190Y-103147857D01*
X143994190Y-102766904D01*
X143565619Y-103719285D02*
X143518000Y-103766904D01*
X143470380Y-103862142D01*
X143470380Y-104100238D01*
X143518000Y-104195476D01*
X143565619Y-104243095D01*
X143660857Y-104290714D01*
X143756095Y-104290714D01*
X143898952Y-104243095D01*
X144470380Y-103671666D01*
X144470380Y-104290714D01*
G04 #@! TO.C,R9*
X162250380Y-100798333D02*
X161774190Y-100465000D01*
X162250380Y-100226904D02*
X161250380Y-100226904D01*
X161250380Y-100607857D01*
X161298000Y-100703095D01*
X161345619Y-100750714D01*
X161440857Y-100798333D01*
X161583714Y-100798333D01*
X161678952Y-100750714D01*
X161726571Y-100703095D01*
X161774190Y-100607857D01*
X161774190Y-100226904D01*
X162250380Y-101274523D02*
X162250380Y-101465000D01*
X162202761Y-101560238D01*
X162155142Y-101607857D01*
X162012285Y-101703095D01*
X161821809Y-101750714D01*
X161440857Y-101750714D01*
X161345619Y-101703095D01*
X161298000Y-101655476D01*
X161250380Y-101560238D01*
X161250380Y-101369761D01*
X161298000Y-101274523D01*
X161345619Y-101226904D01*
X161440857Y-101179285D01*
X161678952Y-101179285D01*
X161774190Y-101226904D01*
X161821809Y-101274523D01*
X161869428Y-101369761D01*
X161869428Y-101560238D01*
X161821809Y-101655476D01*
X161774190Y-101703095D01*
X161678952Y-101750714D01*
G04 #@! TO.C,R8*
X159710380Y-100798333D02*
X159234190Y-100465000D01*
X159710380Y-100226904D02*
X158710380Y-100226904D01*
X158710380Y-100607857D01*
X158758000Y-100703095D01*
X158805619Y-100750714D01*
X158900857Y-100798333D01*
X159043714Y-100798333D01*
X159138952Y-100750714D01*
X159186571Y-100703095D01*
X159234190Y-100607857D01*
X159234190Y-100226904D01*
X159138952Y-101369761D02*
X159091333Y-101274523D01*
X159043714Y-101226904D01*
X158948476Y-101179285D01*
X158900857Y-101179285D01*
X158805619Y-101226904D01*
X158758000Y-101274523D01*
X158710380Y-101369761D01*
X158710380Y-101560238D01*
X158758000Y-101655476D01*
X158805619Y-101703095D01*
X158900857Y-101750714D01*
X158948476Y-101750714D01*
X159043714Y-101703095D01*
X159091333Y-101655476D01*
X159138952Y-101560238D01*
X159138952Y-101369761D01*
X159186571Y-101274523D01*
X159234190Y-101226904D01*
X159329428Y-101179285D01*
X159519904Y-101179285D01*
X159615142Y-101226904D01*
X159662761Y-101274523D01*
X159710380Y-101369761D01*
X159710380Y-101560238D01*
X159662761Y-101655476D01*
X159615142Y-101703095D01*
X159519904Y-101750714D01*
X159329428Y-101750714D01*
X159234190Y-101703095D01*
X159186571Y-101655476D01*
X159138952Y-101560238D01*
G04 #@! TO.C,R7*
X157170380Y-100798333D02*
X156694190Y-100465000D01*
X157170380Y-100226904D02*
X156170380Y-100226904D01*
X156170380Y-100607857D01*
X156218000Y-100703095D01*
X156265619Y-100750714D01*
X156360857Y-100798333D01*
X156503714Y-100798333D01*
X156598952Y-100750714D01*
X156646571Y-100703095D01*
X156694190Y-100607857D01*
X156694190Y-100226904D01*
X156170380Y-101131666D02*
X156170380Y-101798333D01*
X157170380Y-101369761D01*
G04 #@! TO.C,R6*
X154630380Y-100798333D02*
X154154190Y-100465000D01*
X154630380Y-100226904D02*
X153630380Y-100226904D01*
X153630380Y-100607857D01*
X153678000Y-100703095D01*
X153725619Y-100750714D01*
X153820857Y-100798333D01*
X153963714Y-100798333D01*
X154058952Y-100750714D01*
X154106571Y-100703095D01*
X154154190Y-100607857D01*
X154154190Y-100226904D01*
X153630380Y-101655476D02*
X153630380Y-101465000D01*
X153678000Y-101369761D01*
X153725619Y-101322142D01*
X153868476Y-101226904D01*
X154058952Y-101179285D01*
X154439904Y-101179285D01*
X154535142Y-101226904D01*
X154582761Y-101274523D01*
X154630380Y-101369761D01*
X154630380Y-101560238D01*
X154582761Y-101655476D01*
X154535142Y-101703095D01*
X154439904Y-101750714D01*
X154201809Y-101750714D01*
X154106571Y-101703095D01*
X154058952Y-101655476D01*
X154011333Y-101560238D01*
X154011333Y-101369761D01*
X154058952Y-101274523D01*
X154106571Y-101226904D01*
X154201809Y-101179285D01*
G04 #@! TO.C,R5*
X152090380Y-100798333D02*
X151614190Y-100465000D01*
X152090380Y-100226904D02*
X151090380Y-100226904D01*
X151090380Y-100607857D01*
X151138000Y-100703095D01*
X151185619Y-100750714D01*
X151280857Y-100798333D01*
X151423714Y-100798333D01*
X151518952Y-100750714D01*
X151566571Y-100703095D01*
X151614190Y-100607857D01*
X151614190Y-100226904D01*
X151090380Y-101703095D02*
X151090380Y-101226904D01*
X151566571Y-101179285D01*
X151518952Y-101226904D01*
X151471333Y-101322142D01*
X151471333Y-101560238D01*
X151518952Y-101655476D01*
X151566571Y-101703095D01*
X151661809Y-101750714D01*
X151899904Y-101750714D01*
X151995142Y-101703095D01*
X152042761Y-101655476D01*
X152090380Y-101560238D01*
X152090380Y-101322142D01*
X152042761Y-101226904D01*
X151995142Y-101179285D01*
G04 #@! TO.C,R4*
X149550380Y-100798333D02*
X149074190Y-100465000D01*
X149550380Y-100226904D02*
X148550380Y-100226904D01*
X148550380Y-100607857D01*
X148598000Y-100703095D01*
X148645619Y-100750714D01*
X148740857Y-100798333D01*
X148883714Y-100798333D01*
X148978952Y-100750714D01*
X149026571Y-100703095D01*
X149074190Y-100607857D01*
X149074190Y-100226904D01*
X148883714Y-101655476D02*
X149550380Y-101655476D01*
X148502761Y-101417380D02*
X149217047Y-101179285D01*
X149217047Y-101798333D01*
G04 #@! TO.C,R3*
X146375380Y-98258333D02*
X145899190Y-97925000D01*
X146375380Y-97686904D02*
X145375380Y-97686904D01*
X145375380Y-98067857D01*
X145423000Y-98163095D01*
X145470619Y-98210714D01*
X145565857Y-98258333D01*
X145708714Y-98258333D01*
X145803952Y-98210714D01*
X145851571Y-98163095D01*
X145899190Y-98067857D01*
X145899190Y-97686904D01*
X145375380Y-98591666D02*
X145375380Y-99210714D01*
X145756333Y-98877380D01*
X145756333Y-99020238D01*
X145803952Y-99115476D01*
X145851571Y-99163095D01*
X145946809Y-99210714D01*
X146184904Y-99210714D01*
X146280142Y-99163095D01*
X146327761Y-99115476D01*
X146375380Y-99020238D01*
X146375380Y-98734523D01*
X146327761Y-98639285D01*
X146280142Y-98591666D01*
G04 #@! TD*
M02*
