G04 #@! TF.GenerationSoftware,KiCad,Pcbnew,5.1.12-84ad8e8a86~92~ubuntu20.04.1*
G04 #@! TF.CreationDate,2022-02-09T05:50:52+09:00*
G04 #@! TF.ProjectId,Akashi-09,416b6173-6869-42d3-9039-2e6b69636164,rev?*
G04 #@! TF.SameCoordinates,Original*
G04 #@! TF.FileFunction,Legend,Top*
G04 #@! TF.FilePolarity,Positive*
%FSLAX46Y46*%
G04 Gerber Fmt 4.6, Leading zero omitted, Abs format (unit mm)*
G04 Created by KiCad (PCBNEW 5.1.12-84ad8e8a86~92~ubuntu20.04.1) date 2022-02-09 05:50:52*
%MOMM*%
%LPD*%
G01*
G04 APERTURE LIST*
%ADD10C,0.150000*%
%ADD11C,0.100000*%
%ADD12C,0.200000*%
%ADD13C,0.120000*%
%ADD14C,0.050000*%
G04 APERTURE END LIST*
D10*
X128278000Y-82676904D02*
X128230380Y-82772142D01*
X128230380Y-82915000D01*
X128278000Y-83057857D01*
X128373238Y-83153095D01*
X128468476Y-83200714D01*
X128658952Y-83248333D01*
X128801809Y-83248333D01*
X128992285Y-83200714D01*
X129087523Y-83153095D01*
X129182761Y-83057857D01*
X129230380Y-82915000D01*
X129230380Y-82819761D01*
X129182761Y-82676904D01*
X129135142Y-82629285D01*
X128801809Y-82629285D01*
X128801809Y-82819761D01*
X129230380Y-82200714D02*
X128230380Y-82200714D01*
X129230380Y-81629285D01*
X128230380Y-81629285D01*
X129230380Y-81153095D02*
X128230380Y-81153095D01*
X128230380Y-80915000D01*
X128278000Y-80772142D01*
X128373238Y-80676904D01*
X128468476Y-80629285D01*
X128658952Y-80581666D01*
X128801809Y-80581666D01*
X128992285Y-80629285D01*
X129087523Y-80676904D01*
X129182761Y-80772142D01*
X129230380Y-80915000D01*
X129230380Y-81153095D01*
X128230380Y-116411190D02*
X128230380Y-115792142D01*
X128611333Y-116125476D01*
X128611333Y-115982619D01*
X128658952Y-115887380D01*
X128706571Y-115839761D01*
X128801809Y-115792142D01*
X129039904Y-115792142D01*
X129135142Y-115839761D01*
X129182761Y-115887380D01*
X129230380Y-115982619D01*
X129230380Y-116268333D01*
X129182761Y-116363571D01*
X129135142Y-116411190D01*
X129135142Y-115363571D02*
X129182761Y-115315952D01*
X129230380Y-115363571D01*
X129182761Y-115411190D01*
X129135142Y-115363571D01*
X129230380Y-115363571D01*
X128230380Y-114982619D02*
X128230380Y-114363571D01*
X128611333Y-114696904D01*
X128611333Y-114554047D01*
X128658952Y-114458809D01*
X128706571Y-114411190D01*
X128801809Y-114363571D01*
X129039904Y-114363571D01*
X129135142Y-114411190D01*
X129182761Y-114458809D01*
X129230380Y-114554047D01*
X129230380Y-114839761D01*
X129182761Y-114935000D01*
X129135142Y-114982619D01*
X128230380Y-114077857D02*
X129230380Y-113744523D01*
X128230380Y-113411190D01*
X122500380Y-81667380D02*
X122024190Y-82000714D01*
X122500380Y-82238809D02*
X121500380Y-82238809D01*
X121500380Y-81857857D01*
X121548000Y-81762619D01*
X121595619Y-81715000D01*
X121690857Y-81667380D01*
X121833714Y-81667380D01*
X121928952Y-81715000D01*
X121976571Y-81762619D01*
X122024190Y-81857857D01*
X122024190Y-82238809D01*
X121976571Y-81238809D02*
X121976571Y-80905476D01*
X122500380Y-80762619D02*
X122500380Y-81238809D01*
X121500380Y-81238809D01*
X121500380Y-80762619D01*
X122452761Y-80381666D02*
X122500380Y-80238809D01*
X122500380Y-80000714D01*
X122452761Y-79905476D01*
X122405142Y-79857857D01*
X122309904Y-79810238D01*
X122214666Y-79810238D01*
X122119428Y-79857857D01*
X122071809Y-79905476D01*
X122024190Y-80000714D01*
X121976571Y-80191190D01*
X121928952Y-80286428D01*
X121881333Y-80334047D01*
X121786095Y-80381666D01*
X121690857Y-80381666D01*
X121595619Y-80334047D01*
X121548000Y-80286428D01*
X121500380Y-80191190D01*
X121500380Y-79953095D01*
X121548000Y-79810238D01*
X121976571Y-79381666D02*
X121976571Y-79048333D01*
X122500380Y-78905476D02*
X122500380Y-79381666D01*
X121500380Y-79381666D01*
X121500380Y-78905476D01*
X121500380Y-78619761D02*
X121500380Y-78048333D01*
X122500380Y-78334047D02*
X121500380Y-78334047D01*
D11*
X169734666Y-80508333D02*
X169034666Y-80508333D01*
X169734666Y-80108333D02*
X169334666Y-80408333D01*
X169034666Y-80108333D02*
X169434666Y-80508333D01*
X169368000Y-79808333D02*
X169368000Y-79575000D01*
X169734666Y-79475000D02*
X169734666Y-79808333D01*
X169034666Y-79808333D01*
X169034666Y-79475000D01*
X169401333Y-79041666D02*
X169734666Y-79041666D01*
X169034666Y-79275000D02*
X169401333Y-79041666D01*
X169034666Y-78808333D01*
X169034666Y-78641666D02*
X169034666Y-78208333D01*
X169301333Y-78441666D01*
X169301333Y-78341666D01*
X169334666Y-78275000D01*
X169368000Y-78241666D01*
X169434666Y-78208333D01*
X169601333Y-78208333D01*
X169668000Y-78241666D01*
X169701333Y-78275000D01*
X169734666Y-78341666D01*
X169734666Y-78541666D01*
X169701333Y-78608333D01*
X169668000Y-78641666D01*
D10*
X119253000Y-110490000D02*
X121793000Y-110490000D01*
X117983000Y-110490000D02*
X115443000Y-110490000D01*
X119253000Y-87630000D02*
X121793000Y-87630000D01*
X115443000Y-87630000D02*
X117983000Y-87630000D01*
X116641571Y-86796428D02*
X116641571Y-86463095D01*
X117165380Y-86320238D02*
X117165380Y-86796428D01*
X116165380Y-86796428D01*
X116165380Y-86320238D01*
X116165380Y-85986904D02*
X117165380Y-85320238D01*
X116165380Y-85320238D02*
X117165380Y-85986904D01*
X116165380Y-85082142D02*
X116165380Y-84510714D01*
X117165380Y-84796428D02*
X116165380Y-84796428D01*
X120975380Y-86629761D02*
X119975380Y-86629761D01*
X120975380Y-86153571D02*
X119975380Y-86153571D01*
X120975380Y-85582142D01*
X119975380Y-85582142D01*
X119975380Y-85248809D02*
X119975380Y-84677380D01*
X120975380Y-84963095D02*
X119975380Y-84963095D01*
X120975380Y-113299761D02*
X119975380Y-113299761D01*
X120975380Y-112823571D02*
X119975380Y-112823571D01*
X120975380Y-112252142D01*
X119975380Y-112252142D01*
X119975380Y-111918809D02*
X119975380Y-111347380D01*
X120975380Y-111633095D02*
X119975380Y-111633095D01*
X116641571Y-113466428D02*
X116641571Y-113133095D01*
X117165380Y-112990238D02*
X117165380Y-113466428D01*
X116165380Y-113466428D01*
X116165380Y-112990238D01*
X116165380Y-112656904D02*
X117165380Y-111990238D01*
X116165380Y-111990238D02*
X117165380Y-112656904D01*
X116165380Y-111752142D02*
X116165380Y-111180714D01*
X117165380Y-111466428D02*
X116165380Y-111466428D01*
X131014666Y-118272142D02*
X130967047Y-118319761D01*
X130824190Y-118367380D01*
X130728952Y-118367380D01*
X130586095Y-118319761D01*
X130490857Y-118224523D01*
X130443238Y-118129285D01*
X130395619Y-117938809D01*
X130395619Y-117795952D01*
X130443238Y-117605476D01*
X130490857Y-117510238D01*
X130586095Y-117415000D01*
X130728952Y-117367380D01*
X130824190Y-117367380D01*
X130967047Y-117415000D01*
X131014666Y-117462619D01*
X131871809Y-117700714D02*
X131871809Y-118367380D01*
X131443238Y-117700714D02*
X131443238Y-118224523D01*
X131490857Y-118319761D01*
X131586095Y-118367380D01*
X131728952Y-118367380D01*
X131824190Y-118319761D01*
X131871809Y-118272142D01*
X132205142Y-117700714D02*
X132586095Y-117700714D01*
X132348000Y-117367380D02*
X132348000Y-118224523D01*
X132395619Y-118319761D01*
X132490857Y-118367380D01*
X132586095Y-118367380D01*
X133538476Y-117700714D02*
X133919428Y-117700714D01*
X133681333Y-117367380D02*
X133681333Y-118224523D01*
X133728952Y-118319761D01*
X133824190Y-118367380D01*
X133919428Y-118367380D01*
X134252761Y-118367380D02*
X134252761Y-117367380D01*
X134681333Y-118367380D02*
X134681333Y-117843571D01*
X134633714Y-117748333D01*
X134538476Y-117700714D01*
X134395619Y-117700714D01*
X134300380Y-117748333D01*
X134252761Y-117795952D01*
X135538476Y-118319761D02*
X135443238Y-118367380D01*
X135252761Y-118367380D01*
X135157523Y-118319761D01*
X135109904Y-118224523D01*
X135109904Y-117843571D01*
X135157523Y-117748333D01*
X135252761Y-117700714D01*
X135443238Y-117700714D01*
X135538476Y-117748333D01*
X135586095Y-117843571D01*
X135586095Y-117938809D01*
X135109904Y-118034047D01*
X136681333Y-117367380D02*
X137300380Y-117367380D01*
X136967047Y-117748333D01*
X137109904Y-117748333D01*
X137205142Y-117795952D01*
X137252761Y-117843571D01*
X137300380Y-117938809D01*
X137300380Y-118176904D01*
X137252761Y-118272142D01*
X137205142Y-118319761D01*
X137109904Y-118367380D01*
X136824190Y-118367380D01*
X136728952Y-118319761D01*
X136681333Y-118272142D01*
X137728952Y-118272142D02*
X137776571Y-118319761D01*
X137728952Y-118367380D01*
X137681333Y-118319761D01*
X137728952Y-118272142D01*
X137728952Y-118367380D01*
X138109904Y-117367380D02*
X138728952Y-117367380D01*
X138395619Y-117748333D01*
X138538476Y-117748333D01*
X138633714Y-117795952D01*
X138681333Y-117843571D01*
X138728952Y-117938809D01*
X138728952Y-118176904D01*
X138681333Y-118272142D01*
X138633714Y-118319761D01*
X138538476Y-118367380D01*
X138252761Y-118367380D01*
X138157523Y-118319761D01*
X138109904Y-118272142D01*
X139062285Y-117700714D02*
X139300380Y-118367380D01*
X139538476Y-117700714D01*
X140824190Y-118367380D02*
X140728952Y-118319761D01*
X140681333Y-118272142D01*
X140633714Y-118176904D01*
X140633714Y-117891190D01*
X140681333Y-117795952D01*
X140728952Y-117748333D01*
X140824190Y-117700714D01*
X140967047Y-117700714D01*
X141062285Y-117748333D01*
X141109904Y-117795952D01*
X141157523Y-117891190D01*
X141157523Y-118176904D01*
X141109904Y-118272142D01*
X141062285Y-118319761D01*
X140967047Y-118367380D01*
X140824190Y-118367380D01*
X141443238Y-117700714D02*
X141824190Y-117700714D01*
X141586095Y-118367380D02*
X141586095Y-117510238D01*
X141633714Y-117415000D01*
X141728952Y-117367380D01*
X141824190Y-117367380D01*
X142776571Y-117700714D02*
X143157523Y-117700714D01*
X142919428Y-117367380D02*
X142919428Y-118224523D01*
X142967047Y-118319761D01*
X143062285Y-118367380D01*
X143157523Y-118367380D01*
X143490857Y-118367380D02*
X143490857Y-117367380D01*
X143919428Y-118367380D02*
X143919428Y-117843571D01*
X143871809Y-117748333D01*
X143776571Y-117700714D01*
X143633714Y-117700714D01*
X143538476Y-117748333D01*
X143490857Y-117795952D01*
X144776571Y-118319761D02*
X144681333Y-118367380D01*
X144490857Y-118367380D01*
X144395619Y-118319761D01*
X144348000Y-118224523D01*
X144348000Y-117843571D01*
X144395619Y-117748333D01*
X144490857Y-117700714D01*
X144681333Y-117700714D01*
X144776571Y-117748333D01*
X144824190Y-117843571D01*
X144824190Y-117938809D01*
X144348000Y-118034047D01*
X146014666Y-118367380D02*
X146014666Y-117367380D01*
X146014666Y-117748333D02*
X146109904Y-117700714D01*
X146300380Y-117700714D01*
X146395619Y-117748333D01*
X146443238Y-117795952D01*
X146490857Y-117891190D01*
X146490857Y-118176904D01*
X146443238Y-118272142D01*
X146395619Y-118319761D01*
X146300380Y-118367380D01*
X146109904Y-118367380D01*
X146014666Y-118319761D01*
X147348000Y-118367380D02*
X147348000Y-117843571D01*
X147300380Y-117748333D01*
X147205142Y-117700714D01*
X147014666Y-117700714D01*
X146919428Y-117748333D01*
X147348000Y-118319761D02*
X147252761Y-118367380D01*
X147014666Y-118367380D01*
X146919428Y-118319761D01*
X146871809Y-118224523D01*
X146871809Y-118129285D01*
X146919428Y-118034047D01*
X147014666Y-117986428D01*
X147252761Y-117986428D01*
X147348000Y-117938809D01*
X147776571Y-118319761D02*
X147871809Y-118367380D01*
X148062285Y-118367380D01*
X148157523Y-118319761D01*
X148205142Y-118224523D01*
X148205142Y-118176904D01*
X148157523Y-118081666D01*
X148062285Y-118034047D01*
X147919428Y-118034047D01*
X147824190Y-117986428D01*
X147776571Y-117891190D01*
X147776571Y-117843571D01*
X147824190Y-117748333D01*
X147919428Y-117700714D01*
X148062285Y-117700714D01*
X148157523Y-117748333D01*
X149014666Y-118319761D02*
X148919428Y-118367380D01*
X148728952Y-118367380D01*
X148633714Y-118319761D01*
X148586095Y-118224523D01*
X148586095Y-117843571D01*
X148633714Y-117748333D01*
X148728952Y-117700714D01*
X148919428Y-117700714D01*
X149014666Y-117748333D01*
X149062285Y-117843571D01*
X149062285Y-117938809D01*
X148586095Y-118034047D01*
X150252761Y-118367380D02*
X150252761Y-117367380D01*
X150252761Y-117748333D02*
X150348000Y-117700714D01*
X150538476Y-117700714D01*
X150633714Y-117748333D01*
X150681333Y-117795952D01*
X150728952Y-117891190D01*
X150728952Y-118176904D01*
X150681333Y-118272142D01*
X150633714Y-118319761D01*
X150538476Y-118367380D01*
X150348000Y-118367380D01*
X150252761Y-118319761D01*
X151300380Y-118367380D02*
X151205142Y-118319761D01*
X151157523Y-118272142D01*
X151109904Y-118176904D01*
X151109904Y-117891190D01*
X151157523Y-117795952D01*
X151205142Y-117748333D01*
X151300380Y-117700714D01*
X151443238Y-117700714D01*
X151538476Y-117748333D01*
X151586095Y-117795952D01*
X151633714Y-117891190D01*
X151633714Y-118176904D01*
X151586095Y-118272142D01*
X151538476Y-118319761D01*
X151443238Y-118367380D01*
X151300380Y-118367380D01*
X152490857Y-118367380D02*
X152490857Y-117843571D01*
X152443238Y-117748333D01*
X152347999Y-117700714D01*
X152157523Y-117700714D01*
X152062285Y-117748333D01*
X152490857Y-118319761D02*
X152395619Y-118367380D01*
X152157523Y-118367380D01*
X152062285Y-118319761D01*
X152014666Y-118224523D01*
X152014666Y-118129285D01*
X152062285Y-118034047D01*
X152157523Y-117986428D01*
X152395619Y-117986428D01*
X152490857Y-117938809D01*
X152967047Y-118367380D02*
X152967047Y-117700714D01*
X152967047Y-117891190D02*
X153014666Y-117795952D01*
X153062285Y-117748333D01*
X153157523Y-117700714D01*
X153252761Y-117700714D01*
X154014666Y-118367380D02*
X154014666Y-117367380D01*
X154014666Y-118319761D02*
X153919428Y-118367380D01*
X153728952Y-118367380D01*
X153633714Y-118319761D01*
X153586095Y-118272142D01*
X153538476Y-118176904D01*
X153538476Y-117891190D01*
X153586095Y-117795952D01*
X153633714Y-117748333D01*
X153728952Y-117700714D01*
X153919428Y-117700714D01*
X154014666Y-117748333D01*
X154490857Y-118272142D02*
X154538476Y-118319761D01*
X154490857Y-118367380D01*
X154443238Y-118319761D01*
X154490857Y-118272142D01*
X154490857Y-118367380D01*
D11*
X133708000Y-96115000D02*
X134174666Y-95948333D01*
X133708000Y-95781666D01*
X134174666Y-95148333D02*
X134174666Y-95548333D01*
X134174666Y-95348333D02*
X133474666Y-95348333D01*
X133574666Y-95415000D01*
X133641333Y-95481666D01*
X133674666Y-95548333D01*
X134108000Y-94848333D02*
X134141333Y-94815000D01*
X134174666Y-94848333D01*
X134141333Y-94881666D01*
X134108000Y-94848333D01*
X134174666Y-94848333D01*
X133474666Y-94381666D02*
X133474666Y-94315000D01*
X133508000Y-94248333D01*
X133541333Y-94215000D01*
X133608000Y-94181666D01*
X133741333Y-94148333D01*
X133908000Y-94148333D01*
X134041333Y-94181666D01*
X134108000Y-94215000D01*
X134141333Y-94248333D01*
X134174666Y-94315000D01*
X134174666Y-94381666D01*
X134141333Y-94448333D01*
X134108000Y-94481666D01*
X134041333Y-94515000D01*
X133908000Y-94548333D01*
X133741333Y-94548333D01*
X133608000Y-94515000D01*
X133541333Y-94481666D01*
X133508000Y-94448333D01*
X133474666Y-94381666D01*
X134108000Y-93848333D02*
X134141333Y-93815000D01*
X134174666Y-93848333D01*
X134141333Y-93881666D01*
X134108000Y-93848333D01*
X134174666Y-93848333D01*
X133474666Y-93381666D02*
X133474666Y-93315000D01*
X133508000Y-93248333D01*
X133541333Y-93215000D01*
X133608000Y-93181666D01*
X133741333Y-93148333D01*
X133908000Y-93148333D01*
X134041333Y-93181666D01*
X134108000Y-93215000D01*
X134141333Y-93248333D01*
X134174666Y-93315000D01*
X134174666Y-93381666D01*
X134141333Y-93448333D01*
X134108000Y-93481666D01*
X134041333Y-93515000D01*
X133908000Y-93548333D01*
X133741333Y-93548333D01*
X133608000Y-93515000D01*
X133541333Y-93481666D01*
X133508000Y-93448333D01*
X133474666Y-93381666D01*
D12*
X131568000Y-104389285D02*
X131568000Y-103675000D01*
X131996571Y-104532142D02*
X130496571Y-104032142D01*
X131996571Y-103532142D01*
X131996571Y-103032142D02*
X130496571Y-103032142D01*
X131996571Y-102175000D02*
X131139428Y-102817857D01*
X130496571Y-102175000D02*
X131353714Y-103032142D01*
X131568000Y-101603571D02*
X131568000Y-100889285D01*
X131996571Y-101746428D02*
X130496571Y-101246428D01*
X131996571Y-100746428D01*
X131925142Y-100317857D02*
X131996571Y-100103571D01*
X131996571Y-99746428D01*
X131925142Y-99603571D01*
X131853714Y-99532142D01*
X131710857Y-99460714D01*
X131568000Y-99460714D01*
X131425142Y-99532142D01*
X131353714Y-99603571D01*
X131282285Y-99746428D01*
X131210857Y-100032142D01*
X131139428Y-100175000D01*
X131068000Y-100246428D01*
X130925142Y-100317857D01*
X130782285Y-100317857D01*
X130639428Y-100246428D01*
X130568000Y-100175000D01*
X130496571Y-100032142D01*
X130496571Y-99675000D01*
X130568000Y-99460714D01*
X131996571Y-98817857D02*
X130496571Y-98817857D01*
X131210857Y-98817857D02*
X131210857Y-97960714D01*
X131996571Y-97960714D02*
X130496571Y-97960714D01*
X131996571Y-97246428D02*
X130496571Y-97246428D01*
X131425142Y-96532142D02*
X131425142Y-95389285D01*
X130496571Y-94389285D02*
X130496571Y-94246428D01*
X130568000Y-94103571D01*
X130639428Y-94032142D01*
X130782285Y-93960714D01*
X131068000Y-93889285D01*
X131425142Y-93889285D01*
X131710857Y-93960714D01*
X131853714Y-94032142D01*
X131925142Y-94103571D01*
X131996571Y-94246428D01*
X131996571Y-94389285D01*
X131925142Y-94532142D01*
X131853714Y-94603571D01*
X131710857Y-94675000D01*
X131425142Y-94746428D01*
X131068000Y-94746428D01*
X130782285Y-94675000D01*
X130639428Y-94603571D01*
X130568000Y-94532142D01*
X130496571Y-94389285D01*
X131996571Y-93175000D02*
X131996571Y-92889285D01*
X131925142Y-92746428D01*
X131853714Y-92675000D01*
X131639428Y-92532142D01*
X131353714Y-92460714D01*
X130782285Y-92460714D01*
X130639428Y-92532142D01*
X130568000Y-92603571D01*
X130496571Y-92746428D01*
X130496571Y-93032142D01*
X130568000Y-93175000D01*
X130639428Y-93246428D01*
X130782285Y-93317857D01*
X131139428Y-93317857D01*
X131282285Y-93246428D01*
X131353714Y-93175000D01*
X131425142Y-93032142D01*
X131425142Y-92746428D01*
X131353714Y-92603571D01*
X131282285Y-92532142D01*
X131139428Y-92460714D01*
D11*
X137318000Y-79908333D02*
X137284666Y-79975000D01*
X137284666Y-80075000D01*
X137318000Y-80175000D01*
X137384666Y-80241666D01*
X137451333Y-80275000D01*
X137584666Y-80308333D01*
X137684666Y-80308333D01*
X137818000Y-80275000D01*
X137884666Y-80241666D01*
X137951333Y-80175000D01*
X137984666Y-80075000D01*
X137984666Y-80008333D01*
X137951333Y-79908333D01*
X137918000Y-79875000D01*
X137684666Y-79875000D01*
X137684666Y-80008333D01*
X137984666Y-79575000D02*
X137284666Y-79575000D01*
X137984666Y-79175000D01*
X137284666Y-79175000D01*
X137984666Y-78841666D02*
X137284666Y-78841666D01*
X137284666Y-78675000D01*
X137318000Y-78575000D01*
X137384666Y-78508333D01*
X137451333Y-78475000D01*
X137584666Y-78441666D01*
X137684666Y-78441666D01*
X137818000Y-78475000D01*
X137884666Y-78508333D01*
X137951333Y-78575000D01*
X137984666Y-78675000D01*
X137984666Y-78841666D01*
X140491333Y-80275000D02*
X140524666Y-80175000D01*
X140524666Y-80008333D01*
X140491333Y-79941666D01*
X140458000Y-79908333D01*
X140391333Y-79875000D01*
X140324666Y-79875000D01*
X140258000Y-79908333D01*
X140224666Y-79941666D01*
X140191333Y-80008333D01*
X140158000Y-80141666D01*
X140124666Y-80208333D01*
X140091333Y-80241666D01*
X140024666Y-80275000D01*
X139958000Y-80275000D01*
X139891333Y-80241666D01*
X139858000Y-80208333D01*
X139824666Y-80141666D01*
X139824666Y-79975000D01*
X139858000Y-79875000D01*
X140458000Y-79175000D02*
X140491333Y-79208333D01*
X140524666Y-79308333D01*
X140524666Y-79375000D01*
X140491333Y-79475000D01*
X140424666Y-79541666D01*
X140358000Y-79575000D01*
X140224666Y-79608333D01*
X140124666Y-79608333D01*
X139991333Y-79575000D01*
X139924666Y-79541666D01*
X139858000Y-79475000D01*
X139824666Y-79375000D01*
X139824666Y-79308333D01*
X139858000Y-79208333D01*
X139891333Y-79175000D01*
X140524666Y-78875000D02*
X139824666Y-78875000D01*
X140524666Y-78475000D02*
X140124666Y-78775000D01*
X139824666Y-78475000D02*
X140224666Y-78875000D01*
X143064666Y-80175000D02*
X143064666Y-80508333D01*
X142364666Y-80508333D01*
X142364666Y-79808333D02*
X142364666Y-79675000D01*
X142398000Y-79608333D01*
X142464666Y-79541666D01*
X142598000Y-79508333D01*
X142831333Y-79508333D01*
X142964666Y-79541666D01*
X143031333Y-79608333D01*
X143064666Y-79675000D01*
X143064666Y-79808333D01*
X143031333Y-79875000D01*
X142964666Y-79941666D01*
X142831333Y-79975000D01*
X142598000Y-79975000D01*
X142464666Y-79941666D01*
X142398000Y-79875000D01*
X142364666Y-79808333D01*
X142864666Y-79241666D02*
X142864666Y-78908333D01*
X143064666Y-79308333D02*
X142364666Y-79075000D01*
X143064666Y-78841666D01*
X143064666Y-78608333D02*
X142364666Y-78608333D01*
X142364666Y-78441666D01*
X142398000Y-78341666D01*
X142464666Y-78275000D01*
X142531333Y-78241666D01*
X142664666Y-78208333D01*
X142764666Y-78208333D01*
X142898000Y-78241666D01*
X142964666Y-78275000D01*
X143031333Y-78341666D01*
X143064666Y-78441666D01*
X143064666Y-78608333D01*
X147778000Y-80625000D02*
X147811333Y-80525000D01*
X147844666Y-80491666D01*
X147911333Y-80458333D01*
X148011333Y-80458333D01*
X148078000Y-80491666D01*
X148111333Y-80525000D01*
X148144666Y-80591666D01*
X148144666Y-80858333D01*
X147444666Y-80858333D01*
X147444666Y-80625000D01*
X147478000Y-80558333D01*
X147511333Y-80525000D01*
X147578000Y-80491666D01*
X147644666Y-80491666D01*
X147711333Y-80525000D01*
X147744666Y-80558333D01*
X147778000Y-80625000D01*
X147778000Y-80858333D01*
X148144666Y-79825000D02*
X148144666Y-80158333D01*
X147444666Y-80158333D01*
X147944666Y-79625000D02*
X147944666Y-79291666D01*
X148144666Y-79691666D02*
X147444666Y-79458333D01*
X148144666Y-79225000D01*
X148144666Y-78991666D02*
X147444666Y-78991666D01*
X148144666Y-78591666D01*
X147444666Y-78591666D01*
X148144666Y-78258333D02*
X147444666Y-78258333D01*
X148144666Y-77858333D02*
X147744666Y-78158333D01*
X147444666Y-77858333D02*
X147844666Y-78258333D01*
X145604666Y-80475000D02*
X144904666Y-80475000D01*
X145404666Y-80241666D01*
X144904666Y-80008333D01*
X145604666Y-80008333D01*
X144904666Y-79541666D02*
X144904666Y-79408333D01*
X144938000Y-79341666D01*
X145004666Y-79275000D01*
X145138000Y-79241666D01*
X145371333Y-79241666D01*
X145504666Y-79275000D01*
X145571333Y-79341666D01*
X145604666Y-79408333D01*
X145604666Y-79541666D01*
X145571333Y-79608333D01*
X145504666Y-79675000D01*
X145371333Y-79708333D01*
X145138000Y-79708333D01*
X145004666Y-79675000D01*
X144938000Y-79608333D01*
X144904666Y-79541666D01*
X145571333Y-78975000D02*
X145604666Y-78875000D01*
X145604666Y-78708333D01*
X145571333Y-78641666D01*
X145538000Y-78608333D01*
X145471333Y-78575000D01*
X145404666Y-78575000D01*
X145338000Y-78608333D01*
X145304666Y-78641666D01*
X145271333Y-78708333D01*
X145238000Y-78841666D01*
X145204666Y-78908333D01*
X145171333Y-78941666D01*
X145104666Y-78975000D01*
X145038000Y-78975000D01*
X144971333Y-78941666D01*
X144938000Y-78908333D01*
X144904666Y-78841666D01*
X144904666Y-78675000D01*
X144938000Y-78575000D01*
X145604666Y-78275000D02*
X144904666Y-78275000D01*
X174814666Y-80508333D02*
X174114666Y-80508333D01*
X174814666Y-80108333D02*
X174414666Y-80408333D01*
X174114666Y-80108333D02*
X174514666Y-80508333D01*
X174448000Y-79808333D02*
X174448000Y-79575000D01*
X174814666Y-79475000D02*
X174814666Y-79808333D01*
X174114666Y-79808333D01*
X174114666Y-79475000D01*
X174481333Y-79041666D02*
X174814666Y-79041666D01*
X174114666Y-79275000D02*
X174481333Y-79041666D01*
X174114666Y-78808333D01*
X174814666Y-78208333D02*
X174814666Y-78608333D01*
X174814666Y-78408333D02*
X174114666Y-78408333D01*
X174214666Y-78475000D01*
X174281333Y-78541666D01*
X174314666Y-78608333D01*
X172274666Y-80508333D02*
X171574666Y-80508333D01*
X172274666Y-80108333D02*
X171874666Y-80408333D01*
X171574666Y-80108333D02*
X171974666Y-80508333D01*
X171908000Y-79808333D02*
X171908000Y-79575000D01*
X172274666Y-79475000D02*
X172274666Y-79808333D01*
X171574666Y-79808333D01*
X171574666Y-79475000D01*
X171941333Y-79041666D02*
X172274666Y-79041666D01*
X171574666Y-79275000D02*
X171941333Y-79041666D01*
X171574666Y-78808333D01*
X171641333Y-78608333D02*
X171608000Y-78575000D01*
X171574666Y-78508333D01*
X171574666Y-78341666D01*
X171608000Y-78275000D01*
X171641333Y-78241666D01*
X171708000Y-78208333D01*
X171774666Y-78208333D01*
X171874666Y-78241666D01*
X172274666Y-78641666D01*
X172274666Y-78208333D01*
X146174666Y-121048333D02*
X146174666Y-120615000D01*
X146441333Y-120848333D01*
X146441333Y-120748333D01*
X146474666Y-120681666D01*
X146508000Y-120648333D01*
X146574666Y-120615000D01*
X146741333Y-120615000D01*
X146808000Y-120648333D01*
X146841333Y-120681666D01*
X146874666Y-120748333D01*
X146874666Y-120948333D01*
X146841333Y-121015000D01*
X146808000Y-121048333D01*
X146808000Y-120315000D02*
X146841333Y-120281666D01*
X146874666Y-120315000D01*
X146841333Y-120348333D01*
X146808000Y-120315000D01*
X146874666Y-120315000D01*
X146174666Y-120048333D02*
X146174666Y-119615000D01*
X146441333Y-119848333D01*
X146441333Y-119748333D01*
X146474666Y-119681666D01*
X146508000Y-119648333D01*
X146574666Y-119615000D01*
X146741333Y-119615000D01*
X146808000Y-119648333D01*
X146841333Y-119681666D01*
X146874666Y-119748333D01*
X146874666Y-119948333D01*
X146841333Y-120015000D01*
X146808000Y-120048333D01*
X146174666Y-119415000D02*
X146874666Y-119181666D01*
X146174666Y-118948333D01*
X153828000Y-120548333D02*
X153794666Y-120615000D01*
X153794666Y-120715000D01*
X153828000Y-120815000D01*
X153894666Y-120881666D01*
X153961333Y-120915000D01*
X154094666Y-120948333D01*
X154194666Y-120948333D01*
X154328000Y-120915000D01*
X154394666Y-120881666D01*
X154461333Y-120815000D01*
X154494666Y-120715000D01*
X154494666Y-120648333D01*
X154461333Y-120548333D01*
X154428000Y-120515000D01*
X154194666Y-120515000D01*
X154194666Y-120648333D01*
X154494666Y-120215000D02*
X153794666Y-120215000D01*
X154494666Y-119815000D01*
X153794666Y-119815000D01*
X154494666Y-119481666D02*
X153794666Y-119481666D01*
X153794666Y-119315000D01*
X153828000Y-119215000D01*
X153894666Y-119148333D01*
X153961333Y-119115000D01*
X154094666Y-119081666D01*
X154194666Y-119081666D01*
X154328000Y-119115000D01*
X154394666Y-119148333D01*
X154461333Y-119215000D01*
X154494666Y-119315000D01*
X154494666Y-119481666D01*
X151288000Y-120548333D02*
X151254666Y-120615000D01*
X151254666Y-120715000D01*
X151288000Y-120815000D01*
X151354666Y-120881666D01*
X151421333Y-120915000D01*
X151554666Y-120948333D01*
X151654666Y-120948333D01*
X151788000Y-120915000D01*
X151854666Y-120881666D01*
X151921333Y-120815000D01*
X151954666Y-120715000D01*
X151954666Y-120648333D01*
X151921333Y-120548333D01*
X151888000Y-120515000D01*
X151654666Y-120515000D01*
X151654666Y-120648333D01*
X151954666Y-120215000D02*
X151254666Y-120215000D01*
X151954666Y-119815000D01*
X151254666Y-119815000D01*
X151954666Y-119481666D02*
X151254666Y-119481666D01*
X151254666Y-119315000D01*
X151288000Y-119215000D01*
X151354666Y-119148333D01*
X151421333Y-119115000D01*
X151554666Y-119081666D01*
X151654666Y-119081666D01*
X151788000Y-119115000D01*
X151854666Y-119148333D01*
X151921333Y-119215000D01*
X151954666Y-119315000D01*
X151954666Y-119481666D01*
D10*
X113038000Y-95623095D02*
X112990380Y-95718333D01*
X112990380Y-95861190D01*
X113038000Y-96004047D01*
X113133238Y-96099285D01*
X113228476Y-96146904D01*
X113418952Y-96194523D01*
X113561809Y-96194523D01*
X113752285Y-96146904D01*
X113847523Y-96099285D01*
X113942761Y-96004047D01*
X113990380Y-95861190D01*
X113990380Y-95765952D01*
X113942761Y-95623095D01*
X113895142Y-95575476D01*
X113561809Y-95575476D01*
X113561809Y-95765952D01*
X113085619Y-103965000D02*
X113038000Y-103917380D01*
X112990380Y-103822142D01*
X112990380Y-103584047D01*
X113038000Y-103488809D01*
X113085619Y-103441190D01*
X113180857Y-103393571D01*
X113276095Y-103393571D01*
X113418952Y-103441190D01*
X113990380Y-104012619D01*
X113990380Y-103393571D01*
X112990380Y-102488809D02*
X112990380Y-102965000D01*
X113466571Y-103012619D01*
X113418952Y-102965000D01*
X113371333Y-102869761D01*
X113371333Y-102631666D01*
X113418952Y-102536428D01*
X113466571Y-102488809D01*
X113561809Y-102441190D01*
X113799904Y-102441190D01*
X113895142Y-102488809D01*
X113942761Y-102536428D01*
X113990380Y-102631666D01*
X113990380Y-102869761D01*
X113942761Y-102965000D01*
X113895142Y-103012619D01*
X112990380Y-102155476D02*
X113990380Y-101822142D01*
X112990380Y-101488809D01*
X114085619Y-101393571D02*
X114085619Y-100631666D01*
X112990380Y-100203095D02*
X112990380Y-100012619D01*
X113038000Y-99917380D01*
X113133238Y-99822142D01*
X113323714Y-99774523D01*
X113657047Y-99774523D01*
X113847523Y-99822142D01*
X113942761Y-99917380D01*
X113990380Y-100012619D01*
X113990380Y-100203095D01*
X113942761Y-100298333D01*
X113847523Y-100393571D01*
X113657047Y-100441190D01*
X113323714Y-100441190D01*
X113133238Y-100393571D01*
X113038000Y-100298333D01*
X112990380Y-100203095D01*
X112990380Y-99345952D02*
X113799904Y-99345952D01*
X113895142Y-99298333D01*
X113942761Y-99250714D01*
X113990380Y-99155476D01*
X113990380Y-98965000D01*
X113942761Y-98869761D01*
X113895142Y-98822142D01*
X113799904Y-98774523D01*
X112990380Y-98774523D01*
X112990380Y-98441190D02*
X112990380Y-97869761D01*
X113990380Y-98155476D02*
X112990380Y-98155476D01*
X112990380Y-93424047D02*
X112990380Y-92805000D01*
X113371333Y-93138333D01*
X113371333Y-92995476D01*
X113418952Y-92900238D01*
X113466571Y-92852619D01*
X113561809Y-92805000D01*
X113799904Y-92805000D01*
X113895142Y-92852619D01*
X113942761Y-92900238D01*
X113990380Y-92995476D01*
X113990380Y-93281190D01*
X113942761Y-93376428D01*
X113895142Y-93424047D01*
X113895142Y-92376428D02*
X113942761Y-92328809D01*
X113990380Y-92376428D01*
X113942761Y-92424047D01*
X113895142Y-92376428D01*
X113990380Y-92376428D01*
X112990380Y-91995476D02*
X112990380Y-91376428D01*
X113371333Y-91709761D01*
X113371333Y-91566904D01*
X113418952Y-91471666D01*
X113466571Y-91424047D01*
X113561809Y-91376428D01*
X113799904Y-91376428D01*
X113895142Y-91424047D01*
X113942761Y-91471666D01*
X113990380Y-91566904D01*
X113990380Y-91852619D01*
X113942761Y-91947857D01*
X113895142Y-91995476D01*
X112990380Y-91090714D02*
X113990380Y-90757380D01*
X112990380Y-90424047D01*
X114085619Y-90328809D02*
X114085619Y-89566904D01*
X113990380Y-89328809D02*
X112990380Y-89328809D01*
X113990380Y-88852619D02*
X112990380Y-88852619D01*
X113990380Y-88281190D01*
X112990380Y-88281190D01*
X139390380Y-120999285D02*
X139390380Y-121570714D01*
X139390380Y-121285000D02*
X138390380Y-121285000D01*
X138533238Y-121380238D01*
X138628476Y-121475476D01*
X138676095Y-121570714D01*
D13*
G04 #@! TO.C,TP2*
X127738000Y-114935000D02*
G75*
G03*
X127738000Y-114935000I-1500000J0D01*
G01*
G04 #@! TO.C,TP1*
X127738000Y-81915000D02*
G75*
G03*
X127738000Y-81915000I-1500000J0D01*
G01*
G04 #@! TO.C,JP5*
X161998000Y-117165000D02*
X163998000Y-117165000D01*
X161998000Y-119965000D02*
X161998000Y-117165000D01*
X163998000Y-119965000D02*
X161998000Y-119965000D01*
X163998000Y-117165000D02*
X163998000Y-119965000D01*
G04 #@! TO.C,D10*
X159663000Y-117765000D02*
X159663000Y-120225000D01*
X159663000Y-120225000D02*
X161133000Y-120225000D01*
X161133000Y-120225000D02*
X161133000Y-117765000D01*
G04 #@! TO.C,J2*
X114748000Y-94615000D02*
X117408000Y-94615000D01*
X114748000Y-94615000D02*
X114748000Y-99755000D01*
X114748000Y-99755000D02*
X117408000Y-99755000D01*
X117408000Y-94615000D02*
X117408000Y-99755000D01*
X117408000Y-92015000D02*
X117408000Y-93345000D01*
X116078000Y-92015000D02*
X117408000Y-92015000D01*
G04 #@! TO.C,J1*
X142621000Y-111252000D02*
X178435000Y-111252000D01*
X142621000Y-93218000D02*
X142621000Y-111252000D01*
X178435000Y-93218000D02*
X142621000Y-93218000D01*
X178435000Y-111252000D02*
X178435000Y-93218000D01*
G04 #@! TO.C,JP3*
X166818000Y-117535000D02*
X166818000Y-116205000D01*
X168148000Y-117535000D02*
X166818000Y-117535000D01*
X169418000Y-117535000D02*
X169418000Y-114875000D01*
X169418000Y-114875000D02*
X172018000Y-114875000D01*
X169418000Y-117535000D02*
X172018000Y-117535000D01*
X172018000Y-117535000D02*
X172018000Y-114875000D01*
G04 #@! TO.C,U2*
X123297799Y-98118300D02*
X123297799Y-96111700D01*
X120148199Y-96111700D02*
X120148199Y-98118300D01*
G04 #@! TO.C,SW1*
X118538000Y-82685000D02*
X115858000Y-82685000D01*
X115858000Y-76445000D02*
X118538000Y-76445000D01*
X120318000Y-76595000D02*
X120318000Y-82535000D01*
X114078000Y-76595000D02*
X114078000Y-82535000D01*
X118612214Y-79565000D02*
G75*
G03*
X118612214Y-79565000I-1414214J0D01*
G01*
G04 #@! TO.C,R16*
X120225500Y-104010276D02*
X120225500Y-104519724D01*
X121270500Y-104010276D02*
X121270500Y-104519724D01*
G04 #@! TO.C,JP2*
X122488000Y-88265000D02*
X122488000Y-89595000D01*
X122488000Y-89595000D02*
X121158000Y-89595000D01*
X119888000Y-89595000D02*
X114748000Y-89595000D01*
X114748000Y-86935000D02*
X114748000Y-89595000D01*
X119888000Y-86935000D02*
X114748000Y-86935000D01*
X119888000Y-86935000D02*
X119888000Y-89595000D01*
G04 #@! TO.C,JP4*
X117148000Y-105665000D02*
X117148000Y-102865000D01*
X117148000Y-102865000D02*
X119148000Y-102865000D01*
X119148000Y-102865000D02*
X119148000Y-105665000D01*
X119148000Y-105665000D02*
X117148000Y-105665000D01*
G04 #@! TO.C,JP1*
X122488000Y-108585000D02*
X122488000Y-109915000D01*
X122488000Y-109915000D02*
X121158000Y-109915000D01*
X119888000Y-109915000D02*
X114748000Y-109915000D01*
X114748000Y-107255000D02*
X114748000Y-109915000D01*
X119888000Y-107255000D02*
X114748000Y-107255000D01*
X119888000Y-107255000D02*
X119888000Y-109915000D01*
G04 #@! TO.C,C4*
X121331767Y-92705000D02*
X121039233Y-92705000D01*
X121331767Y-93725000D02*
X121039233Y-93725000D01*
G04 #@! TO.C,C3*
X121464233Y-101525000D02*
X121756767Y-101525000D01*
X121464233Y-100505000D02*
X121756767Y-100505000D01*
G04 #@! TO.C,R11*
X171435500Y-86337224D02*
X171435500Y-85827776D01*
X172480500Y-86337224D02*
X172480500Y-85827776D01*
G04 #@! TO.C,R10*
X171435500Y-89867224D02*
X171435500Y-89357776D01*
X172480500Y-89867224D02*
X172480500Y-89357776D01*
G04 #@! TO.C,R13*
X168895500Y-86337224D02*
X168895500Y-85827776D01*
X169940500Y-86337224D02*
X169940500Y-85827776D01*
G04 #@! TO.C,R12*
X168895500Y-89867224D02*
X168895500Y-89357776D01*
X169940500Y-89867224D02*
X169940500Y-89357776D01*
G04 #@! TO.C,R15*
X166355500Y-86337224D02*
X166355500Y-85827776D01*
X167400500Y-86337224D02*
X167400500Y-85827776D01*
G04 #@! TO.C,R14*
X166355500Y-89867224D02*
X166355500Y-89357776D01*
X167400500Y-89867224D02*
X167400500Y-89357776D01*
G04 #@! TO.C,D1*
X147293000Y-115735000D02*
X147293000Y-113275000D01*
X147293000Y-113275000D02*
X145823000Y-113275000D01*
X145823000Y-113275000D02*
X145823000Y-115735000D01*
G04 #@! TO.C,D4*
X148363000Y-88735000D02*
X148363000Y-91195000D01*
X148363000Y-91195000D02*
X149833000Y-91195000D01*
X149833000Y-91195000D02*
X149833000Y-88735000D01*
G04 #@! TO.C,D6*
X153443000Y-88735000D02*
X153443000Y-91195000D01*
X153443000Y-91195000D02*
X154913000Y-91195000D01*
X154913000Y-91195000D02*
X154913000Y-88735000D01*
G04 #@! TO.C,D8*
X158523000Y-88735000D02*
X158523000Y-91195000D01*
X158523000Y-91195000D02*
X159993000Y-91195000D01*
X159993000Y-91195000D02*
X159993000Y-88735000D01*
G04 #@! TO.C,D2*
X144753000Y-115735000D02*
X144753000Y-113275000D01*
X144753000Y-113275000D02*
X143283000Y-113275000D01*
X143283000Y-113275000D02*
X143283000Y-115735000D01*
G04 #@! TO.C,D3*
X143283000Y-88735000D02*
X143283000Y-91195000D01*
X143283000Y-91195000D02*
X144753000Y-91195000D01*
X144753000Y-91195000D02*
X144753000Y-88735000D01*
G04 #@! TO.C,D5*
X150903000Y-88735000D02*
X150903000Y-91195000D01*
X150903000Y-91195000D02*
X152373000Y-91195000D01*
X152373000Y-91195000D02*
X152373000Y-88735000D01*
G04 #@! TO.C,D7*
X155983000Y-88735000D02*
X155983000Y-91195000D01*
X155983000Y-91195000D02*
X157453000Y-91195000D01*
X157453000Y-91195000D02*
X157453000Y-88735000D01*
G04 #@! TO.C,D9*
X161063000Y-88735000D02*
X161063000Y-91195000D01*
X161063000Y-91195000D02*
X162533000Y-91195000D01*
X162533000Y-91195000D02*
X162533000Y-88735000D01*
G04 #@! TO.C,U1*
X165512200Y-105249900D02*
X165512200Y-100500100D01*
X165512200Y-100500100D02*
X165218540Y-100500100D01*
X155453800Y-100500100D02*
X155453800Y-105249900D01*
X155453800Y-105249900D02*
X155747460Y-105249900D01*
X165218538Y-105249900D02*
X165512200Y-105249900D01*
X155747460Y-100500100D02*
X155453800Y-100500100D01*
D11*
G36*
X161917498Y-107015200D02*
G01*
X162298498Y-107015200D01*
X162298498Y-106761200D01*
X161917498Y-106761200D01*
X161917498Y-107015200D01*
G37*
X161917498Y-107015200D02*
X162298498Y-107015200D01*
X162298498Y-106761200D01*
X161917498Y-106761200D01*
X161917498Y-107015200D01*
G36*
X161267499Y-98734800D02*
G01*
X161648499Y-98734800D01*
X161648499Y-98988800D01*
X161267499Y-98988800D01*
X161267499Y-98734800D01*
G37*
X161267499Y-98734800D02*
X161648499Y-98734800D01*
X161648499Y-98988800D01*
X161267499Y-98988800D01*
X161267499Y-98734800D01*
D14*
X155580800Y-102500350D02*
G75*
G02*
X155580800Y-103249650I0J-374650D01*
G01*
D10*
G04 #@! TO.C,P1*
X137388000Y-122275000D02*
X137388000Y-125375000D01*
X138938000Y-122275000D02*
X137388000Y-122275000D01*
X140208000Y-125095000D02*
X140208000Y-122555000D01*
X137388000Y-125375000D02*
X138938000Y-125375000D01*
X157988000Y-122555000D02*
X140208000Y-122555000D01*
X157988000Y-125095000D02*
X157988000Y-122555000D01*
X140208000Y-125095000D02*
X157988000Y-125095000D01*
G04 #@! TO.C,P2*
X160248000Y-122275000D02*
X160248000Y-125375000D01*
X161798000Y-122275000D02*
X160248000Y-122275000D01*
X163068000Y-125095000D02*
X163068000Y-122555000D01*
X160248000Y-125375000D02*
X161798000Y-125375000D01*
X175768000Y-122555000D02*
X163068000Y-122555000D01*
X175768000Y-125095000D02*
X175768000Y-122555000D01*
X163068000Y-125095000D02*
X175768000Y-125095000D01*
G04 #@! TO.C,P3*
X128244000Y-74015000D02*
X128244000Y-77115000D01*
X129794000Y-74015000D02*
X128244000Y-74015000D01*
X131064000Y-76835000D02*
X131064000Y-74295000D01*
X128244000Y-77115000D02*
X129794000Y-77115000D01*
X153924000Y-74295000D02*
X131064000Y-74295000D01*
X153924000Y-76835000D02*
X153924000Y-74295000D01*
X131064000Y-76835000D02*
X153924000Y-76835000D01*
G04 #@! TO.C,P4*
X155168000Y-74015000D02*
X155168000Y-77115000D01*
X156718000Y-74015000D02*
X155168000Y-74015000D01*
X157988000Y-76835000D02*
X157988000Y-74295000D01*
X155168000Y-77115000D02*
X156718000Y-77115000D01*
X175768000Y-74295000D02*
X157988000Y-74295000D01*
X175768000Y-76835000D02*
X175768000Y-74295000D01*
X157988000Y-76835000D02*
X175768000Y-76835000D01*
G04 #@! TO.C,P5*
X127254000Y-123825000D02*
G75*
G03*
X127254000Y-123825000I-2286000J0D01*
G01*
G04 #@! TO.C,P6*
X179324000Y-118745000D02*
G75*
G03*
X179324000Y-118745000I-2286000J0D01*
G01*
G04 #@! TO.C,P7*
X128524000Y-75565000D02*
G75*
G03*
X128524000Y-75565000I-2286000J0D01*
G01*
G04 #@! TO.C,P8*
X179324000Y-90805000D02*
G75*
G03*
X179324000Y-90805000I-2286000J0D01*
G01*
G04 #@! TO.C,TP2*
X123190380Y-116896904D02*
X123190380Y-116325476D01*
X124190380Y-116611190D02*
X123190380Y-116611190D01*
X124190380Y-115992142D02*
X123190380Y-115992142D01*
X123190380Y-115611190D01*
X123238000Y-115515952D01*
X123285619Y-115468333D01*
X123380857Y-115420714D01*
X123523714Y-115420714D01*
X123618952Y-115468333D01*
X123666571Y-115515952D01*
X123714190Y-115611190D01*
X123714190Y-115992142D01*
X123285619Y-115039761D02*
X123238000Y-114992142D01*
X123190380Y-114896904D01*
X123190380Y-114658809D01*
X123238000Y-114563571D01*
X123285619Y-114515952D01*
X123380857Y-114468333D01*
X123476095Y-114468333D01*
X123618952Y-114515952D01*
X124190380Y-115087380D01*
X124190380Y-114468333D01*
G04 #@! TO.C,TP1*
X123190380Y-83876904D02*
X123190380Y-83305476D01*
X124190380Y-83591190D02*
X123190380Y-83591190D01*
X124190380Y-82972142D02*
X123190380Y-82972142D01*
X123190380Y-82591190D01*
X123238000Y-82495952D01*
X123285619Y-82448333D01*
X123380857Y-82400714D01*
X123523714Y-82400714D01*
X123618952Y-82448333D01*
X123666571Y-82495952D01*
X123714190Y-82591190D01*
X123714190Y-82972142D01*
X124190380Y-81448333D02*
X124190380Y-82019761D01*
X124190380Y-81734047D02*
X123190380Y-81734047D01*
X123333238Y-81829285D01*
X123428476Y-81924523D01*
X123476095Y-82019761D01*
G04 #@! TO.C,JP5*
X164250380Y-119398333D02*
X164964666Y-119398333D01*
X165107523Y-119445952D01*
X165202761Y-119541190D01*
X165250380Y-119684047D01*
X165250380Y-119779285D01*
X165250380Y-118922142D02*
X164250380Y-118922142D01*
X164250380Y-118541190D01*
X164298000Y-118445952D01*
X164345619Y-118398333D01*
X164440857Y-118350714D01*
X164583714Y-118350714D01*
X164678952Y-118398333D01*
X164726571Y-118445952D01*
X164774190Y-118541190D01*
X164774190Y-118922142D01*
X164250380Y-117445952D02*
X164250380Y-117922142D01*
X164726571Y-117969761D01*
X164678952Y-117922142D01*
X164631333Y-117826904D01*
X164631333Y-117588809D01*
X164678952Y-117493571D01*
X164726571Y-117445952D01*
X164821809Y-117398333D01*
X165059904Y-117398333D01*
X165155142Y-117445952D01*
X165202761Y-117493571D01*
X165250380Y-117588809D01*
X165250380Y-117826904D01*
X165202761Y-117922142D01*
X165155142Y-117969761D01*
G04 #@! TO.C,D10*
X159420380Y-119779285D02*
X158420380Y-119779285D01*
X158420380Y-119541190D01*
X158468000Y-119398333D01*
X158563238Y-119303095D01*
X158658476Y-119255476D01*
X158848952Y-119207857D01*
X158991809Y-119207857D01*
X159182285Y-119255476D01*
X159277523Y-119303095D01*
X159372761Y-119398333D01*
X159420380Y-119541190D01*
X159420380Y-119779285D01*
X159420380Y-118255476D02*
X159420380Y-118826904D01*
X159420380Y-118541190D02*
X158420380Y-118541190D01*
X158563238Y-118636428D01*
X158658476Y-118731666D01*
X158706095Y-118826904D01*
X158420380Y-117636428D02*
X158420380Y-117541190D01*
X158468000Y-117445952D01*
X158515619Y-117398333D01*
X158610857Y-117350714D01*
X158801333Y-117303095D01*
X159039428Y-117303095D01*
X159229904Y-117350714D01*
X159325142Y-117398333D01*
X159372761Y-117445952D01*
X159420380Y-117541190D01*
X159420380Y-117636428D01*
X159372761Y-117731666D01*
X159325142Y-117779285D01*
X159229904Y-117826904D01*
X159039428Y-117874523D01*
X158801333Y-117874523D01*
X158610857Y-117826904D01*
X158515619Y-117779285D01*
X158468000Y-117731666D01*
X158420380Y-117636428D01*
G04 #@! TO.C,J2*
X115744666Y-90027380D02*
X115744666Y-90741666D01*
X115697047Y-90884523D01*
X115601809Y-90979761D01*
X115458952Y-91027380D01*
X115363714Y-91027380D01*
X116173238Y-90122619D02*
X116220857Y-90075000D01*
X116316095Y-90027380D01*
X116554190Y-90027380D01*
X116649428Y-90075000D01*
X116697047Y-90122619D01*
X116744666Y-90217857D01*
X116744666Y-90313095D01*
X116697047Y-90455952D01*
X116125619Y-91027380D01*
X116744666Y-91027380D01*
G04 #@! TO.C,J1*
X140930380Y-107648333D02*
X141644666Y-107648333D01*
X141787523Y-107695952D01*
X141882761Y-107791190D01*
X141930380Y-107934047D01*
X141930380Y-108029285D01*
X141930380Y-106648333D02*
X141930380Y-107219761D01*
X141930380Y-106934047D02*
X140930380Y-106934047D01*
X141073238Y-107029285D01*
X141168476Y-107124523D01*
X141216095Y-107219761D01*
X140930380Y-109855000D02*
X141168476Y-109855000D01*
X141073238Y-110093095D02*
X141168476Y-109855000D01*
X141073238Y-109616904D01*
X141358952Y-109997857D02*
X141168476Y-109855000D01*
X141358952Y-109712142D01*
X140930380Y-109855000D02*
X141168476Y-109855000D01*
X141073238Y-110093095D02*
X141168476Y-109855000D01*
X141073238Y-109616904D01*
X141358952Y-109997857D02*
X141168476Y-109855000D01*
X141358952Y-109712142D01*
G04 #@! TO.C,JP3*
X165270380Y-117038333D02*
X165984666Y-117038333D01*
X166127523Y-117085952D01*
X166222761Y-117181190D01*
X166270380Y-117324047D01*
X166270380Y-117419285D01*
X166270380Y-116562142D02*
X165270380Y-116562142D01*
X165270380Y-116181190D01*
X165318000Y-116085952D01*
X165365619Y-116038333D01*
X165460857Y-115990714D01*
X165603714Y-115990714D01*
X165698952Y-116038333D01*
X165746571Y-116085952D01*
X165794190Y-116181190D01*
X165794190Y-116562142D01*
X165270380Y-115657380D02*
X165270380Y-115038333D01*
X165651333Y-115371666D01*
X165651333Y-115228809D01*
X165698952Y-115133571D01*
X165746571Y-115085952D01*
X165841809Y-115038333D01*
X166079904Y-115038333D01*
X166175142Y-115085952D01*
X166222761Y-115133571D01*
X166270380Y-115228809D01*
X166270380Y-115514523D01*
X166222761Y-115609761D01*
X166175142Y-115657380D01*
G04 #@! TO.C,U2*
X118575379Y-97876904D02*
X119384903Y-97876904D01*
X119480141Y-97829285D01*
X119527760Y-97781666D01*
X119575379Y-97686428D01*
X119575379Y-97495952D01*
X119527760Y-97400714D01*
X119480141Y-97353095D01*
X119384903Y-97305476D01*
X118575379Y-97305476D01*
X118670618Y-96876904D02*
X118622999Y-96829285D01*
X118575379Y-96734047D01*
X118575379Y-96495952D01*
X118622999Y-96400714D01*
X118670618Y-96353095D01*
X118765856Y-96305476D01*
X118861094Y-96305476D01*
X119003951Y-96353095D01*
X119575379Y-96924523D01*
X119575379Y-96305476D01*
X118650979Y-98683450D02*
X118889075Y-98683450D01*
X118793837Y-98921545D02*
X118889075Y-98683450D01*
X118793837Y-98445354D01*
X119079551Y-98826307D02*
X118889075Y-98683450D01*
X119079551Y-98540592D01*
X118650979Y-98683450D02*
X118889075Y-98683450D01*
X118793837Y-98921545D02*
X118889075Y-98683450D01*
X118793837Y-98445354D01*
X119079551Y-98826307D02*
X118889075Y-98683450D01*
X119079551Y-98540592D01*
G04 #@! TO.C,SW1*
X112972761Y-80898333D02*
X113020380Y-80755476D01*
X113020380Y-80517380D01*
X112972761Y-80422142D01*
X112925142Y-80374523D01*
X112829904Y-80326904D01*
X112734666Y-80326904D01*
X112639428Y-80374523D01*
X112591809Y-80422142D01*
X112544190Y-80517380D01*
X112496571Y-80707857D01*
X112448952Y-80803095D01*
X112401333Y-80850714D01*
X112306095Y-80898333D01*
X112210857Y-80898333D01*
X112115619Y-80850714D01*
X112068000Y-80803095D01*
X112020380Y-80707857D01*
X112020380Y-80469761D01*
X112068000Y-80326904D01*
X112020380Y-79993571D02*
X113020380Y-79755476D01*
X112306095Y-79565000D01*
X113020380Y-79374523D01*
X112020380Y-79136428D01*
X113020380Y-78231666D02*
X113020380Y-78803095D01*
X113020380Y-78517380D02*
X112020380Y-78517380D01*
X112163238Y-78612619D01*
X112258476Y-78707857D01*
X112306095Y-78803095D01*
G04 #@! TO.C,R16*
X122630380Y-104907857D02*
X122154190Y-105241190D01*
X122630380Y-105479285D02*
X121630380Y-105479285D01*
X121630380Y-105098333D01*
X121678000Y-105003095D01*
X121725619Y-104955476D01*
X121820857Y-104907857D01*
X121963714Y-104907857D01*
X122058952Y-104955476D01*
X122106571Y-105003095D01*
X122154190Y-105098333D01*
X122154190Y-105479285D01*
X122630380Y-103955476D02*
X122630380Y-104526904D01*
X122630380Y-104241190D02*
X121630380Y-104241190D01*
X121773238Y-104336428D01*
X121868476Y-104431666D01*
X121916095Y-104526904D01*
X121630380Y-103098333D02*
X121630380Y-103288809D01*
X121678000Y-103384047D01*
X121725619Y-103431666D01*
X121868476Y-103526904D01*
X122058952Y-103574523D01*
X122439904Y-103574523D01*
X122535142Y-103526904D01*
X122582761Y-103479285D01*
X122630380Y-103384047D01*
X122630380Y-103193571D01*
X122582761Y-103098333D01*
X122535142Y-103050714D01*
X122439904Y-103003095D01*
X122201809Y-103003095D01*
X122106571Y-103050714D01*
X122058952Y-103098333D01*
X122011333Y-103193571D01*
X122011333Y-103384047D01*
X122058952Y-103479285D01*
X122106571Y-103526904D01*
X122201809Y-103574523D01*
G04 #@! TO.C,JP2*
X123380380Y-89098333D02*
X124094666Y-89098333D01*
X124237523Y-89145952D01*
X124332761Y-89241190D01*
X124380380Y-89384047D01*
X124380380Y-89479285D01*
X124380380Y-88622142D02*
X123380380Y-88622142D01*
X123380380Y-88241190D01*
X123428000Y-88145952D01*
X123475619Y-88098333D01*
X123570857Y-88050714D01*
X123713714Y-88050714D01*
X123808952Y-88098333D01*
X123856571Y-88145952D01*
X123904190Y-88241190D01*
X123904190Y-88622142D01*
X123475619Y-87669761D02*
X123428000Y-87622142D01*
X123380380Y-87526904D01*
X123380380Y-87288809D01*
X123428000Y-87193571D01*
X123475619Y-87145952D01*
X123570857Y-87098333D01*
X123666095Y-87098333D01*
X123808952Y-87145952D01*
X124380380Y-87717380D01*
X124380380Y-87098333D01*
G04 #@! TO.C,JP4*
X115800380Y-105098333D02*
X116514666Y-105098333D01*
X116657523Y-105145952D01*
X116752761Y-105241190D01*
X116800380Y-105384047D01*
X116800380Y-105479285D01*
X116800380Y-104622142D02*
X115800380Y-104622142D01*
X115800380Y-104241190D01*
X115848000Y-104145952D01*
X115895619Y-104098333D01*
X115990857Y-104050714D01*
X116133714Y-104050714D01*
X116228952Y-104098333D01*
X116276571Y-104145952D01*
X116324190Y-104241190D01*
X116324190Y-104622142D01*
X116133714Y-103193571D02*
X116800380Y-103193571D01*
X115752761Y-103431666D02*
X116467047Y-103669761D01*
X116467047Y-103050714D01*
G04 #@! TO.C,JP1*
X123380380Y-109418333D02*
X124094666Y-109418333D01*
X124237523Y-109465952D01*
X124332761Y-109561190D01*
X124380380Y-109704047D01*
X124380380Y-109799285D01*
X124380380Y-108942142D02*
X123380380Y-108942142D01*
X123380380Y-108561190D01*
X123428000Y-108465952D01*
X123475619Y-108418333D01*
X123570857Y-108370714D01*
X123713714Y-108370714D01*
X123808952Y-108418333D01*
X123856571Y-108465952D01*
X123904190Y-108561190D01*
X123904190Y-108942142D01*
X124380380Y-107418333D02*
X124380380Y-107989761D01*
X124380380Y-107704047D02*
X123380380Y-107704047D01*
X123523238Y-107799285D01*
X123618476Y-107894523D01*
X123666095Y-107989761D01*
G04 #@! TO.C,C4*
X124801333Y-93702142D02*
X124753714Y-93749761D01*
X124610857Y-93797380D01*
X124515619Y-93797380D01*
X124372761Y-93749761D01*
X124277523Y-93654523D01*
X124229904Y-93559285D01*
X124182285Y-93368809D01*
X124182285Y-93225952D01*
X124229904Y-93035476D01*
X124277523Y-92940238D01*
X124372761Y-92845000D01*
X124515619Y-92797380D01*
X124610857Y-92797380D01*
X124753714Y-92845000D01*
X124801333Y-92892619D01*
X125658476Y-93130714D02*
X125658476Y-93797380D01*
X125420380Y-92749761D02*
X125182285Y-93464047D01*
X125801333Y-93464047D01*
G04 #@! TO.C,C3*
X124801333Y-101322142D02*
X124753714Y-101369761D01*
X124610857Y-101417380D01*
X124515619Y-101417380D01*
X124372761Y-101369761D01*
X124277523Y-101274523D01*
X124229904Y-101179285D01*
X124182285Y-100988809D01*
X124182285Y-100845952D01*
X124229904Y-100655476D01*
X124277523Y-100560238D01*
X124372761Y-100465000D01*
X124515619Y-100417380D01*
X124610857Y-100417380D01*
X124753714Y-100465000D01*
X124801333Y-100512619D01*
X125134666Y-100417380D02*
X125753714Y-100417380D01*
X125420380Y-100798333D01*
X125563238Y-100798333D01*
X125658476Y-100845952D01*
X125706095Y-100893571D01*
X125753714Y-100988809D01*
X125753714Y-101226904D01*
X125706095Y-101322142D01*
X125658476Y-101369761D01*
X125563238Y-101417380D01*
X125277523Y-101417380D01*
X125182285Y-101369761D01*
X125134666Y-101322142D01*
G04 #@! TO.C,R11*
X171140380Y-86367857D02*
X170664190Y-86701190D01*
X171140380Y-86939285D02*
X170140380Y-86939285D01*
X170140380Y-86558333D01*
X170188000Y-86463095D01*
X170235619Y-86415476D01*
X170330857Y-86367857D01*
X170473714Y-86367857D01*
X170568952Y-86415476D01*
X170616571Y-86463095D01*
X170664190Y-86558333D01*
X170664190Y-86939285D01*
X171140380Y-85415476D02*
X171140380Y-85986904D01*
X171140380Y-85701190D02*
X170140380Y-85701190D01*
X170283238Y-85796428D01*
X170378476Y-85891666D01*
X170426095Y-85986904D01*
X171140380Y-84463095D02*
X171140380Y-85034523D01*
X171140380Y-84748809D02*
X170140380Y-84748809D01*
X170283238Y-84844047D01*
X170378476Y-84939285D01*
X170426095Y-85034523D01*
G04 #@! TO.C,R10*
X171140380Y-90177857D02*
X170664190Y-90511190D01*
X171140380Y-90749285D02*
X170140380Y-90749285D01*
X170140380Y-90368333D01*
X170188000Y-90273095D01*
X170235619Y-90225476D01*
X170330857Y-90177857D01*
X170473714Y-90177857D01*
X170568952Y-90225476D01*
X170616571Y-90273095D01*
X170664190Y-90368333D01*
X170664190Y-90749285D01*
X171140380Y-89225476D02*
X171140380Y-89796904D01*
X171140380Y-89511190D02*
X170140380Y-89511190D01*
X170283238Y-89606428D01*
X170378476Y-89701666D01*
X170426095Y-89796904D01*
X170140380Y-88606428D02*
X170140380Y-88511190D01*
X170188000Y-88415952D01*
X170235619Y-88368333D01*
X170330857Y-88320714D01*
X170521333Y-88273095D01*
X170759428Y-88273095D01*
X170949904Y-88320714D01*
X171045142Y-88368333D01*
X171092761Y-88415952D01*
X171140380Y-88511190D01*
X171140380Y-88606428D01*
X171092761Y-88701666D01*
X171045142Y-88749285D01*
X170949904Y-88796904D01*
X170759428Y-88844523D01*
X170521333Y-88844523D01*
X170330857Y-88796904D01*
X170235619Y-88749285D01*
X170188000Y-88701666D01*
X170140380Y-88606428D01*
G04 #@! TO.C,R13*
X168600380Y-86367857D02*
X168124190Y-86701190D01*
X168600380Y-86939285D02*
X167600380Y-86939285D01*
X167600380Y-86558333D01*
X167648000Y-86463095D01*
X167695619Y-86415476D01*
X167790857Y-86367857D01*
X167933714Y-86367857D01*
X168028952Y-86415476D01*
X168076571Y-86463095D01*
X168124190Y-86558333D01*
X168124190Y-86939285D01*
X168600380Y-85415476D02*
X168600380Y-85986904D01*
X168600380Y-85701190D02*
X167600380Y-85701190D01*
X167743238Y-85796428D01*
X167838476Y-85891666D01*
X167886095Y-85986904D01*
X167600380Y-85082142D02*
X167600380Y-84463095D01*
X167981333Y-84796428D01*
X167981333Y-84653571D01*
X168028952Y-84558333D01*
X168076571Y-84510714D01*
X168171809Y-84463095D01*
X168409904Y-84463095D01*
X168505142Y-84510714D01*
X168552761Y-84558333D01*
X168600380Y-84653571D01*
X168600380Y-84939285D01*
X168552761Y-85034523D01*
X168505142Y-85082142D01*
G04 #@! TO.C,R12*
X168600380Y-90177857D02*
X168124190Y-90511190D01*
X168600380Y-90749285D02*
X167600380Y-90749285D01*
X167600380Y-90368333D01*
X167648000Y-90273095D01*
X167695619Y-90225476D01*
X167790857Y-90177857D01*
X167933714Y-90177857D01*
X168028952Y-90225476D01*
X168076571Y-90273095D01*
X168124190Y-90368333D01*
X168124190Y-90749285D01*
X168600380Y-89225476D02*
X168600380Y-89796904D01*
X168600380Y-89511190D02*
X167600380Y-89511190D01*
X167743238Y-89606428D01*
X167838476Y-89701666D01*
X167886095Y-89796904D01*
X167695619Y-88844523D02*
X167648000Y-88796904D01*
X167600380Y-88701666D01*
X167600380Y-88463571D01*
X167648000Y-88368333D01*
X167695619Y-88320714D01*
X167790857Y-88273095D01*
X167886095Y-88273095D01*
X168028952Y-88320714D01*
X168600380Y-88892142D01*
X168600380Y-88273095D01*
G04 #@! TO.C,R15*
X166060380Y-86367857D02*
X165584190Y-86701190D01*
X166060380Y-86939285D02*
X165060380Y-86939285D01*
X165060380Y-86558333D01*
X165108000Y-86463095D01*
X165155619Y-86415476D01*
X165250857Y-86367857D01*
X165393714Y-86367857D01*
X165488952Y-86415476D01*
X165536571Y-86463095D01*
X165584190Y-86558333D01*
X165584190Y-86939285D01*
X166060380Y-85415476D02*
X166060380Y-85986904D01*
X166060380Y-85701190D02*
X165060380Y-85701190D01*
X165203238Y-85796428D01*
X165298476Y-85891666D01*
X165346095Y-85986904D01*
X165060380Y-84510714D02*
X165060380Y-84986904D01*
X165536571Y-85034523D01*
X165488952Y-84986904D01*
X165441333Y-84891666D01*
X165441333Y-84653571D01*
X165488952Y-84558333D01*
X165536571Y-84510714D01*
X165631809Y-84463095D01*
X165869904Y-84463095D01*
X165965142Y-84510714D01*
X166012761Y-84558333D01*
X166060380Y-84653571D01*
X166060380Y-84891666D01*
X166012761Y-84986904D01*
X165965142Y-85034523D01*
G04 #@! TO.C,R14*
X166060380Y-90177857D02*
X165584190Y-90511190D01*
X166060380Y-90749285D02*
X165060380Y-90749285D01*
X165060380Y-90368333D01*
X165108000Y-90273095D01*
X165155619Y-90225476D01*
X165250857Y-90177857D01*
X165393714Y-90177857D01*
X165488952Y-90225476D01*
X165536571Y-90273095D01*
X165584190Y-90368333D01*
X165584190Y-90749285D01*
X166060380Y-89225476D02*
X166060380Y-89796904D01*
X166060380Y-89511190D02*
X165060380Y-89511190D01*
X165203238Y-89606428D01*
X165298476Y-89701666D01*
X165346095Y-89796904D01*
X165393714Y-88368333D02*
X166060380Y-88368333D01*
X165012761Y-88606428D02*
X165727047Y-88844523D01*
X165727047Y-88225476D01*
G04 #@! TO.C,D1*
X148440380Y-115673095D02*
X147440380Y-115673095D01*
X147440380Y-115435000D01*
X147488000Y-115292142D01*
X147583238Y-115196904D01*
X147678476Y-115149285D01*
X147868952Y-115101666D01*
X148011809Y-115101666D01*
X148202285Y-115149285D01*
X148297523Y-115196904D01*
X148392761Y-115292142D01*
X148440380Y-115435000D01*
X148440380Y-115673095D01*
X148440380Y-114149285D02*
X148440380Y-114720714D01*
X148440380Y-114435000D02*
X147440380Y-114435000D01*
X147583238Y-114530238D01*
X147678476Y-114625476D01*
X147726095Y-114720714D01*
G04 #@! TO.C,D4*
X148120380Y-90273095D02*
X147120380Y-90273095D01*
X147120380Y-90035000D01*
X147168000Y-89892142D01*
X147263238Y-89796904D01*
X147358476Y-89749285D01*
X147548952Y-89701666D01*
X147691809Y-89701666D01*
X147882285Y-89749285D01*
X147977523Y-89796904D01*
X148072761Y-89892142D01*
X148120380Y-90035000D01*
X148120380Y-90273095D01*
X147453714Y-88844523D02*
X148120380Y-88844523D01*
X147072761Y-89082619D02*
X147787047Y-89320714D01*
X147787047Y-88701666D01*
G04 #@! TO.C,D6*
X153200380Y-90273095D02*
X152200380Y-90273095D01*
X152200380Y-90035000D01*
X152248000Y-89892142D01*
X152343238Y-89796904D01*
X152438476Y-89749285D01*
X152628952Y-89701666D01*
X152771809Y-89701666D01*
X152962285Y-89749285D01*
X153057523Y-89796904D01*
X153152761Y-89892142D01*
X153200380Y-90035000D01*
X153200380Y-90273095D01*
X152200380Y-88844523D02*
X152200380Y-89035000D01*
X152248000Y-89130238D01*
X152295619Y-89177857D01*
X152438476Y-89273095D01*
X152628952Y-89320714D01*
X153009904Y-89320714D01*
X153105142Y-89273095D01*
X153152761Y-89225476D01*
X153200380Y-89130238D01*
X153200380Y-88939761D01*
X153152761Y-88844523D01*
X153105142Y-88796904D01*
X153009904Y-88749285D01*
X152771809Y-88749285D01*
X152676571Y-88796904D01*
X152628952Y-88844523D01*
X152581333Y-88939761D01*
X152581333Y-89130238D01*
X152628952Y-89225476D01*
X152676571Y-89273095D01*
X152771809Y-89320714D01*
G04 #@! TO.C,D8*
X158280380Y-90273095D02*
X157280380Y-90273095D01*
X157280380Y-90035000D01*
X157328000Y-89892142D01*
X157423238Y-89796904D01*
X157518476Y-89749285D01*
X157708952Y-89701666D01*
X157851809Y-89701666D01*
X158042285Y-89749285D01*
X158137523Y-89796904D01*
X158232761Y-89892142D01*
X158280380Y-90035000D01*
X158280380Y-90273095D01*
X157708952Y-89130238D02*
X157661333Y-89225476D01*
X157613714Y-89273095D01*
X157518476Y-89320714D01*
X157470857Y-89320714D01*
X157375619Y-89273095D01*
X157328000Y-89225476D01*
X157280380Y-89130238D01*
X157280380Y-88939761D01*
X157328000Y-88844523D01*
X157375619Y-88796904D01*
X157470857Y-88749285D01*
X157518476Y-88749285D01*
X157613714Y-88796904D01*
X157661333Y-88844523D01*
X157708952Y-88939761D01*
X157708952Y-89130238D01*
X157756571Y-89225476D01*
X157804190Y-89273095D01*
X157899428Y-89320714D01*
X158089904Y-89320714D01*
X158185142Y-89273095D01*
X158232761Y-89225476D01*
X158280380Y-89130238D01*
X158280380Y-88939761D01*
X158232761Y-88844523D01*
X158185142Y-88796904D01*
X158089904Y-88749285D01*
X157899428Y-88749285D01*
X157804190Y-88796904D01*
X157756571Y-88844523D01*
X157708952Y-88939761D01*
G04 #@! TO.C,D2*
X145900380Y-115673095D02*
X144900380Y-115673095D01*
X144900380Y-115435000D01*
X144948000Y-115292142D01*
X145043238Y-115196904D01*
X145138476Y-115149285D01*
X145328952Y-115101666D01*
X145471809Y-115101666D01*
X145662285Y-115149285D01*
X145757523Y-115196904D01*
X145852761Y-115292142D01*
X145900380Y-115435000D01*
X145900380Y-115673095D01*
X144995619Y-114720714D02*
X144948000Y-114673095D01*
X144900380Y-114577857D01*
X144900380Y-114339761D01*
X144948000Y-114244523D01*
X144995619Y-114196904D01*
X145090857Y-114149285D01*
X145186095Y-114149285D01*
X145328952Y-114196904D01*
X145900380Y-114768333D01*
X145900380Y-114149285D01*
G04 #@! TO.C,D3*
X143040380Y-90273095D02*
X142040380Y-90273095D01*
X142040380Y-90035000D01*
X142088000Y-89892142D01*
X142183238Y-89796904D01*
X142278476Y-89749285D01*
X142468952Y-89701666D01*
X142611809Y-89701666D01*
X142802285Y-89749285D01*
X142897523Y-89796904D01*
X142992761Y-89892142D01*
X143040380Y-90035000D01*
X143040380Y-90273095D01*
X142040380Y-89368333D02*
X142040380Y-88749285D01*
X142421333Y-89082619D01*
X142421333Y-88939761D01*
X142468952Y-88844523D01*
X142516571Y-88796904D01*
X142611809Y-88749285D01*
X142849904Y-88749285D01*
X142945142Y-88796904D01*
X142992761Y-88844523D01*
X143040380Y-88939761D01*
X143040380Y-89225476D01*
X142992761Y-89320714D01*
X142945142Y-89368333D01*
G04 #@! TO.C,D5*
X150660380Y-90273095D02*
X149660380Y-90273095D01*
X149660380Y-90035000D01*
X149708000Y-89892142D01*
X149803238Y-89796904D01*
X149898476Y-89749285D01*
X150088952Y-89701666D01*
X150231809Y-89701666D01*
X150422285Y-89749285D01*
X150517523Y-89796904D01*
X150612761Y-89892142D01*
X150660380Y-90035000D01*
X150660380Y-90273095D01*
X149660380Y-88796904D02*
X149660380Y-89273095D01*
X150136571Y-89320714D01*
X150088952Y-89273095D01*
X150041333Y-89177857D01*
X150041333Y-88939761D01*
X150088952Y-88844523D01*
X150136571Y-88796904D01*
X150231809Y-88749285D01*
X150469904Y-88749285D01*
X150565142Y-88796904D01*
X150612761Y-88844523D01*
X150660380Y-88939761D01*
X150660380Y-89177857D01*
X150612761Y-89273095D01*
X150565142Y-89320714D01*
G04 #@! TO.C,D7*
X155740380Y-90273095D02*
X154740380Y-90273095D01*
X154740380Y-90035000D01*
X154788000Y-89892142D01*
X154883238Y-89796904D01*
X154978476Y-89749285D01*
X155168952Y-89701666D01*
X155311809Y-89701666D01*
X155502285Y-89749285D01*
X155597523Y-89796904D01*
X155692761Y-89892142D01*
X155740380Y-90035000D01*
X155740380Y-90273095D01*
X154740380Y-89368333D02*
X154740380Y-88701666D01*
X155740380Y-89130238D01*
G04 #@! TO.C,D9*
X160820380Y-90273095D02*
X159820380Y-90273095D01*
X159820380Y-90035000D01*
X159868000Y-89892142D01*
X159963238Y-89796904D01*
X160058476Y-89749285D01*
X160248952Y-89701666D01*
X160391809Y-89701666D01*
X160582285Y-89749285D01*
X160677523Y-89796904D01*
X160772761Y-89892142D01*
X160820380Y-90035000D01*
X160820380Y-90273095D01*
X160820380Y-89225476D02*
X160820380Y-89035000D01*
X160772761Y-88939761D01*
X160725142Y-88892142D01*
X160582285Y-88796904D01*
X160391809Y-88749285D01*
X160010857Y-88749285D01*
X159915619Y-88796904D01*
X159868000Y-88844523D01*
X159820380Y-88939761D01*
X159820380Y-89130238D01*
X159868000Y-89225476D01*
X159915619Y-89273095D01*
X160010857Y-89320714D01*
X160248952Y-89320714D01*
X160344190Y-89273095D01*
X160391809Y-89225476D01*
X160439428Y-89130238D01*
X160439428Y-88939761D01*
X160391809Y-88844523D01*
X160344190Y-88796904D01*
X160248952Y-88749285D01*
G04 #@! TO.C,U1*
X166330380Y-103636904D02*
X167139904Y-103636904D01*
X167235142Y-103589285D01*
X167282761Y-103541666D01*
X167330380Y-103446428D01*
X167330380Y-103255952D01*
X167282761Y-103160714D01*
X167235142Y-103113095D01*
X167139904Y-103065476D01*
X166330380Y-103065476D01*
X167330380Y-102065476D02*
X167330380Y-102636904D01*
X167330380Y-102351190D02*
X166330380Y-102351190D01*
X166473238Y-102446428D01*
X166568476Y-102541666D01*
X166616095Y-102636904D01*
X154211780Y-106069050D02*
X154449876Y-106069050D01*
X154354638Y-106307145D02*
X154449876Y-106069050D01*
X154354638Y-105830954D01*
X154640352Y-106211907D02*
X154449876Y-106069050D01*
X154640352Y-105926192D01*
X154211780Y-106069050D02*
X154449876Y-106069050D01*
X154354638Y-106307145D02*
X154449876Y-106069050D01*
X154354638Y-105830954D01*
X154640352Y-106211907D02*
X154449876Y-106069050D01*
X154640352Y-105926192D01*
G04 #@! TO.C,P1*
X134389904Y-124277380D02*
X134389904Y-123277380D01*
X134770857Y-123277380D01*
X134866095Y-123325000D01*
X134913714Y-123372619D01*
X134961333Y-123467857D01*
X134961333Y-123610714D01*
X134913714Y-123705952D01*
X134866095Y-123753571D01*
X134770857Y-123801190D01*
X134389904Y-123801190D01*
X135913714Y-124277380D02*
X135342285Y-124277380D01*
X135628000Y-124277380D02*
X135628000Y-123277380D01*
X135532761Y-123420238D01*
X135437523Y-123515476D01*
X135342285Y-123563095D01*
G04 #@! TO.C,P2*
X167663904Y-121737380D02*
X167663904Y-120737380D01*
X168044857Y-120737380D01*
X168140095Y-120785000D01*
X168187714Y-120832619D01*
X168235333Y-120927857D01*
X168235333Y-121070714D01*
X168187714Y-121165952D01*
X168140095Y-121213571D01*
X168044857Y-121261190D01*
X167663904Y-121261190D01*
X168616285Y-120832619D02*
X168663904Y-120785000D01*
X168759142Y-120737380D01*
X168997238Y-120737380D01*
X169092476Y-120785000D01*
X169140095Y-120832619D01*
X169187714Y-120927857D01*
X169187714Y-121023095D01*
X169140095Y-121165952D01*
X168568666Y-121737380D01*
X169187714Y-121737380D01*
G04 #@! TO.C,P3*
X130579904Y-78811380D02*
X130579904Y-77811380D01*
X130960857Y-77811380D01*
X131056095Y-77859000D01*
X131103714Y-77906619D01*
X131151333Y-78001857D01*
X131151333Y-78144714D01*
X131103714Y-78239952D01*
X131056095Y-78287571D01*
X130960857Y-78335190D01*
X130579904Y-78335190D01*
X131484666Y-77811380D02*
X132103714Y-77811380D01*
X131770380Y-78192333D01*
X131913238Y-78192333D01*
X132008476Y-78239952D01*
X132056095Y-78287571D01*
X132103714Y-78382809D01*
X132103714Y-78620904D01*
X132056095Y-78716142D01*
X132008476Y-78763761D01*
X131913238Y-78811380D01*
X131627523Y-78811380D01*
X131532285Y-78763761D01*
X131484666Y-78716142D01*
G04 #@! TO.C,P4*
X164869904Y-78811380D02*
X164869904Y-77811380D01*
X165250857Y-77811380D01*
X165346095Y-77859000D01*
X165393714Y-77906619D01*
X165441333Y-78001857D01*
X165441333Y-78144714D01*
X165393714Y-78239952D01*
X165346095Y-78287571D01*
X165250857Y-78335190D01*
X164869904Y-78335190D01*
X166298476Y-78144714D02*
X166298476Y-78811380D01*
X166060380Y-77763761D02*
X165822285Y-78478047D01*
X166441333Y-78478047D01*
G04 #@! TD*
M02*
