G04 #@! TF.GenerationSoftware,KiCad,Pcbnew,5.1.12-84ad8e8a86~92~ubuntu20.04.1*
G04 #@! TF.CreationDate,2022-02-09T05:50:52+09:00*
G04 #@! TF.ProjectId,Akashi-09,416b6173-6869-42d3-9039-2e6b69636164,rev?*
G04 #@! TF.SameCoordinates,Original*
G04 #@! TF.FileFunction,Soldermask,Bot*
G04 #@! TF.FilePolarity,Negative*
%FSLAX46Y46*%
G04 Gerber Fmt 4.6, Leading zero omitted, Abs format (unit mm)*
G04 Created by KiCad (PCBNEW 5.1.12-84ad8e8a86~92~ubuntu20.04.1) date 2022-02-09 05:50:52*
%MOMM*%
%LPD*%
G01*
G04 APERTURE LIST*
%ADD10C,2.000000*%
%ADD11O,1.700000X1.700000*%
%ADD12R,1.700000X1.700000*%
%ADD13C,1.524000*%
%ADD14R,1.270000X1.270000*%
%ADD15C,1.700000*%
%ADD16O,1.727200X2.032000*%
%ADD17C,4.064000*%
G04 APERTURE END LIST*
D10*
G04 #@! TO.C,TP2*
X126238000Y-114935000D03*
G04 #@! TD*
G04 #@! TO.C,TP1*
X126238000Y-81915000D03*
G04 #@! TD*
D11*
G04 #@! TO.C,J2*
X116078000Y-98425000D03*
X116078000Y-95885000D03*
D12*
X116078000Y-93345000D03*
G04 #@! TD*
D13*
G04 #@! TO.C,J1*
X144018000Y-94615000D03*
X146558000Y-94615000D03*
X149098000Y-94615000D03*
X151638000Y-94615000D03*
X154178000Y-94615000D03*
X156718000Y-94615000D03*
X159258000Y-94615000D03*
X161798000Y-94615000D03*
X164338000Y-94615000D03*
X166878000Y-94615000D03*
X169418000Y-94615000D03*
X171958000Y-94615000D03*
X174498000Y-94615000D03*
X177038000Y-94615000D03*
X177038000Y-109855000D03*
X174498000Y-109855000D03*
X171958000Y-109855000D03*
X169418000Y-109855000D03*
X166878000Y-109855000D03*
X164338000Y-109855000D03*
X161798000Y-109855000D03*
X159258000Y-109855000D03*
X156718000Y-109855000D03*
X154178000Y-109855000D03*
X151638000Y-109855000D03*
X149098000Y-109855000D03*
X146558000Y-109855000D03*
D14*
X144018000Y-109855000D03*
G04 #@! TD*
D11*
G04 #@! TO.C,JP3*
X170688000Y-116205000D03*
D12*
X168148000Y-116205000D03*
G04 #@! TD*
D15*
G04 #@! TO.C,SW1*
X119448000Y-76315000D03*
X119448000Y-82815000D03*
X114948000Y-76315000D03*
X114948000Y-82815000D03*
G04 #@! TD*
D11*
G04 #@! TO.C,JP2*
X116078000Y-88265000D03*
X118618000Y-88265000D03*
D12*
X121158000Y-88265000D03*
G04 #@! TD*
D11*
G04 #@! TO.C,JP1*
X116078000Y-108585000D03*
X118618000Y-108585000D03*
D12*
X121158000Y-108585000D03*
G04 #@! TD*
G04 #@! TO.C,C2*
G36*
G01*
X157670500Y-107187500D02*
X157670500Y-107662500D01*
G75*
G02*
X157433000Y-107900000I-237500J0D01*
G01*
X156833000Y-107900000D01*
G75*
G02*
X156595500Y-107662500I0J237500D01*
G01*
X156595500Y-107187500D01*
G75*
G02*
X156833000Y-106950000I237500J0D01*
G01*
X157433000Y-106950000D01*
G75*
G02*
X157670500Y-107187500I0J-237500D01*
G01*
G37*
G36*
G01*
X159395500Y-107187500D02*
X159395500Y-107662500D01*
G75*
G02*
X159158000Y-107900000I-237500J0D01*
G01*
X158558000Y-107900000D01*
G75*
G02*
X158320500Y-107662500I0J237500D01*
G01*
X158320500Y-107187500D01*
G75*
G02*
X158558000Y-106950000I237500J0D01*
G01*
X159158000Y-106950000D01*
G75*
G02*
X159395500Y-107187500I0J-237500D01*
G01*
G37*
G04 #@! TD*
G04 #@! TO.C,C1*
G36*
G01*
X162985500Y-106282500D02*
X162985500Y-105807500D01*
G75*
G02*
X163223000Y-105570000I237500J0D01*
G01*
X163823000Y-105570000D01*
G75*
G02*
X164060500Y-105807500I0J-237500D01*
G01*
X164060500Y-106282500D01*
G75*
G02*
X163823000Y-106520000I-237500J0D01*
G01*
X163223000Y-106520000D01*
G75*
G02*
X162985500Y-106282500I0J237500D01*
G01*
G37*
G36*
G01*
X161260500Y-106282500D02*
X161260500Y-105807500D01*
G75*
G02*
X161498000Y-105570000I237500J0D01*
G01*
X162098000Y-105570000D01*
G75*
G02*
X162335500Y-105807500I0J-237500D01*
G01*
X162335500Y-106282500D01*
G75*
G02*
X162098000Y-106520000I-237500J0D01*
G01*
X161498000Y-106520000D01*
G75*
G02*
X161260500Y-106282500I0J237500D01*
G01*
G37*
G04 #@! TD*
G04 #@! TO.C,R1*
G36*
G01*
X146795500Y-105977500D02*
X146320500Y-105977500D01*
G75*
G02*
X146083000Y-105740000I0J237500D01*
G01*
X146083000Y-105240000D01*
G75*
G02*
X146320500Y-105002500I237500J0D01*
G01*
X146795500Y-105002500D01*
G75*
G02*
X147033000Y-105240000I0J-237500D01*
G01*
X147033000Y-105740000D01*
G75*
G02*
X146795500Y-105977500I-237500J0D01*
G01*
G37*
G36*
G01*
X146795500Y-107802500D02*
X146320500Y-107802500D01*
G75*
G02*
X146083000Y-107565000I0J237500D01*
G01*
X146083000Y-107065000D01*
G75*
G02*
X146320500Y-106827500I237500J0D01*
G01*
X146795500Y-106827500D01*
G75*
G02*
X147033000Y-107065000I0J-237500D01*
G01*
X147033000Y-107565000D01*
G75*
G02*
X146795500Y-107802500I-237500J0D01*
G01*
G37*
G04 #@! TD*
G04 #@! TO.C,R2*
G36*
G01*
X144255500Y-105977500D02*
X143780500Y-105977500D01*
G75*
G02*
X143543000Y-105740000I0J237500D01*
G01*
X143543000Y-105240000D01*
G75*
G02*
X143780500Y-105002500I237500J0D01*
G01*
X144255500Y-105002500D01*
G75*
G02*
X144493000Y-105240000I0J-237500D01*
G01*
X144493000Y-105740000D01*
G75*
G02*
X144255500Y-105977500I-237500J0D01*
G01*
G37*
G36*
G01*
X144255500Y-107802500D02*
X143780500Y-107802500D01*
G75*
G02*
X143543000Y-107565000I0J237500D01*
G01*
X143543000Y-107065000D01*
G75*
G02*
X143780500Y-106827500I237500J0D01*
G01*
X144255500Y-106827500D01*
G75*
G02*
X144493000Y-107065000I0J-237500D01*
G01*
X144493000Y-107565000D01*
G75*
G02*
X144255500Y-107802500I-237500J0D01*
G01*
G37*
G04 #@! TD*
G04 #@! TO.C,R9*
G36*
G01*
X161560500Y-98492500D02*
X162035500Y-98492500D01*
G75*
G02*
X162273000Y-98730000I0J-237500D01*
G01*
X162273000Y-99230000D01*
G75*
G02*
X162035500Y-99467500I-237500J0D01*
G01*
X161560500Y-99467500D01*
G75*
G02*
X161323000Y-99230000I0J237500D01*
G01*
X161323000Y-98730000D01*
G75*
G02*
X161560500Y-98492500I237500J0D01*
G01*
G37*
G36*
G01*
X161560500Y-96667500D02*
X162035500Y-96667500D01*
G75*
G02*
X162273000Y-96905000I0J-237500D01*
G01*
X162273000Y-97405000D01*
G75*
G02*
X162035500Y-97642500I-237500J0D01*
G01*
X161560500Y-97642500D01*
G75*
G02*
X161323000Y-97405000I0J237500D01*
G01*
X161323000Y-96905000D01*
G75*
G02*
X161560500Y-96667500I237500J0D01*
G01*
G37*
G04 #@! TD*
G04 #@! TO.C,R8*
G36*
G01*
X159020500Y-98492500D02*
X159495500Y-98492500D01*
G75*
G02*
X159733000Y-98730000I0J-237500D01*
G01*
X159733000Y-99230000D01*
G75*
G02*
X159495500Y-99467500I-237500J0D01*
G01*
X159020500Y-99467500D01*
G75*
G02*
X158783000Y-99230000I0J237500D01*
G01*
X158783000Y-98730000D01*
G75*
G02*
X159020500Y-98492500I237500J0D01*
G01*
G37*
G36*
G01*
X159020500Y-96667500D02*
X159495500Y-96667500D01*
G75*
G02*
X159733000Y-96905000I0J-237500D01*
G01*
X159733000Y-97405000D01*
G75*
G02*
X159495500Y-97642500I-237500J0D01*
G01*
X159020500Y-97642500D01*
G75*
G02*
X158783000Y-97405000I0J237500D01*
G01*
X158783000Y-96905000D01*
G75*
G02*
X159020500Y-96667500I237500J0D01*
G01*
G37*
G04 #@! TD*
G04 #@! TO.C,R7*
G36*
G01*
X156480500Y-98492500D02*
X156955500Y-98492500D01*
G75*
G02*
X157193000Y-98730000I0J-237500D01*
G01*
X157193000Y-99230000D01*
G75*
G02*
X156955500Y-99467500I-237500J0D01*
G01*
X156480500Y-99467500D01*
G75*
G02*
X156243000Y-99230000I0J237500D01*
G01*
X156243000Y-98730000D01*
G75*
G02*
X156480500Y-98492500I237500J0D01*
G01*
G37*
G36*
G01*
X156480500Y-96667500D02*
X156955500Y-96667500D01*
G75*
G02*
X157193000Y-96905000I0J-237500D01*
G01*
X157193000Y-97405000D01*
G75*
G02*
X156955500Y-97642500I-237500J0D01*
G01*
X156480500Y-97642500D01*
G75*
G02*
X156243000Y-97405000I0J237500D01*
G01*
X156243000Y-96905000D01*
G75*
G02*
X156480500Y-96667500I237500J0D01*
G01*
G37*
G04 #@! TD*
G04 #@! TO.C,R6*
G36*
G01*
X153940500Y-98492500D02*
X154415500Y-98492500D01*
G75*
G02*
X154653000Y-98730000I0J-237500D01*
G01*
X154653000Y-99230000D01*
G75*
G02*
X154415500Y-99467500I-237500J0D01*
G01*
X153940500Y-99467500D01*
G75*
G02*
X153703000Y-99230000I0J237500D01*
G01*
X153703000Y-98730000D01*
G75*
G02*
X153940500Y-98492500I237500J0D01*
G01*
G37*
G36*
G01*
X153940500Y-96667500D02*
X154415500Y-96667500D01*
G75*
G02*
X154653000Y-96905000I0J-237500D01*
G01*
X154653000Y-97405000D01*
G75*
G02*
X154415500Y-97642500I-237500J0D01*
G01*
X153940500Y-97642500D01*
G75*
G02*
X153703000Y-97405000I0J237500D01*
G01*
X153703000Y-96905000D01*
G75*
G02*
X153940500Y-96667500I237500J0D01*
G01*
G37*
G04 #@! TD*
G04 #@! TO.C,R5*
G36*
G01*
X151400500Y-98492500D02*
X151875500Y-98492500D01*
G75*
G02*
X152113000Y-98730000I0J-237500D01*
G01*
X152113000Y-99230000D01*
G75*
G02*
X151875500Y-99467500I-237500J0D01*
G01*
X151400500Y-99467500D01*
G75*
G02*
X151163000Y-99230000I0J237500D01*
G01*
X151163000Y-98730000D01*
G75*
G02*
X151400500Y-98492500I237500J0D01*
G01*
G37*
G36*
G01*
X151400500Y-96667500D02*
X151875500Y-96667500D01*
G75*
G02*
X152113000Y-96905000I0J-237500D01*
G01*
X152113000Y-97405000D01*
G75*
G02*
X151875500Y-97642500I-237500J0D01*
G01*
X151400500Y-97642500D01*
G75*
G02*
X151163000Y-97405000I0J237500D01*
G01*
X151163000Y-96905000D01*
G75*
G02*
X151400500Y-96667500I237500J0D01*
G01*
G37*
G04 #@! TD*
G04 #@! TO.C,R4*
G36*
G01*
X148860500Y-98492500D02*
X149335500Y-98492500D01*
G75*
G02*
X149573000Y-98730000I0J-237500D01*
G01*
X149573000Y-99230000D01*
G75*
G02*
X149335500Y-99467500I-237500J0D01*
G01*
X148860500Y-99467500D01*
G75*
G02*
X148623000Y-99230000I0J237500D01*
G01*
X148623000Y-98730000D01*
G75*
G02*
X148860500Y-98492500I237500J0D01*
G01*
G37*
G36*
G01*
X148860500Y-96667500D02*
X149335500Y-96667500D01*
G75*
G02*
X149573000Y-96905000I0J-237500D01*
G01*
X149573000Y-97405000D01*
G75*
G02*
X149335500Y-97642500I-237500J0D01*
G01*
X148860500Y-97642500D01*
G75*
G02*
X148623000Y-97405000I0J237500D01*
G01*
X148623000Y-96905000D01*
G75*
G02*
X148860500Y-96667500I237500J0D01*
G01*
G37*
G04 #@! TD*
G04 #@! TO.C,R3*
G36*
G01*
X143780500Y-98492500D02*
X144255500Y-98492500D01*
G75*
G02*
X144493000Y-98730000I0J-237500D01*
G01*
X144493000Y-99230000D01*
G75*
G02*
X144255500Y-99467500I-237500J0D01*
G01*
X143780500Y-99467500D01*
G75*
G02*
X143543000Y-99230000I0J237500D01*
G01*
X143543000Y-98730000D01*
G75*
G02*
X143780500Y-98492500I237500J0D01*
G01*
G37*
G36*
G01*
X143780500Y-96667500D02*
X144255500Y-96667500D01*
G75*
G02*
X144493000Y-96905000I0J-237500D01*
G01*
X144493000Y-97405000D01*
G75*
G02*
X144255500Y-97642500I-237500J0D01*
G01*
X143780500Y-97642500D01*
G75*
G02*
X143543000Y-97405000I0J237500D01*
G01*
X143543000Y-96905000D01*
G75*
G02*
X143780500Y-96667500I237500J0D01*
G01*
G37*
G04 #@! TD*
D16*
G04 #@! TO.C,P1*
X138938000Y-123825000D03*
X141478000Y-123825000D03*
X144018000Y-123825000D03*
X146558000Y-123825000D03*
X149098000Y-123825000D03*
X151638000Y-123825000D03*
X154178000Y-123825000D03*
X156718000Y-123825000D03*
G04 #@! TD*
G04 #@! TO.C,P2*
X161798000Y-123825000D03*
X164338000Y-123825000D03*
X166878000Y-123825000D03*
X169418000Y-123825000D03*
X171958000Y-123825000D03*
X174498000Y-123825000D03*
G04 #@! TD*
G04 #@! TO.C,P3*
X129794000Y-75565000D03*
X132334000Y-75565000D03*
X134874000Y-75565000D03*
X137414000Y-75565000D03*
X139954000Y-75565000D03*
X142494000Y-75565000D03*
X145034000Y-75565000D03*
X147574000Y-75565000D03*
X150114000Y-75565000D03*
X152654000Y-75565000D03*
G04 #@! TD*
G04 #@! TO.C,P4*
X156718000Y-75565000D03*
X159258000Y-75565000D03*
X161798000Y-75565000D03*
X164338000Y-75565000D03*
X166878000Y-75565000D03*
X169418000Y-75565000D03*
X171958000Y-75565000D03*
X174498000Y-75565000D03*
G04 #@! TD*
D17*
G04 #@! TO.C,P5*
X124968000Y-123825000D03*
G04 #@! TD*
G04 #@! TO.C,P6*
X177038000Y-118745000D03*
G04 #@! TD*
G04 #@! TO.C,P7*
X126238000Y-75565000D03*
G04 #@! TD*
G04 #@! TO.C,P8*
X177038000Y-90805000D03*
G04 #@! TD*
M02*
