M48
; DRILL file {KiCad 5.1.12-84ad8e8a86~92~ubuntu20.04.1} date 2022年02月09日 05時51分46秒
; FORMAT={3:3/ absolute / metric / suppress leading zeros}
; #@! TF.CreationDate,2022-02-09T05:51:46+09:00
; #@! TF.GenerationSoftware,Kicad,Pcbnew,5.1.12-84ad8e8a86~92~ubuntu20.04.1
FMAT,2
METRIC,TZ
T1C0.400
T2C1.000
T3C1.016
T4C3.048
%
G90
G05
T1
X118798Y-93215
X123998Y-101015
X141478Y-112395
X150368Y-100330
X151003Y-101600
X152908Y-85725
X154308Y-102875
X155448Y-85725
X156908Y-102225
X157988Y-85725
X159508Y-113925
X159508Y-102875
X160158Y-107425
X160528Y-85725
X160528Y-97155
X160528Y-112395
X160808Y-101575
X161458Y-107425
X166658Y-84025
X169258Y-84025
X172508Y-84025
T2
X114948Y-76315
X114948Y-82815
X116078Y-88265
X116078Y-93345
X116078Y-95885
X116078Y-98425
X116078Y-108585
X118618Y-88265
X118618Y-108585
X119448Y-76315
X119448Y-82815
X121158Y-88265
X121158Y-108585
X126238Y-81915
X126238Y-114935
X144018Y-94615
X144018Y-109855
X146558Y-94615
X146558Y-109855
X149098Y-94615
X149098Y-109855
X151638Y-94615
X151638Y-109855
X154178Y-94615
X154178Y-109855
X156718Y-94615
X156718Y-109855
X159258Y-94615
X159258Y-109855
X161798Y-94615
X161798Y-109855
X164338Y-94615
X164338Y-109855
X166878Y-94615
X166878Y-109855
X168148Y-116205
X169418Y-94615
X169418Y-109855
X170688Y-116205
X171958Y-94615
X171958Y-109855
X174498Y-94615
X174498Y-109855
X177038Y-94615
X177038Y-109855
T3
X129794Y-75565
X132334Y-75565
X134874Y-75565
X137414Y-75565
X138938Y-123825
X139954Y-75565
X141478Y-123825
X142494Y-75565
X144018Y-123825
X145034Y-75565
X146558Y-123825
X147574Y-75565
X149098Y-123825
X150114Y-75565
X151638Y-123825
X152654Y-75565
X154178Y-123825
X156718Y-75565
X156718Y-123825
X159258Y-75565
X161798Y-75565
X161798Y-123825
X164338Y-75565
X164338Y-123825
X166878Y-75565
X166878Y-123825
X169418Y-75565
X169418Y-123825
X171958Y-75565
X171958Y-123825
X174498Y-75565
X174498Y-123825
T4
X124968Y-123825
X126238Y-75565
X177038Y-90805
X177038Y-118745
T0
M30
