G04 #@! TF.GenerationSoftware,KiCad,Pcbnew,5.1.12-84ad8e8a86~92~ubuntu20.04.1*
G04 #@! TF.CreationDate,2022-02-09T05:50:52+09:00*
G04 #@! TF.ProjectId,Akashi-09,416b6173-6869-42d3-9039-2e6b69636164,rev?*
G04 #@! TF.SameCoordinates,Original*
G04 #@! TF.FileFunction,Copper,L2,Bot*
G04 #@! TF.FilePolarity,Positive*
%FSLAX46Y46*%
G04 Gerber Fmt 4.6, Leading zero omitted, Abs format (unit mm)*
G04 Created by KiCad (PCBNEW 5.1.12-84ad8e8a86~92~ubuntu20.04.1) date 2022-02-09 05:50:52*
%MOMM*%
%LPD*%
G01*
G04 APERTURE LIST*
G04 #@! TA.AperFunction,ComponentPad*
%ADD10C,2.000000*%
G04 #@! TD*
G04 #@! TA.AperFunction,ComponentPad*
%ADD11O,1.700000X1.700000*%
G04 #@! TD*
G04 #@! TA.AperFunction,ComponentPad*
%ADD12R,1.700000X1.700000*%
G04 #@! TD*
G04 #@! TA.AperFunction,ComponentPad*
%ADD13C,1.524000*%
G04 #@! TD*
G04 #@! TA.AperFunction,ComponentPad*
%ADD14R,1.270000X1.270000*%
G04 #@! TD*
G04 #@! TA.AperFunction,ComponentPad*
%ADD15C,1.700000*%
G04 #@! TD*
G04 #@! TA.AperFunction,ComponentPad*
%ADD16O,1.727200X2.032000*%
G04 #@! TD*
G04 #@! TA.AperFunction,ComponentPad*
%ADD17C,4.064000*%
G04 #@! TD*
G04 #@! TA.AperFunction,ViaPad*
%ADD18C,0.600000*%
G04 #@! TD*
G04 #@! TA.AperFunction,Conductor*
%ADD19C,0.250000*%
G04 #@! TD*
G04 #@! TA.AperFunction,Conductor*
%ADD20C,0.254000*%
G04 #@! TD*
G04 #@! TA.AperFunction,Conductor*
%ADD21C,0.100000*%
G04 #@! TD*
G04 APERTURE END LIST*
D10*
G04 #@! TO.P,TP2,1*
G04 #@! TO.N,+3V3*
X126238000Y-114935000D03*
G04 #@! TD*
G04 #@! TO.P,TP1,1*
G04 #@! TO.N,GND*
X126238000Y-81915000D03*
G04 #@! TD*
D11*
G04 #@! TO.P,J2,3*
G04 #@! TO.N,Net-(J2-Pad3)*
X116078000Y-98425000D03*
G04 #@! TO.P,J2,2*
G04 #@! TO.N,GND*
X116078000Y-95885000D03*
D12*
G04 #@! TO.P,J2,1*
G04 #@! TO.N,Net-(J2-Pad1)*
X116078000Y-93345000D03*
G04 #@! TD*
D13*
G04 #@! TO.P,J1,28*
G04 #@! TO.N,/D_2*
X144018000Y-94615000D03*
G04 #@! TO.P,J1,27*
G04 #@! TO.N,Net-(J1-Pad27)*
X146558000Y-94615000D03*
G04 #@! TO.P,J1,26*
G04 #@! TO.N,/D_3*
X149098000Y-94615000D03*
G04 #@! TO.P,J1,25*
G04 #@! TO.N,/D_4*
X151638000Y-94615000D03*
G04 #@! TO.P,J1,24*
G04 #@! TO.N,/D_5*
X154178000Y-94615000D03*
G04 #@! TO.P,J1,23*
G04 #@! TO.N,/D_6*
X156718000Y-94615000D03*
G04 #@! TO.P,J1,22*
G04 #@! TO.N,/D_7*
X159258000Y-94615000D03*
G04 #@! TO.P,J1,21*
G04 #@! TO.N,/D_8*
X161798000Y-94615000D03*
G04 #@! TO.P,J1,20*
G04 #@! TO.N,Net-(J1-Pad20)*
X164338000Y-94615000D03*
G04 #@! TO.P,J1,19*
G04 #@! TO.N,/KEY3*
X166878000Y-94615000D03*
G04 #@! TO.P,J1,18*
G04 #@! TO.N,/KEY2*
X169418000Y-94615000D03*
G04 #@! TO.P,J1,17*
G04 #@! TO.N,/KEY1*
X171958000Y-94615000D03*
G04 #@! TO.P,J1,16*
G04 #@! TO.N,Net-(J1-Pad16)*
X174498000Y-94615000D03*
G04 #@! TO.P,J1,15*
G04 #@! TO.N,Net-(J1-Pad15)*
X177038000Y-94615000D03*
G04 #@! TO.P,J1,14*
G04 #@! TO.N,/+25V*
X177038000Y-109855000D03*
G04 #@! TO.P,J1,13*
G04 #@! TO.N,/SEG_DP*
X174498000Y-109855000D03*
G04 #@! TO.P,J1,12*
G04 #@! TO.N,/SEG_D*
X171958000Y-109855000D03*
G04 #@! TO.P,J1,11*
G04 #@! TO.N,/SEG_C*
X169418000Y-109855000D03*
G04 #@! TO.P,J1,10*
G04 #@! TO.N,/SEG_E*
X166878000Y-109855000D03*
G04 #@! TO.P,J1,9*
G04 #@! TO.N,/SEG_G*
X164338000Y-109855000D03*
G04 #@! TO.P,J1,8*
G04 #@! TO.N,/SEG_B*
X161798000Y-109855000D03*
G04 #@! TO.P,J1,7*
G04 #@! TO.N,/SEG_F*
X159258000Y-109855000D03*
G04 #@! TO.P,J1,6*
G04 #@! TO.N,/SEG_A*
X156718000Y-109855000D03*
G04 #@! TO.P,J1,5*
G04 #@! TO.N,Net-(J1-Pad5)*
X154178000Y-109855000D03*
G04 #@! TO.P,J1,4*
G04 #@! TO.N,GND*
X151638000Y-109855000D03*
G04 #@! TO.P,J1,3*
G04 #@! TO.N,Net-(J1-Pad3)*
X149098000Y-109855000D03*
G04 #@! TO.P,J1,2*
G04 #@! TO.N,/D_0*
X146558000Y-109855000D03*
D14*
G04 #@! TO.P,J1,1*
G04 #@! TO.N,/D_1*
X144018000Y-109855000D03*
G04 #@! TD*
D11*
G04 #@! TO.P,JP3,2*
G04 #@! TO.N,/+25V*
X170688000Y-116205000D03*
D12*
G04 #@! TO.P,JP3,1*
G04 #@! TO.N,/VBB*
X168148000Y-116205000D03*
G04 #@! TD*
D15*
G04 #@! TO.P,SW1,1*
G04 #@! TO.N,GND*
X119448000Y-76315000D03*
G04 #@! TO.P,SW1,2*
X119448000Y-82815000D03*
G04 #@! TO.P,SW1,3*
G04 #@! TO.N,/nRESET*
X114948000Y-76315000D03*
G04 #@! TO.P,SW1,4*
X114948000Y-82815000D03*
G04 #@! TD*
D11*
G04 #@! TO.P,JP2,3*
G04 #@! TO.N,Net-(J2-Pad1)*
X116078000Y-88265000D03*
G04 #@! TO.P,JP2,2*
G04 #@! TO.N,+3V3*
X118618000Y-88265000D03*
D12*
G04 #@! TO.P,JP2,1*
G04 #@! TO.N,Net-(C4-Pad1)*
X121158000Y-88265000D03*
G04 #@! TD*
D11*
G04 #@! TO.P,JP1,3*
G04 #@! TO.N,Net-(J2-Pad3)*
X116078000Y-108585000D03*
G04 #@! TO.P,JP1,2*
G04 #@! TO.N,/VBB*
X118618000Y-108585000D03*
D12*
G04 #@! TO.P,JP1,1*
G04 #@! TO.N,Net-(JP1-Pad1)*
X121158000Y-108585000D03*
G04 #@! TD*
G04 #@! TO.P,C2,2*
G04 #@! TO.N,GND*
G04 #@! TA.AperFunction,SMDPad,CuDef*
G36*
G01*
X157670500Y-107187500D02*
X157670500Y-107662500D01*
G75*
G02*
X157433000Y-107900000I-237500J0D01*
G01*
X156833000Y-107900000D01*
G75*
G02*
X156595500Y-107662500I0J237500D01*
G01*
X156595500Y-107187500D01*
G75*
G02*
X156833000Y-106950000I237500J0D01*
G01*
X157433000Y-106950000D01*
G75*
G02*
X157670500Y-107187500I0J-237500D01*
G01*
G37*
G04 #@! TD.AperFunction*
G04 #@! TO.P,C2,1*
G04 #@! TO.N,+3V3*
G04 #@! TA.AperFunction,SMDPad,CuDef*
G36*
G01*
X159395500Y-107187500D02*
X159395500Y-107662500D01*
G75*
G02*
X159158000Y-107900000I-237500J0D01*
G01*
X158558000Y-107900000D01*
G75*
G02*
X158320500Y-107662500I0J237500D01*
G01*
X158320500Y-107187500D01*
G75*
G02*
X158558000Y-106950000I237500J0D01*
G01*
X159158000Y-106950000D01*
G75*
G02*
X159395500Y-107187500I0J-237500D01*
G01*
G37*
G04 #@! TD.AperFunction*
G04 #@! TD*
G04 #@! TO.P,C1,2*
G04 #@! TO.N,GND*
G04 #@! TA.AperFunction,SMDPad,CuDef*
G36*
G01*
X162985500Y-106282500D02*
X162985500Y-105807500D01*
G75*
G02*
X163223000Y-105570000I237500J0D01*
G01*
X163823000Y-105570000D01*
G75*
G02*
X164060500Y-105807500I0J-237500D01*
G01*
X164060500Y-106282500D01*
G75*
G02*
X163823000Y-106520000I-237500J0D01*
G01*
X163223000Y-106520000D01*
G75*
G02*
X162985500Y-106282500I0J237500D01*
G01*
G37*
G04 #@! TD.AperFunction*
G04 #@! TO.P,C1,1*
G04 #@! TO.N,/VBB*
G04 #@! TA.AperFunction,SMDPad,CuDef*
G36*
G01*
X161260500Y-106282500D02*
X161260500Y-105807500D01*
G75*
G02*
X161498000Y-105570000I237500J0D01*
G01*
X162098000Y-105570000D01*
G75*
G02*
X162335500Y-105807500I0J-237500D01*
G01*
X162335500Y-106282500D01*
G75*
G02*
X162098000Y-106520000I-237500J0D01*
G01*
X161498000Y-106520000D01*
G75*
G02*
X161260500Y-106282500I0J237500D01*
G01*
G37*
G04 #@! TD.AperFunction*
G04 #@! TD*
G04 #@! TO.P,R1,2*
G04 #@! TO.N,GND*
G04 #@! TA.AperFunction,SMDPad,CuDef*
G36*
G01*
X146795500Y-105977500D02*
X146320500Y-105977500D01*
G75*
G02*
X146083000Y-105740000I0J237500D01*
G01*
X146083000Y-105240000D01*
G75*
G02*
X146320500Y-105002500I237500J0D01*
G01*
X146795500Y-105002500D01*
G75*
G02*
X147033000Y-105240000I0J-237500D01*
G01*
X147033000Y-105740000D01*
G75*
G02*
X146795500Y-105977500I-237500J0D01*
G01*
G37*
G04 #@! TD.AperFunction*
G04 #@! TO.P,R1,1*
G04 #@! TO.N,/D_0*
G04 #@! TA.AperFunction,SMDPad,CuDef*
G36*
G01*
X146795500Y-107802500D02*
X146320500Y-107802500D01*
G75*
G02*
X146083000Y-107565000I0J237500D01*
G01*
X146083000Y-107065000D01*
G75*
G02*
X146320500Y-106827500I237500J0D01*
G01*
X146795500Y-106827500D01*
G75*
G02*
X147033000Y-107065000I0J-237500D01*
G01*
X147033000Y-107565000D01*
G75*
G02*
X146795500Y-107802500I-237500J0D01*
G01*
G37*
G04 #@! TD.AperFunction*
G04 #@! TD*
G04 #@! TO.P,R2,2*
G04 #@! TO.N,GND*
G04 #@! TA.AperFunction,SMDPad,CuDef*
G36*
G01*
X144255500Y-105977500D02*
X143780500Y-105977500D01*
G75*
G02*
X143543000Y-105740000I0J237500D01*
G01*
X143543000Y-105240000D01*
G75*
G02*
X143780500Y-105002500I237500J0D01*
G01*
X144255500Y-105002500D01*
G75*
G02*
X144493000Y-105240000I0J-237500D01*
G01*
X144493000Y-105740000D01*
G75*
G02*
X144255500Y-105977500I-237500J0D01*
G01*
G37*
G04 #@! TD.AperFunction*
G04 #@! TO.P,R2,1*
G04 #@! TO.N,/D_1*
G04 #@! TA.AperFunction,SMDPad,CuDef*
G36*
G01*
X144255500Y-107802500D02*
X143780500Y-107802500D01*
G75*
G02*
X143543000Y-107565000I0J237500D01*
G01*
X143543000Y-107065000D01*
G75*
G02*
X143780500Y-106827500I237500J0D01*
G01*
X144255500Y-106827500D01*
G75*
G02*
X144493000Y-107065000I0J-237500D01*
G01*
X144493000Y-107565000D01*
G75*
G02*
X144255500Y-107802500I-237500J0D01*
G01*
G37*
G04 #@! TD.AperFunction*
G04 #@! TD*
G04 #@! TO.P,R9,2*
G04 #@! TO.N,GND*
G04 #@! TA.AperFunction,SMDPad,CuDef*
G36*
G01*
X161560500Y-98492500D02*
X162035500Y-98492500D01*
G75*
G02*
X162273000Y-98730000I0J-237500D01*
G01*
X162273000Y-99230000D01*
G75*
G02*
X162035500Y-99467500I-237500J0D01*
G01*
X161560500Y-99467500D01*
G75*
G02*
X161323000Y-99230000I0J237500D01*
G01*
X161323000Y-98730000D01*
G75*
G02*
X161560500Y-98492500I237500J0D01*
G01*
G37*
G04 #@! TD.AperFunction*
G04 #@! TO.P,R9,1*
G04 #@! TO.N,/D_8*
G04 #@! TA.AperFunction,SMDPad,CuDef*
G36*
G01*
X161560500Y-96667500D02*
X162035500Y-96667500D01*
G75*
G02*
X162273000Y-96905000I0J-237500D01*
G01*
X162273000Y-97405000D01*
G75*
G02*
X162035500Y-97642500I-237500J0D01*
G01*
X161560500Y-97642500D01*
G75*
G02*
X161323000Y-97405000I0J237500D01*
G01*
X161323000Y-96905000D01*
G75*
G02*
X161560500Y-96667500I237500J0D01*
G01*
G37*
G04 #@! TD.AperFunction*
G04 #@! TD*
G04 #@! TO.P,R8,2*
G04 #@! TO.N,GND*
G04 #@! TA.AperFunction,SMDPad,CuDef*
G36*
G01*
X159020500Y-98492500D02*
X159495500Y-98492500D01*
G75*
G02*
X159733000Y-98730000I0J-237500D01*
G01*
X159733000Y-99230000D01*
G75*
G02*
X159495500Y-99467500I-237500J0D01*
G01*
X159020500Y-99467500D01*
G75*
G02*
X158783000Y-99230000I0J237500D01*
G01*
X158783000Y-98730000D01*
G75*
G02*
X159020500Y-98492500I237500J0D01*
G01*
G37*
G04 #@! TD.AperFunction*
G04 #@! TO.P,R8,1*
G04 #@! TO.N,/D_7*
G04 #@! TA.AperFunction,SMDPad,CuDef*
G36*
G01*
X159020500Y-96667500D02*
X159495500Y-96667500D01*
G75*
G02*
X159733000Y-96905000I0J-237500D01*
G01*
X159733000Y-97405000D01*
G75*
G02*
X159495500Y-97642500I-237500J0D01*
G01*
X159020500Y-97642500D01*
G75*
G02*
X158783000Y-97405000I0J237500D01*
G01*
X158783000Y-96905000D01*
G75*
G02*
X159020500Y-96667500I237500J0D01*
G01*
G37*
G04 #@! TD.AperFunction*
G04 #@! TD*
G04 #@! TO.P,R7,2*
G04 #@! TO.N,GND*
G04 #@! TA.AperFunction,SMDPad,CuDef*
G36*
G01*
X156480500Y-98492500D02*
X156955500Y-98492500D01*
G75*
G02*
X157193000Y-98730000I0J-237500D01*
G01*
X157193000Y-99230000D01*
G75*
G02*
X156955500Y-99467500I-237500J0D01*
G01*
X156480500Y-99467500D01*
G75*
G02*
X156243000Y-99230000I0J237500D01*
G01*
X156243000Y-98730000D01*
G75*
G02*
X156480500Y-98492500I237500J0D01*
G01*
G37*
G04 #@! TD.AperFunction*
G04 #@! TO.P,R7,1*
G04 #@! TO.N,/D_6*
G04 #@! TA.AperFunction,SMDPad,CuDef*
G36*
G01*
X156480500Y-96667500D02*
X156955500Y-96667500D01*
G75*
G02*
X157193000Y-96905000I0J-237500D01*
G01*
X157193000Y-97405000D01*
G75*
G02*
X156955500Y-97642500I-237500J0D01*
G01*
X156480500Y-97642500D01*
G75*
G02*
X156243000Y-97405000I0J237500D01*
G01*
X156243000Y-96905000D01*
G75*
G02*
X156480500Y-96667500I237500J0D01*
G01*
G37*
G04 #@! TD.AperFunction*
G04 #@! TD*
G04 #@! TO.P,R6,2*
G04 #@! TO.N,GND*
G04 #@! TA.AperFunction,SMDPad,CuDef*
G36*
G01*
X153940500Y-98492500D02*
X154415500Y-98492500D01*
G75*
G02*
X154653000Y-98730000I0J-237500D01*
G01*
X154653000Y-99230000D01*
G75*
G02*
X154415500Y-99467500I-237500J0D01*
G01*
X153940500Y-99467500D01*
G75*
G02*
X153703000Y-99230000I0J237500D01*
G01*
X153703000Y-98730000D01*
G75*
G02*
X153940500Y-98492500I237500J0D01*
G01*
G37*
G04 #@! TD.AperFunction*
G04 #@! TO.P,R6,1*
G04 #@! TO.N,/D_5*
G04 #@! TA.AperFunction,SMDPad,CuDef*
G36*
G01*
X153940500Y-96667500D02*
X154415500Y-96667500D01*
G75*
G02*
X154653000Y-96905000I0J-237500D01*
G01*
X154653000Y-97405000D01*
G75*
G02*
X154415500Y-97642500I-237500J0D01*
G01*
X153940500Y-97642500D01*
G75*
G02*
X153703000Y-97405000I0J237500D01*
G01*
X153703000Y-96905000D01*
G75*
G02*
X153940500Y-96667500I237500J0D01*
G01*
G37*
G04 #@! TD.AperFunction*
G04 #@! TD*
G04 #@! TO.P,R5,2*
G04 #@! TO.N,GND*
G04 #@! TA.AperFunction,SMDPad,CuDef*
G36*
G01*
X151400500Y-98492500D02*
X151875500Y-98492500D01*
G75*
G02*
X152113000Y-98730000I0J-237500D01*
G01*
X152113000Y-99230000D01*
G75*
G02*
X151875500Y-99467500I-237500J0D01*
G01*
X151400500Y-99467500D01*
G75*
G02*
X151163000Y-99230000I0J237500D01*
G01*
X151163000Y-98730000D01*
G75*
G02*
X151400500Y-98492500I237500J0D01*
G01*
G37*
G04 #@! TD.AperFunction*
G04 #@! TO.P,R5,1*
G04 #@! TO.N,/D_4*
G04 #@! TA.AperFunction,SMDPad,CuDef*
G36*
G01*
X151400500Y-96667500D02*
X151875500Y-96667500D01*
G75*
G02*
X152113000Y-96905000I0J-237500D01*
G01*
X152113000Y-97405000D01*
G75*
G02*
X151875500Y-97642500I-237500J0D01*
G01*
X151400500Y-97642500D01*
G75*
G02*
X151163000Y-97405000I0J237500D01*
G01*
X151163000Y-96905000D01*
G75*
G02*
X151400500Y-96667500I237500J0D01*
G01*
G37*
G04 #@! TD.AperFunction*
G04 #@! TD*
G04 #@! TO.P,R4,2*
G04 #@! TO.N,GND*
G04 #@! TA.AperFunction,SMDPad,CuDef*
G36*
G01*
X148860500Y-98492500D02*
X149335500Y-98492500D01*
G75*
G02*
X149573000Y-98730000I0J-237500D01*
G01*
X149573000Y-99230000D01*
G75*
G02*
X149335500Y-99467500I-237500J0D01*
G01*
X148860500Y-99467500D01*
G75*
G02*
X148623000Y-99230000I0J237500D01*
G01*
X148623000Y-98730000D01*
G75*
G02*
X148860500Y-98492500I237500J0D01*
G01*
G37*
G04 #@! TD.AperFunction*
G04 #@! TO.P,R4,1*
G04 #@! TO.N,/D_3*
G04 #@! TA.AperFunction,SMDPad,CuDef*
G36*
G01*
X148860500Y-96667500D02*
X149335500Y-96667500D01*
G75*
G02*
X149573000Y-96905000I0J-237500D01*
G01*
X149573000Y-97405000D01*
G75*
G02*
X149335500Y-97642500I-237500J0D01*
G01*
X148860500Y-97642500D01*
G75*
G02*
X148623000Y-97405000I0J237500D01*
G01*
X148623000Y-96905000D01*
G75*
G02*
X148860500Y-96667500I237500J0D01*
G01*
G37*
G04 #@! TD.AperFunction*
G04 #@! TD*
G04 #@! TO.P,R3,2*
G04 #@! TO.N,GND*
G04 #@! TA.AperFunction,SMDPad,CuDef*
G36*
G01*
X143780500Y-98492500D02*
X144255500Y-98492500D01*
G75*
G02*
X144493000Y-98730000I0J-237500D01*
G01*
X144493000Y-99230000D01*
G75*
G02*
X144255500Y-99467500I-237500J0D01*
G01*
X143780500Y-99467500D01*
G75*
G02*
X143543000Y-99230000I0J237500D01*
G01*
X143543000Y-98730000D01*
G75*
G02*
X143780500Y-98492500I237500J0D01*
G01*
G37*
G04 #@! TD.AperFunction*
G04 #@! TO.P,R3,1*
G04 #@! TO.N,/D_2*
G04 #@! TA.AperFunction,SMDPad,CuDef*
G36*
G01*
X143780500Y-96667500D02*
X144255500Y-96667500D01*
G75*
G02*
X144493000Y-96905000I0J-237500D01*
G01*
X144493000Y-97405000D01*
G75*
G02*
X144255500Y-97642500I-237500J0D01*
G01*
X143780500Y-97642500D01*
G75*
G02*
X143543000Y-97405000I0J237500D01*
G01*
X143543000Y-96905000D01*
G75*
G02*
X143780500Y-96667500I237500J0D01*
G01*
G37*
G04 #@! TD.AperFunction*
G04 #@! TD*
D16*
G04 #@! TO.P,P1,1*
G04 #@! TO.N,Net-(P1-Pad1)*
X138938000Y-123825000D03*
G04 #@! TO.P,P1,2*
G04 #@! TO.N,Net-(P1-Pad2)*
X141478000Y-123825000D03*
G04 #@! TO.P,P1,3*
G04 #@! TO.N,/nRESET*
X144018000Y-123825000D03*
G04 #@! TO.P,P1,4*
G04 #@! TO.N,/BASE_3.3V*
X146558000Y-123825000D03*
G04 #@! TO.P,P1,5*
G04 #@! TO.N,Net-(P1-Pad5)*
X149098000Y-123825000D03*
G04 #@! TO.P,P1,6*
G04 #@! TO.N,GND*
X151638000Y-123825000D03*
G04 #@! TO.P,P1,7*
X154178000Y-123825000D03*
G04 #@! TO.P,P1,8*
G04 #@! TO.N,Net-(P1-Pad8)*
X156718000Y-123825000D03*
G04 #@! TD*
G04 #@! TO.P,P2,1*
G04 #@! TO.N,Net-(P2-Pad1)*
X161798000Y-123825000D03*
G04 #@! TO.P,P2,2*
G04 #@! TO.N,Net-(P2-Pad2)*
X164338000Y-123825000D03*
G04 #@! TO.P,P2,3*
G04 #@! TO.N,Net-(P2-Pad3)*
X166878000Y-123825000D03*
G04 #@! TO.P,P2,4*
G04 #@! TO.N,Net-(P2-Pad4)*
X169418000Y-123825000D03*
G04 #@! TO.P,P2,5*
G04 #@! TO.N,Net-(P2-Pad5)*
X171958000Y-123825000D03*
G04 #@! TO.P,P2,6*
G04 #@! TO.N,Net-(P2-Pad6)*
X174498000Y-123825000D03*
G04 #@! TD*
G04 #@! TO.P,P3,1*
G04 #@! TO.N,Net-(P3-Pad1)*
X129794000Y-75565000D03*
G04 #@! TO.P,P3,2*
G04 #@! TO.N,Net-(P3-Pad2)*
X132334000Y-75565000D03*
G04 #@! TO.P,P3,3*
G04 #@! TO.N,Net-(P3-Pad3)*
X134874000Y-75565000D03*
G04 #@! TO.P,P3,4*
G04 #@! TO.N,GND*
X137414000Y-75565000D03*
G04 #@! TO.P,P3,5*
G04 #@! TO.N,/SCK*
X139954000Y-75565000D03*
G04 #@! TO.P,P3,6*
G04 #@! TO.N,/LOAD*
X142494000Y-75565000D03*
G04 #@! TO.P,P3,7*
G04 #@! TO.N,/MOSI*
X145034000Y-75565000D03*
G04 #@! TO.P,P3,8*
G04 #@! TO.N,/BLANK*
X147574000Y-75565000D03*
G04 #@! TO.P,P3,9*
G04 #@! TO.N,Net-(P3-Pad9)*
X150114000Y-75565000D03*
G04 #@! TO.P,P3,10*
G04 #@! TO.N,Net-(P3-Pad10)*
X152654000Y-75565000D03*
G04 #@! TD*
G04 #@! TO.P,P4,1*
G04 #@! TO.N,Net-(P4-Pad1)*
X156718000Y-75565000D03*
G04 #@! TO.P,P4,2*
G04 #@! TO.N,Net-(P4-Pad2)*
X159258000Y-75565000D03*
G04 #@! TO.P,P4,3*
G04 #@! TO.N,Net-(P4-Pad3)*
X161798000Y-75565000D03*
G04 #@! TO.P,P4,4*
G04 #@! TO.N,Net-(P4-Pad4)*
X164338000Y-75565000D03*
G04 #@! TO.P,P4,5*
G04 #@! TO.N,Net-(P4-Pad5)*
X166878000Y-75565000D03*
G04 #@! TO.P,P4,6*
G04 #@! TO.N,/RKEY3*
X169418000Y-75565000D03*
G04 #@! TO.P,P4,7*
G04 #@! TO.N,/RKEY2*
X171958000Y-75565000D03*
G04 #@! TO.P,P4,8*
G04 #@! TO.N,/RKEY1*
X174498000Y-75565000D03*
G04 #@! TD*
D17*
G04 #@! TO.P,P5,1*
G04 #@! TO.N,Net-(P5-Pad1)*
X124968000Y-123825000D03*
G04 #@! TD*
G04 #@! TO.P,P6,1*
G04 #@! TO.N,Net-(P6-Pad1)*
X177038000Y-118745000D03*
G04 #@! TD*
G04 #@! TO.P,P7,1*
G04 #@! TO.N,Net-(P7-Pad1)*
X126238000Y-75565000D03*
G04 #@! TD*
G04 #@! TO.P,P8,1*
G04 #@! TO.N,Net-(P8-Pad1)*
X177038000Y-90805000D03*
G04 #@! TD*
D18*
G04 #@! TO.N,GND*
X160808000Y-101575000D03*
X169258000Y-84025000D03*
X166658000Y-84025000D03*
X172508000Y-84025000D03*
X123998000Y-101015000D03*
X118798000Y-93215000D03*
G04 #@! TO.N,+3V3*
X160158000Y-107425000D03*
X160528000Y-112395000D03*
X141478000Y-112395000D03*
G04 #@! TO.N,/SCK*
X152908000Y-85725000D03*
X154308000Y-102875000D03*
G04 #@! TO.N,/LOAD*
X155448000Y-85725000D03*
X156908000Y-102225000D03*
G04 #@! TO.N,/MOSI*
X159508001Y-102874999D03*
X157988000Y-85725000D03*
G04 #@! TO.N,/BLANK*
X160528000Y-97155000D03*
X160528000Y-85725000D03*
G04 #@! TO.N,Net-(D4-Pad2)*
X150368000Y-100330000D03*
X151003000Y-101600000D03*
G04 #@! TO.N,/VBB*
X161458000Y-107425000D03*
X159508000Y-113925000D03*
G04 #@! TD*
D19*
G04 #@! TO.N,GND*
X157133000Y-107425000D02*
X156258000Y-107425000D01*
X163523000Y-106045000D02*
X164338000Y-106045000D01*
X144018000Y-98980000D02*
X144018000Y-99515000D01*
X144018000Y-99515000D02*
X143908000Y-99625000D01*
X143908000Y-99625000D02*
X143908000Y-100275000D01*
X149098000Y-98980000D02*
X149098000Y-100265000D01*
X149108000Y-100275000D02*
X149098000Y-100265000D01*
X151638000Y-98980000D02*
X151638000Y-100205000D01*
X154178000Y-98980000D02*
X154178000Y-100145000D01*
X156718000Y-98980000D02*
X156718000Y-100085000D01*
X159258000Y-98980000D02*
X159258000Y-100025000D01*
X161798000Y-98980000D02*
X161798000Y-99965000D01*
G04 #@! TO.N,+3V3*
X158858000Y-107425000D02*
X160158000Y-107425000D01*
X160457999Y-112324999D02*
X160528000Y-112395000D01*
X160457999Y-107724999D02*
X160457999Y-112324999D01*
X160158000Y-107425000D02*
X160457999Y-107724999D01*
X160528000Y-112395000D02*
X141478000Y-112395000D01*
G04 #@! TO.N,/+25V*
X176818000Y-109635000D02*
X177038000Y-109855000D01*
G04 #@! TO.N,/SCK*
X139954000Y-75565000D02*
X140025001Y-75636001D01*
X152908000Y-101475000D02*
X152908000Y-85725000D01*
X154308000Y-102875000D02*
X152908000Y-101475000D01*
G04 #@! TO.N,/LOAD*
X155448000Y-101575000D02*
X155448000Y-85725000D01*
X156058000Y-102225000D02*
X155448000Y-101575000D01*
X156908000Y-102225000D02*
X156058000Y-102225000D01*
G04 #@! TO.N,/MOSI*
X159557488Y-101999486D02*
X157988000Y-100429998D01*
X159508001Y-102874999D02*
X159557488Y-101999486D01*
X157988000Y-100429998D02*
X157988000Y-85725000D01*
G04 #@! TO.N,/BLANK*
X160528000Y-97155000D02*
X160528000Y-85725000D01*
G04 #@! TO.N,Net-(D4-Pad2)*
X150368000Y-100330000D02*
X150368000Y-100965000D01*
X150368000Y-100965000D02*
X151003000Y-101600000D01*
G04 #@! TO.N,/VBB*
X161798000Y-107085000D02*
X161458000Y-107425000D01*
X161798000Y-106045000D02*
X161798000Y-107085000D01*
X161688000Y-107425000D02*
X161458000Y-107425000D01*
X162885001Y-108852001D02*
X162885001Y-112497999D01*
X161458000Y-107425000D02*
X162885001Y-108852001D01*
X161458000Y-113925000D02*
X159508000Y-113925000D01*
X162885001Y-112497999D02*
X161458000Y-113925000D01*
X166592002Y-116205000D02*
X162885001Y-112497999D01*
X168148000Y-116205000D02*
X166592002Y-116205000D01*
G04 #@! TO.N,/D_8*
X161798000Y-97155000D02*
X161798000Y-94615000D01*
G04 #@! TO.N,/D_6*
X156718000Y-97155000D02*
X156718000Y-94615000D01*
G04 #@! TO.N,/D_4*
X151638000Y-97155000D02*
X151638000Y-94615000D01*
G04 #@! TO.N,/D_2*
X144018000Y-97155000D02*
X144018000Y-94615000D01*
G04 #@! TO.N,/D_1*
X144018000Y-107315000D02*
X144018000Y-109265000D01*
X144018000Y-109265000D02*
X143908000Y-109375000D01*
G04 #@! TO.N,/D_7*
X159258000Y-97155000D02*
X159258000Y-94615000D01*
G04 #@! TO.N,/D_5*
X154178000Y-97155000D02*
X154178000Y-94615000D01*
G04 #@! TO.N,/D_3*
X149098000Y-97155000D02*
X149098000Y-94615000D01*
G04 #@! TO.N,/D_0*
X146558000Y-107315000D02*
X146558000Y-109855000D01*
G04 #@! TD*
D20*
G04 #@! TO.N,GND*
X124166406Y-73864887D02*
X123874536Y-74301702D01*
X123673492Y-74787065D01*
X123571000Y-75302323D01*
X123571000Y-75827677D01*
X123673492Y-76342935D01*
X123874536Y-76828298D01*
X124166406Y-77265113D01*
X124537887Y-77636594D01*
X124974702Y-77928464D01*
X125460065Y-78129508D01*
X125975323Y-78232000D01*
X126500677Y-78232000D01*
X127015935Y-78129508D01*
X127501298Y-77928464D01*
X127938113Y-77636594D01*
X128309594Y-77265113D01*
X128601464Y-76828298D01*
X128657001Y-76694219D01*
X128729203Y-76782197D01*
X128957395Y-76969469D01*
X129217737Y-77108625D01*
X129500224Y-77194316D01*
X129794000Y-77223251D01*
X130087777Y-77194316D01*
X130370264Y-77108625D01*
X130630606Y-76969469D01*
X130858797Y-76782197D01*
X131046069Y-76554006D01*
X131064000Y-76520459D01*
X131081931Y-76554006D01*
X131269203Y-76782197D01*
X131497395Y-76969469D01*
X131757737Y-77108625D01*
X132040224Y-77194316D01*
X132334000Y-77223251D01*
X132627777Y-77194316D01*
X132910264Y-77108625D01*
X133170606Y-76969469D01*
X133398797Y-76782197D01*
X133586069Y-76554006D01*
X133604000Y-76520459D01*
X133621931Y-76554006D01*
X133809203Y-76782197D01*
X134037395Y-76969469D01*
X134297737Y-77108625D01*
X134580224Y-77194316D01*
X134874000Y-77223251D01*
X135167777Y-77194316D01*
X135450264Y-77108625D01*
X135710606Y-76969469D01*
X135938797Y-76782197D01*
X136126069Y-76554006D01*
X136147424Y-76514053D01*
X136295514Y-76716729D01*
X136511965Y-76915733D01*
X136763081Y-77068686D01*
X137039211Y-77169709D01*
X137054974Y-77172358D01*
X137287000Y-77051217D01*
X137287000Y-75692000D01*
X137267000Y-75692000D01*
X137267000Y-75438000D01*
X137287000Y-75438000D01*
X137287000Y-74078783D01*
X137541000Y-74078783D01*
X137541000Y-75438000D01*
X137561000Y-75438000D01*
X137561000Y-75692000D01*
X137541000Y-75692000D01*
X137541000Y-77051217D01*
X137773026Y-77172358D01*
X137788789Y-77169709D01*
X138064919Y-77068686D01*
X138316035Y-76915733D01*
X138532486Y-76716729D01*
X138680576Y-76514053D01*
X138701931Y-76554006D01*
X138889203Y-76782197D01*
X139117395Y-76969469D01*
X139377737Y-77108625D01*
X139660224Y-77194316D01*
X139954000Y-77223251D01*
X140247777Y-77194316D01*
X140530264Y-77108625D01*
X140790606Y-76969469D01*
X141018797Y-76782197D01*
X141206069Y-76554006D01*
X141224000Y-76520459D01*
X141241931Y-76554006D01*
X141429203Y-76782197D01*
X141657395Y-76969469D01*
X141917737Y-77108625D01*
X142200224Y-77194316D01*
X142494000Y-77223251D01*
X142787777Y-77194316D01*
X143070264Y-77108625D01*
X143330606Y-76969469D01*
X143558797Y-76782197D01*
X143746069Y-76554006D01*
X143764000Y-76520459D01*
X143781931Y-76554006D01*
X143969203Y-76782197D01*
X144197395Y-76969469D01*
X144457737Y-77108625D01*
X144740224Y-77194316D01*
X145034000Y-77223251D01*
X145327777Y-77194316D01*
X145610264Y-77108625D01*
X145870606Y-76969469D01*
X146098797Y-76782197D01*
X146286069Y-76554006D01*
X146304000Y-76520459D01*
X146321931Y-76554006D01*
X146509203Y-76782197D01*
X146737395Y-76969469D01*
X146997737Y-77108625D01*
X147280224Y-77194316D01*
X147574000Y-77223251D01*
X147867777Y-77194316D01*
X148150264Y-77108625D01*
X148410606Y-76969469D01*
X148638797Y-76782197D01*
X148826069Y-76554006D01*
X148844000Y-76520459D01*
X148861931Y-76554006D01*
X149049203Y-76782197D01*
X149277395Y-76969469D01*
X149537737Y-77108625D01*
X149820224Y-77194316D01*
X150114000Y-77223251D01*
X150407777Y-77194316D01*
X150690264Y-77108625D01*
X150950606Y-76969469D01*
X151178797Y-76782197D01*
X151366069Y-76554006D01*
X151384000Y-76520459D01*
X151401931Y-76554006D01*
X151589203Y-76782197D01*
X151817395Y-76969469D01*
X152077737Y-77108625D01*
X152360224Y-77194316D01*
X152654000Y-77223251D01*
X152947777Y-77194316D01*
X153230264Y-77108625D01*
X153490606Y-76969469D01*
X153718797Y-76782197D01*
X153906069Y-76554006D01*
X154045225Y-76293663D01*
X154130916Y-76011176D01*
X154152600Y-75791018D01*
X154152600Y-75338982D01*
X155219400Y-75338982D01*
X155219400Y-75791019D01*
X155241084Y-76011177D01*
X155326775Y-76293664D01*
X155465931Y-76554006D01*
X155653203Y-76782197D01*
X155881395Y-76969469D01*
X156141737Y-77108625D01*
X156424224Y-77194316D01*
X156718000Y-77223251D01*
X157011777Y-77194316D01*
X157294264Y-77108625D01*
X157554606Y-76969469D01*
X157782797Y-76782197D01*
X157970069Y-76554006D01*
X157988000Y-76520459D01*
X158005931Y-76554006D01*
X158193203Y-76782197D01*
X158421395Y-76969469D01*
X158681737Y-77108625D01*
X158964224Y-77194316D01*
X159258000Y-77223251D01*
X159551777Y-77194316D01*
X159834264Y-77108625D01*
X160094606Y-76969469D01*
X160322797Y-76782197D01*
X160510069Y-76554006D01*
X160528000Y-76520459D01*
X160545931Y-76554006D01*
X160733203Y-76782197D01*
X160961395Y-76969469D01*
X161221737Y-77108625D01*
X161504224Y-77194316D01*
X161798000Y-77223251D01*
X162091777Y-77194316D01*
X162374264Y-77108625D01*
X162634606Y-76969469D01*
X162862797Y-76782197D01*
X163050069Y-76554006D01*
X163068000Y-76520459D01*
X163085931Y-76554006D01*
X163273203Y-76782197D01*
X163501395Y-76969469D01*
X163761737Y-77108625D01*
X164044224Y-77194316D01*
X164338000Y-77223251D01*
X164631777Y-77194316D01*
X164914264Y-77108625D01*
X165174606Y-76969469D01*
X165402797Y-76782197D01*
X165590069Y-76554006D01*
X165608000Y-76520459D01*
X165625931Y-76554006D01*
X165813203Y-76782197D01*
X166041395Y-76969469D01*
X166301737Y-77108625D01*
X166584224Y-77194316D01*
X166878000Y-77223251D01*
X167171777Y-77194316D01*
X167454264Y-77108625D01*
X167714606Y-76969469D01*
X167942797Y-76782197D01*
X168130069Y-76554006D01*
X168148000Y-76520459D01*
X168165931Y-76554006D01*
X168353203Y-76782197D01*
X168581395Y-76969469D01*
X168841737Y-77108625D01*
X169124224Y-77194316D01*
X169418000Y-77223251D01*
X169711777Y-77194316D01*
X169994264Y-77108625D01*
X170254606Y-76969469D01*
X170482797Y-76782197D01*
X170670069Y-76554006D01*
X170688000Y-76520459D01*
X170705931Y-76554006D01*
X170893203Y-76782197D01*
X171121395Y-76969469D01*
X171381737Y-77108625D01*
X171664224Y-77194316D01*
X171958000Y-77223251D01*
X172251777Y-77194316D01*
X172534264Y-77108625D01*
X172794606Y-76969469D01*
X173022797Y-76782197D01*
X173210069Y-76554006D01*
X173228000Y-76520459D01*
X173245931Y-76554006D01*
X173433203Y-76782197D01*
X173661395Y-76969469D01*
X173921737Y-77108625D01*
X174204224Y-77194316D01*
X174498000Y-77223251D01*
X174791777Y-77194316D01*
X175074264Y-77108625D01*
X175334606Y-76969469D01*
X175562797Y-76782197D01*
X175750069Y-76554006D01*
X175889225Y-76293663D01*
X175974916Y-76011176D01*
X175996600Y-75791018D01*
X175996600Y-75338981D01*
X175974916Y-75118823D01*
X175889225Y-74836336D01*
X175750069Y-74575994D01*
X175562797Y-74347803D01*
X175334605Y-74160531D01*
X175074263Y-74021375D01*
X174791776Y-73935684D01*
X174498000Y-73906749D01*
X174204223Y-73935684D01*
X173921736Y-74021375D01*
X173661394Y-74160531D01*
X173433203Y-74347803D01*
X173245931Y-74575995D01*
X173228000Y-74609541D01*
X173210069Y-74575994D01*
X173022797Y-74347803D01*
X172794605Y-74160531D01*
X172534263Y-74021375D01*
X172251776Y-73935684D01*
X171958000Y-73906749D01*
X171664223Y-73935684D01*
X171381736Y-74021375D01*
X171121394Y-74160531D01*
X170893203Y-74347803D01*
X170705931Y-74575995D01*
X170688000Y-74609541D01*
X170670069Y-74575994D01*
X170482797Y-74347803D01*
X170254605Y-74160531D01*
X169994263Y-74021375D01*
X169711776Y-73935684D01*
X169418000Y-73906749D01*
X169124223Y-73935684D01*
X168841736Y-74021375D01*
X168581394Y-74160531D01*
X168353203Y-74347803D01*
X168165931Y-74575995D01*
X168148000Y-74609541D01*
X168130069Y-74575994D01*
X167942797Y-74347803D01*
X167714605Y-74160531D01*
X167454263Y-74021375D01*
X167171776Y-73935684D01*
X166878000Y-73906749D01*
X166584223Y-73935684D01*
X166301736Y-74021375D01*
X166041394Y-74160531D01*
X165813203Y-74347803D01*
X165625931Y-74575995D01*
X165608000Y-74609541D01*
X165590069Y-74575994D01*
X165402797Y-74347803D01*
X165174605Y-74160531D01*
X164914263Y-74021375D01*
X164631776Y-73935684D01*
X164338000Y-73906749D01*
X164044223Y-73935684D01*
X163761736Y-74021375D01*
X163501394Y-74160531D01*
X163273203Y-74347803D01*
X163085931Y-74575995D01*
X163068000Y-74609541D01*
X163050069Y-74575994D01*
X162862797Y-74347803D01*
X162634605Y-74160531D01*
X162374263Y-74021375D01*
X162091776Y-73935684D01*
X161798000Y-73906749D01*
X161504223Y-73935684D01*
X161221736Y-74021375D01*
X160961394Y-74160531D01*
X160733203Y-74347803D01*
X160545931Y-74575995D01*
X160528000Y-74609541D01*
X160510069Y-74575994D01*
X160322797Y-74347803D01*
X160094605Y-74160531D01*
X159834263Y-74021375D01*
X159551776Y-73935684D01*
X159258000Y-73906749D01*
X158964223Y-73935684D01*
X158681736Y-74021375D01*
X158421394Y-74160531D01*
X158193203Y-74347803D01*
X158005931Y-74575995D01*
X157988000Y-74609541D01*
X157970069Y-74575994D01*
X157782797Y-74347803D01*
X157554605Y-74160531D01*
X157294263Y-74021375D01*
X157011776Y-73935684D01*
X156718000Y-73906749D01*
X156424223Y-73935684D01*
X156141736Y-74021375D01*
X155881394Y-74160531D01*
X155653203Y-74347803D01*
X155465931Y-74575995D01*
X155326775Y-74836337D01*
X155241084Y-75118824D01*
X155219400Y-75338982D01*
X154152600Y-75338982D01*
X154152600Y-75338981D01*
X154130916Y-75118823D01*
X154045225Y-74836336D01*
X153906069Y-74575994D01*
X153718797Y-74347803D01*
X153490605Y-74160531D01*
X153230263Y-74021375D01*
X152947776Y-73935684D01*
X152654000Y-73906749D01*
X152360223Y-73935684D01*
X152077736Y-74021375D01*
X151817394Y-74160531D01*
X151589203Y-74347803D01*
X151401931Y-74575995D01*
X151384000Y-74609541D01*
X151366069Y-74575994D01*
X151178797Y-74347803D01*
X150950605Y-74160531D01*
X150690263Y-74021375D01*
X150407776Y-73935684D01*
X150114000Y-73906749D01*
X149820223Y-73935684D01*
X149537736Y-74021375D01*
X149277394Y-74160531D01*
X149049203Y-74347803D01*
X148861931Y-74575995D01*
X148844000Y-74609541D01*
X148826069Y-74575994D01*
X148638797Y-74347803D01*
X148410605Y-74160531D01*
X148150263Y-74021375D01*
X147867776Y-73935684D01*
X147574000Y-73906749D01*
X147280223Y-73935684D01*
X146997736Y-74021375D01*
X146737394Y-74160531D01*
X146509203Y-74347803D01*
X146321931Y-74575995D01*
X146304000Y-74609541D01*
X146286069Y-74575994D01*
X146098797Y-74347803D01*
X145870605Y-74160531D01*
X145610263Y-74021375D01*
X145327776Y-73935684D01*
X145034000Y-73906749D01*
X144740223Y-73935684D01*
X144457736Y-74021375D01*
X144197394Y-74160531D01*
X143969203Y-74347803D01*
X143781931Y-74575995D01*
X143764000Y-74609541D01*
X143746069Y-74575994D01*
X143558797Y-74347803D01*
X143330605Y-74160531D01*
X143070263Y-74021375D01*
X142787776Y-73935684D01*
X142494000Y-73906749D01*
X142200223Y-73935684D01*
X141917736Y-74021375D01*
X141657394Y-74160531D01*
X141429203Y-74347803D01*
X141241931Y-74575995D01*
X141224000Y-74609541D01*
X141206069Y-74575994D01*
X141018797Y-74347803D01*
X140790605Y-74160531D01*
X140530263Y-74021375D01*
X140247776Y-73935684D01*
X139954000Y-73906749D01*
X139660223Y-73935684D01*
X139377736Y-74021375D01*
X139117394Y-74160531D01*
X138889203Y-74347803D01*
X138701931Y-74575995D01*
X138680576Y-74615947D01*
X138532486Y-74413271D01*
X138316035Y-74214267D01*
X138064919Y-74061314D01*
X137788789Y-73960291D01*
X137773026Y-73957642D01*
X137541000Y-74078783D01*
X137287000Y-74078783D01*
X137054974Y-73957642D01*
X137039211Y-73960291D01*
X136763081Y-74061314D01*
X136511965Y-74214267D01*
X136295514Y-74413271D01*
X136147424Y-74615947D01*
X136126069Y-74575994D01*
X135938797Y-74347803D01*
X135710605Y-74160531D01*
X135450263Y-74021375D01*
X135167776Y-73935684D01*
X134874000Y-73906749D01*
X134580223Y-73935684D01*
X134297736Y-74021375D01*
X134037394Y-74160531D01*
X133809203Y-74347803D01*
X133621931Y-74575995D01*
X133604000Y-74609541D01*
X133586069Y-74575994D01*
X133398797Y-74347803D01*
X133170605Y-74160531D01*
X132910263Y-74021375D01*
X132627776Y-73935684D01*
X132334000Y-73906749D01*
X132040223Y-73935684D01*
X131757736Y-74021375D01*
X131497394Y-74160531D01*
X131269203Y-74347803D01*
X131081931Y-74575995D01*
X131064000Y-74609541D01*
X131046069Y-74575994D01*
X130858797Y-74347803D01*
X130630605Y-74160531D01*
X130370263Y-74021375D01*
X130087776Y-73935684D01*
X129794000Y-73906749D01*
X129500223Y-73935684D01*
X129217736Y-74021375D01*
X128957394Y-74160531D01*
X128729203Y-74347803D01*
X128657001Y-74435781D01*
X128601464Y-74301702D01*
X128309594Y-73864887D01*
X128231707Y-73787000D01*
X175080394Y-73787000D01*
X176276000Y-74982606D01*
X176276000Y-86360000D01*
X176278440Y-86384776D01*
X176285667Y-86408601D01*
X176297403Y-86430557D01*
X176313197Y-86449803D01*
X178312244Y-88448850D01*
X178301298Y-88441536D01*
X177815935Y-88240492D01*
X177300677Y-88138000D01*
X176775323Y-88138000D01*
X176260065Y-88240492D01*
X175774702Y-88441536D01*
X175337887Y-88733406D01*
X174966406Y-89104887D01*
X174674536Y-89541702D01*
X174473492Y-90027065D01*
X174371000Y-90542323D01*
X174371000Y-91067677D01*
X174473492Y-91582935D01*
X174674536Y-92068298D01*
X174966406Y-92505113D01*
X175337887Y-92876594D01*
X175774702Y-93168464D01*
X176260065Y-93369508D01*
X176358249Y-93389038D01*
X176147465Y-93529880D01*
X175952880Y-93724465D01*
X175799995Y-93953273D01*
X175768000Y-94030515D01*
X175736005Y-93953273D01*
X175583120Y-93724465D01*
X175388535Y-93529880D01*
X175159727Y-93376995D01*
X174905490Y-93271686D01*
X174635592Y-93218000D01*
X174360408Y-93218000D01*
X174090510Y-93271686D01*
X173836273Y-93376995D01*
X173607465Y-93529880D01*
X173412880Y-93724465D01*
X173259995Y-93953273D01*
X173228000Y-94030515D01*
X173196005Y-93953273D01*
X173043120Y-93724465D01*
X172848535Y-93529880D01*
X172619727Y-93376995D01*
X172365490Y-93271686D01*
X172095592Y-93218000D01*
X171820408Y-93218000D01*
X171550510Y-93271686D01*
X171296273Y-93376995D01*
X171067465Y-93529880D01*
X170872880Y-93724465D01*
X170719995Y-93953273D01*
X170688000Y-94030515D01*
X170656005Y-93953273D01*
X170503120Y-93724465D01*
X170308535Y-93529880D01*
X170079727Y-93376995D01*
X169825490Y-93271686D01*
X169555592Y-93218000D01*
X169280408Y-93218000D01*
X169010510Y-93271686D01*
X168756273Y-93376995D01*
X168527465Y-93529880D01*
X168332880Y-93724465D01*
X168179995Y-93953273D01*
X168148000Y-94030515D01*
X168116005Y-93953273D01*
X167963120Y-93724465D01*
X167768535Y-93529880D01*
X167539727Y-93376995D01*
X167285490Y-93271686D01*
X167015592Y-93218000D01*
X166740408Y-93218000D01*
X166470510Y-93271686D01*
X166216273Y-93376995D01*
X165987465Y-93529880D01*
X165792880Y-93724465D01*
X165639995Y-93953273D01*
X165608000Y-94030515D01*
X165576005Y-93953273D01*
X165423120Y-93724465D01*
X165228535Y-93529880D01*
X164999727Y-93376995D01*
X164745490Y-93271686D01*
X164475592Y-93218000D01*
X164200408Y-93218000D01*
X163930510Y-93271686D01*
X163676273Y-93376995D01*
X163447465Y-93529880D01*
X163252880Y-93724465D01*
X163099995Y-93953273D01*
X163068000Y-94030515D01*
X163036005Y-93953273D01*
X162883120Y-93724465D01*
X162688535Y-93529880D01*
X162459727Y-93376995D01*
X162205490Y-93271686D01*
X161935592Y-93218000D01*
X161660408Y-93218000D01*
X161390510Y-93271686D01*
X161288000Y-93314147D01*
X161288000Y-86270535D01*
X161356586Y-86167889D01*
X161427068Y-85997729D01*
X161463000Y-85817089D01*
X161463000Y-85632911D01*
X161427068Y-85452271D01*
X161356586Y-85282111D01*
X161254262Y-85128972D01*
X161124028Y-84998738D01*
X160970889Y-84896414D01*
X160800729Y-84825932D01*
X160620089Y-84790000D01*
X160435911Y-84790000D01*
X160255271Y-84825932D01*
X160085111Y-84896414D01*
X159931972Y-84998738D01*
X159801738Y-85128972D01*
X159699414Y-85282111D01*
X159628932Y-85452271D01*
X159593000Y-85632911D01*
X159593000Y-85817089D01*
X159628932Y-85997729D01*
X159699414Y-86167889D01*
X159768001Y-86270537D01*
X159768000Y-93314147D01*
X159665490Y-93271686D01*
X159395592Y-93218000D01*
X159120408Y-93218000D01*
X158850510Y-93271686D01*
X158748000Y-93314147D01*
X158748000Y-86270535D01*
X158816586Y-86167889D01*
X158887068Y-85997729D01*
X158923000Y-85817089D01*
X158923000Y-85632911D01*
X158887068Y-85452271D01*
X158816586Y-85282111D01*
X158714262Y-85128972D01*
X158584028Y-84998738D01*
X158430889Y-84896414D01*
X158260729Y-84825932D01*
X158080089Y-84790000D01*
X157895911Y-84790000D01*
X157715271Y-84825932D01*
X157545111Y-84896414D01*
X157391972Y-84998738D01*
X157261738Y-85128972D01*
X157159414Y-85282111D01*
X157088932Y-85452271D01*
X157053000Y-85632911D01*
X157053000Y-85817089D01*
X157088932Y-85997729D01*
X157159414Y-86167889D01*
X157228001Y-86270537D01*
X157228000Y-93314147D01*
X157125490Y-93271686D01*
X156855592Y-93218000D01*
X156580408Y-93218000D01*
X156310510Y-93271686D01*
X156208000Y-93314147D01*
X156208000Y-86270535D01*
X156276586Y-86167889D01*
X156347068Y-85997729D01*
X156383000Y-85817089D01*
X156383000Y-85632911D01*
X156347068Y-85452271D01*
X156276586Y-85282111D01*
X156174262Y-85128972D01*
X156044028Y-84998738D01*
X155890889Y-84896414D01*
X155720729Y-84825932D01*
X155540089Y-84790000D01*
X155355911Y-84790000D01*
X155175271Y-84825932D01*
X155005111Y-84896414D01*
X154851972Y-84998738D01*
X154721738Y-85128972D01*
X154619414Y-85282111D01*
X154548932Y-85452271D01*
X154513000Y-85632911D01*
X154513000Y-85817089D01*
X154548932Y-85997729D01*
X154619414Y-86167889D01*
X154688001Y-86270537D01*
X154688001Y-93314147D01*
X154585490Y-93271686D01*
X154315592Y-93218000D01*
X154040408Y-93218000D01*
X153770510Y-93271686D01*
X153668000Y-93314147D01*
X153668000Y-86270535D01*
X153736586Y-86167889D01*
X153807068Y-85997729D01*
X153843000Y-85817089D01*
X153843000Y-85632911D01*
X153807068Y-85452271D01*
X153736586Y-85282111D01*
X153634262Y-85128972D01*
X153504028Y-84998738D01*
X153350889Y-84896414D01*
X153180729Y-84825932D01*
X153000089Y-84790000D01*
X152815911Y-84790000D01*
X152635271Y-84825932D01*
X152465111Y-84896414D01*
X152311972Y-84998738D01*
X152181738Y-85128972D01*
X152079414Y-85282111D01*
X152008932Y-85452271D01*
X151973000Y-85632911D01*
X151973000Y-85817089D01*
X152008932Y-85997729D01*
X152079414Y-86167889D01*
X152148001Y-86270537D01*
X152148001Y-93314147D01*
X152045490Y-93271686D01*
X151775592Y-93218000D01*
X151500408Y-93218000D01*
X151230510Y-93271686D01*
X150976273Y-93376995D01*
X150747465Y-93529880D01*
X150552880Y-93724465D01*
X150399995Y-93953273D01*
X150368000Y-94030515D01*
X150336005Y-93953273D01*
X150183120Y-93724465D01*
X149988535Y-93529880D01*
X149759727Y-93376995D01*
X149505490Y-93271686D01*
X149235592Y-93218000D01*
X148960408Y-93218000D01*
X148690510Y-93271686D01*
X148436273Y-93376995D01*
X148207465Y-93529880D01*
X148012880Y-93724465D01*
X147859995Y-93953273D01*
X147828000Y-94030515D01*
X147796005Y-93953273D01*
X147643120Y-93724465D01*
X147448535Y-93529880D01*
X147219727Y-93376995D01*
X146965490Y-93271686D01*
X146695592Y-93218000D01*
X146420408Y-93218000D01*
X146150510Y-93271686D01*
X145896273Y-93376995D01*
X145667465Y-93529880D01*
X145472880Y-93724465D01*
X145319995Y-93953273D01*
X145288000Y-94030515D01*
X145256005Y-93953273D01*
X145103120Y-93724465D01*
X144908535Y-93529880D01*
X144679727Y-93376995D01*
X144425490Y-93271686D01*
X144155592Y-93218000D01*
X143880408Y-93218000D01*
X143610510Y-93271686D01*
X143356273Y-93376995D01*
X143127465Y-93529880D01*
X142932880Y-93724465D01*
X142779995Y-93953273D01*
X142674686Y-94207510D01*
X142621000Y-94477408D01*
X142621000Y-94752592D01*
X142674686Y-95022490D01*
X142779995Y-95276727D01*
X142932880Y-95505535D01*
X143127465Y-95700120D01*
X143258001Y-95787341D01*
X143258000Y-96206580D01*
X143161377Y-96285877D01*
X143052488Y-96418558D01*
X142971577Y-96569933D01*
X142921752Y-96734184D01*
X142904928Y-96905000D01*
X142904928Y-97405000D01*
X142921752Y-97575816D01*
X142971577Y-97740067D01*
X143052488Y-97891442D01*
X143141812Y-98000283D01*
X143091815Y-98041315D01*
X143012463Y-98138006D01*
X142953498Y-98248320D01*
X142917188Y-98368018D01*
X142904928Y-98492500D01*
X142908000Y-98694250D01*
X143066750Y-98853000D01*
X143891000Y-98853000D01*
X143891000Y-98833000D01*
X144145000Y-98833000D01*
X144145000Y-98853000D01*
X144969250Y-98853000D01*
X145128000Y-98694250D01*
X145131072Y-98492500D01*
X145118812Y-98368018D01*
X145082502Y-98248320D01*
X145023537Y-98138006D01*
X144944185Y-98041315D01*
X144894188Y-98000283D01*
X144983512Y-97891442D01*
X145064423Y-97740067D01*
X145114248Y-97575816D01*
X145131072Y-97405000D01*
X145131072Y-96905000D01*
X145114248Y-96734184D01*
X145064423Y-96569933D01*
X144983512Y-96418558D01*
X144874623Y-96285877D01*
X144778000Y-96206580D01*
X144778000Y-95787341D01*
X144908535Y-95700120D01*
X145103120Y-95505535D01*
X145256005Y-95276727D01*
X145288000Y-95199485D01*
X145319995Y-95276727D01*
X145472880Y-95505535D01*
X145667465Y-95700120D01*
X145896273Y-95853005D01*
X146150510Y-95958314D01*
X146420408Y-96012000D01*
X146695592Y-96012000D01*
X146965490Y-95958314D01*
X147219727Y-95853005D01*
X147448535Y-95700120D01*
X147643120Y-95505535D01*
X147796005Y-95276727D01*
X147828000Y-95199485D01*
X147859995Y-95276727D01*
X148012880Y-95505535D01*
X148207465Y-95700120D01*
X148338001Y-95787341D01*
X148338000Y-96206580D01*
X148241377Y-96285877D01*
X148132488Y-96418558D01*
X148051577Y-96569933D01*
X148001752Y-96734184D01*
X147984928Y-96905000D01*
X147984928Y-97405000D01*
X148001752Y-97575816D01*
X148051577Y-97740067D01*
X148132488Y-97891442D01*
X148221812Y-98000283D01*
X148171815Y-98041315D01*
X148092463Y-98138006D01*
X148033498Y-98248320D01*
X147997188Y-98368018D01*
X147984928Y-98492500D01*
X147988000Y-98694250D01*
X148146750Y-98853000D01*
X148971000Y-98853000D01*
X148971000Y-98833000D01*
X149225000Y-98833000D01*
X149225000Y-98853000D01*
X150049250Y-98853000D01*
X150208000Y-98694250D01*
X150211072Y-98492500D01*
X150198812Y-98368018D01*
X150162502Y-98248320D01*
X150103537Y-98138006D01*
X150024185Y-98041315D01*
X149974188Y-98000283D01*
X150063512Y-97891442D01*
X150144423Y-97740067D01*
X150194248Y-97575816D01*
X150211072Y-97405000D01*
X150211072Y-96905000D01*
X150194248Y-96734184D01*
X150144423Y-96569933D01*
X150063512Y-96418558D01*
X149954623Y-96285877D01*
X149858000Y-96206580D01*
X149858000Y-95787341D01*
X149988535Y-95700120D01*
X150183120Y-95505535D01*
X150336005Y-95276727D01*
X150368000Y-95199485D01*
X150399995Y-95276727D01*
X150552880Y-95505535D01*
X150747465Y-95700120D01*
X150878001Y-95787341D01*
X150878000Y-96206580D01*
X150781377Y-96285877D01*
X150672488Y-96418558D01*
X150591577Y-96569933D01*
X150541752Y-96734184D01*
X150524928Y-96905000D01*
X150524928Y-97405000D01*
X150541752Y-97575816D01*
X150591577Y-97740067D01*
X150672488Y-97891442D01*
X150761812Y-98000283D01*
X150711815Y-98041315D01*
X150632463Y-98138006D01*
X150573498Y-98248320D01*
X150537188Y-98368018D01*
X150524928Y-98492500D01*
X150528000Y-98694250D01*
X150686750Y-98853000D01*
X151511000Y-98853000D01*
X151511000Y-98833000D01*
X151765000Y-98833000D01*
X151765000Y-98853000D01*
X151785000Y-98853000D01*
X151785000Y-99107000D01*
X151765000Y-99107000D01*
X151765000Y-99943750D01*
X151923750Y-100102500D01*
X152113000Y-100105572D01*
X152148000Y-100102125D01*
X152148000Y-101437678D01*
X152144324Y-101475000D01*
X152148000Y-101512322D01*
X152148000Y-101512332D01*
X152158997Y-101623985D01*
X152191806Y-101732143D01*
X152202454Y-101767246D01*
X152273026Y-101899276D01*
X152300500Y-101932753D01*
X152367999Y-102015001D01*
X152397003Y-102038804D01*
X153384847Y-103026649D01*
X153408932Y-103147729D01*
X153479414Y-103317889D01*
X153581738Y-103471028D01*
X153711972Y-103601262D01*
X153865111Y-103703586D01*
X154035271Y-103774068D01*
X154215911Y-103810000D01*
X154400089Y-103810000D01*
X154580729Y-103774068D01*
X154750889Y-103703586D01*
X154904028Y-103601262D01*
X155034262Y-103471028D01*
X155136586Y-103317889D01*
X155207068Y-103147729D01*
X155243000Y-102967089D01*
X155243000Y-102782911D01*
X155207068Y-102602271D01*
X155136586Y-102432111D01*
X155034262Y-102278972D01*
X154904028Y-102148738D01*
X154750889Y-102046414D01*
X154580729Y-101975932D01*
X154459649Y-101951847D01*
X153668000Y-101160199D01*
X153668000Y-100102125D01*
X153703000Y-100105572D01*
X153892250Y-100102500D01*
X154051000Y-99943750D01*
X154051000Y-99107000D01*
X154031000Y-99107000D01*
X154031000Y-98853000D01*
X154051000Y-98853000D01*
X154051000Y-98833000D01*
X154305000Y-98833000D01*
X154305000Y-98853000D01*
X154325000Y-98853000D01*
X154325000Y-99107000D01*
X154305000Y-99107000D01*
X154305000Y-99943750D01*
X154463750Y-100102500D01*
X154653000Y-100105572D01*
X154688000Y-100102125D01*
X154688000Y-101525571D01*
X154684708Y-101550769D01*
X154688000Y-101600245D01*
X154688000Y-101612332D01*
X154690479Y-101637498D01*
X154694647Y-101700145D01*
X154697805Y-101711885D01*
X154698997Y-101723985D01*
X154717227Y-101784082D01*
X154733537Y-101844712D01*
X154738924Y-101855608D01*
X154742454Y-101867246D01*
X154772064Y-101922641D01*
X154799884Y-101978914D01*
X154807294Y-101988551D01*
X154813026Y-101999275D01*
X154852865Y-102047819D01*
X154868271Y-102067856D01*
X154876537Y-102076664D01*
X154907999Y-102115001D01*
X154927647Y-102131126D01*
X155486544Y-102726674D01*
X155517999Y-102765001D01*
X155566532Y-102804831D01*
X155613789Y-102846191D01*
X155624324Y-102852259D01*
X155633724Y-102859974D01*
X155689112Y-102889580D01*
X155743513Y-102920917D01*
X155755027Y-102924813D01*
X155765753Y-102930546D01*
X155825857Y-102948778D01*
X155885322Y-102968898D01*
X155897376Y-102970473D01*
X155909014Y-102974003D01*
X155971535Y-102980161D01*
X156033768Y-102988291D01*
X156083229Y-102985000D01*
X156362465Y-102985000D01*
X156465111Y-103053586D01*
X156635271Y-103124068D01*
X156815911Y-103160000D01*
X157000089Y-103160000D01*
X157180729Y-103124068D01*
X157350889Y-103053586D01*
X157504028Y-102951262D01*
X157634262Y-102821028D01*
X157736586Y-102667889D01*
X157807068Y-102497729D01*
X157843000Y-102317089D01*
X157843000Y-102132911D01*
X157807068Y-101952271D01*
X157736586Y-101782111D01*
X157634262Y-101628972D01*
X157504028Y-101498738D01*
X157350889Y-101396414D01*
X157180729Y-101325932D01*
X157000089Y-101290000D01*
X156815911Y-101290000D01*
X156635271Y-101325932D01*
X156465111Y-101396414D01*
X156377560Y-101454914D01*
X156208000Y-101274236D01*
X156208000Y-100102125D01*
X156243000Y-100105572D01*
X156432250Y-100102500D01*
X156591000Y-99943750D01*
X156591000Y-99107000D01*
X156571000Y-99107000D01*
X156571000Y-98853000D01*
X156591000Y-98853000D01*
X156591000Y-98833000D01*
X156845000Y-98833000D01*
X156845000Y-98853000D01*
X156865000Y-98853000D01*
X156865000Y-99107000D01*
X156845000Y-99107000D01*
X156845000Y-99943750D01*
X157003750Y-100102500D01*
X157193000Y-100105572D01*
X157228000Y-100102125D01*
X157228000Y-100392676D01*
X157224324Y-100429998D01*
X157228000Y-100467320D01*
X157228000Y-100467330D01*
X157238997Y-100578983D01*
X157265090Y-100665000D01*
X157282454Y-100722244D01*
X157353026Y-100854274D01*
X157392871Y-100902824D01*
X157447999Y-100969999D01*
X157477003Y-100993802D01*
X158773901Y-102290701D01*
X158679415Y-102432110D01*
X158608933Y-102602270D01*
X158573001Y-102782910D01*
X158573001Y-102967088D01*
X158608933Y-103147728D01*
X158679415Y-103317888D01*
X158781739Y-103471027D01*
X158911973Y-103601261D01*
X159065112Y-103703585D01*
X159235272Y-103774067D01*
X159415912Y-103809999D01*
X159600090Y-103809999D01*
X159780730Y-103774067D01*
X159950890Y-103703585D01*
X160104029Y-103601261D01*
X160234263Y-103471027D01*
X160336587Y-103317888D01*
X160407069Y-103147728D01*
X160443001Y-102967088D01*
X160443001Y-102782910D01*
X160407069Y-102602270D01*
X160336587Y-102432110D01*
X160297550Y-102373686D01*
X160315383Y-102058181D01*
X160321164Y-101999485D01*
X160315931Y-101946359D01*
X160313705Y-101893007D01*
X160308608Y-101872001D01*
X160306490Y-101850499D01*
X160290994Y-101799413D01*
X160278402Y-101747522D01*
X160269308Y-101727922D01*
X160263034Y-101707239D01*
X160237858Y-101660139D01*
X160215393Y-101611721D01*
X160202651Y-101594273D01*
X160192461Y-101575209D01*
X160158579Y-101533923D01*
X160127102Y-101490821D01*
X160083706Y-101450902D01*
X158748000Y-100115197D01*
X158748000Y-100102125D01*
X158783000Y-100105572D01*
X158972250Y-100102500D01*
X159131000Y-99943750D01*
X159131000Y-99107000D01*
X159385000Y-99107000D01*
X159385000Y-99943750D01*
X159543750Y-100102500D01*
X159733000Y-100105572D01*
X159857482Y-100093312D01*
X159977180Y-100057002D01*
X160087494Y-99998037D01*
X160184185Y-99918685D01*
X160263537Y-99821994D01*
X160322502Y-99711680D01*
X160358812Y-99591982D01*
X160371072Y-99467500D01*
X160684928Y-99467500D01*
X160697188Y-99591982D01*
X160733498Y-99711680D01*
X160792463Y-99821994D01*
X160871815Y-99918685D01*
X160968506Y-99998037D01*
X161078820Y-100057002D01*
X161198518Y-100093312D01*
X161323000Y-100105572D01*
X161512250Y-100102500D01*
X161671000Y-99943750D01*
X161671000Y-99107000D01*
X161925000Y-99107000D01*
X161925000Y-99943750D01*
X162083750Y-100102500D01*
X162273000Y-100105572D01*
X162397482Y-100093312D01*
X162517180Y-100057002D01*
X162627494Y-99998037D01*
X162724185Y-99918685D01*
X162803537Y-99821994D01*
X162862502Y-99711680D01*
X162898812Y-99591982D01*
X162911072Y-99467500D01*
X162908000Y-99265750D01*
X162749250Y-99107000D01*
X161925000Y-99107000D01*
X161671000Y-99107000D01*
X160846750Y-99107000D01*
X160688000Y-99265750D01*
X160684928Y-99467500D01*
X160371072Y-99467500D01*
X160368000Y-99265750D01*
X160209250Y-99107000D01*
X159385000Y-99107000D01*
X159131000Y-99107000D01*
X159111000Y-99107000D01*
X159111000Y-98853000D01*
X159131000Y-98853000D01*
X159131000Y-98833000D01*
X159385000Y-98833000D01*
X159385000Y-98853000D01*
X160209250Y-98853000D01*
X160368000Y-98694250D01*
X160371072Y-98492500D01*
X160358812Y-98368018D01*
X160322502Y-98248320D01*
X160263537Y-98138006D01*
X160184185Y-98041315D01*
X160143120Y-98007614D01*
X160255271Y-98054068D01*
X160435911Y-98090000D01*
X160620089Y-98090000D01*
X160800729Y-98054068D01*
X160912880Y-98007614D01*
X160871815Y-98041315D01*
X160792463Y-98138006D01*
X160733498Y-98248320D01*
X160697188Y-98368018D01*
X160684928Y-98492500D01*
X160688000Y-98694250D01*
X160846750Y-98853000D01*
X161671000Y-98853000D01*
X161671000Y-98833000D01*
X161925000Y-98833000D01*
X161925000Y-98853000D01*
X162749250Y-98853000D01*
X162908000Y-98694250D01*
X162911072Y-98492500D01*
X162898812Y-98368018D01*
X162862502Y-98248320D01*
X162803537Y-98138006D01*
X162724185Y-98041315D01*
X162674188Y-98000283D01*
X162763512Y-97891442D01*
X162844423Y-97740067D01*
X162894248Y-97575816D01*
X162911072Y-97405000D01*
X162911072Y-96905000D01*
X162894248Y-96734184D01*
X162844423Y-96569933D01*
X162763512Y-96418558D01*
X162654623Y-96285877D01*
X162558000Y-96206580D01*
X162558000Y-95787341D01*
X162688535Y-95700120D01*
X162883120Y-95505535D01*
X163036005Y-95276727D01*
X163068000Y-95199485D01*
X163099995Y-95276727D01*
X163252880Y-95505535D01*
X163447465Y-95700120D01*
X163676273Y-95853005D01*
X163930510Y-95958314D01*
X164200408Y-96012000D01*
X164475592Y-96012000D01*
X164745490Y-95958314D01*
X164999727Y-95853005D01*
X165228535Y-95700120D01*
X165423120Y-95505535D01*
X165576005Y-95276727D01*
X165608000Y-95199485D01*
X165639995Y-95276727D01*
X165792880Y-95505535D01*
X165987465Y-95700120D01*
X166216273Y-95853005D01*
X166470510Y-95958314D01*
X166740408Y-96012000D01*
X167015592Y-96012000D01*
X167285490Y-95958314D01*
X167539727Y-95853005D01*
X167768535Y-95700120D01*
X167963120Y-95505535D01*
X168116005Y-95276727D01*
X168148000Y-95199485D01*
X168179995Y-95276727D01*
X168332880Y-95505535D01*
X168527465Y-95700120D01*
X168756273Y-95853005D01*
X169010510Y-95958314D01*
X169280408Y-96012000D01*
X169555592Y-96012000D01*
X169825490Y-95958314D01*
X170079727Y-95853005D01*
X170308535Y-95700120D01*
X170503120Y-95505535D01*
X170656005Y-95276727D01*
X170688000Y-95199485D01*
X170719995Y-95276727D01*
X170872880Y-95505535D01*
X171067465Y-95700120D01*
X171296273Y-95853005D01*
X171550510Y-95958314D01*
X171820408Y-96012000D01*
X172095592Y-96012000D01*
X172365490Y-95958314D01*
X172619727Y-95853005D01*
X172848535Y-95700120D01*
X173043120Y-95505535D01*
X173196005Y-95276727D01*
X173228000Y-95199485D01*
X173259995Y-95276727D01*
X173412880Y-95505535D01*
X173607465Y-95700120D01*
X173836273Y-95853005D01*
X174090510Y-95958314D01*
X174360408Y-96012000D01*
X174635592Y-96012000D01*
X174905490Y-95958314D01*
X175159727Y-95853005D01*
X175388535Y-95700120D01*
X175583120Y-95505535D01*
X175736005Y-95276727D01*
X175768000Y-95199485D01*
X175799995Y-95276727D01*
X175952880Y-95505535D01*
X176147465Y-95700120D01*
X176376273Y-95853005D01*
X176630510Y-95958314D01*
X176900408Y-96012000D01*
X177175592Y-96012000D01*
X177445490Y-95958314D01*
X177699727Y-95853005D01*
X177928535Y-95700120D01*
X178123120Y-95505535D01*
X178276005Y-95276727D01*
X178381314Y-95022490D01*
X178435000Y-94752592D01*
X178435000Y-94477408D01*
X178381314Y-94207510D01*
X178276005Y-93953273D01*
X178123120Y-93724465D01*
X177928535Y-93529880D01*
X177717751Y-93389038D01*
X177815935Y-93369508D01*
X178301298Y-93168464D01*
X178738113Y-92876594D01*
X178816000Y-92798707D01*
X178816000Y-116751293D01*
X178738113Y-116673406D01*
X178301298Y-116381536D01*
X177815935Y-116180492D01*
X177300677Y-116078000D01*
X176775323Y-116078000D01*
X176260065Y-116180492D01*
X175774702Y-116381536D01*
X175337887Y-116673406D01*
X174966406Y-117044887D01*
X174674536Y-117481702D01*
X174473492Y-117967065D01*
X174371000Y-118482323D01*
X174371000Y-119007677D01*
X174473492Y-119522935D01*
X174674536Y-120008298D01*
X174966406Y-120445113D01*
X175337887Y-120816594D01*
X175774702Y-121108464D01*
X176260065Y-121309508D01*
X176775323Y-121412000D01*
X177300677Y-121412000D01*
X177815935Y-121309508D01*
X178301298Y-121108464D01*
X178738113Y-120816594D01*
X178816000Y-120738707D01*
X178816000Y-121042908D01*
X176560617Y-123298292D01*
X176533526Y-123320525D01*
X176511293Y-123347616D01*
X176444801Y-123428637D01*
X176378872Y-123551981D01*
X176338274Y-123685816D01*
X176335619Y-123712775D01*
X176313197Y-123735197D01*
X176297403Y-123754443D01*
X176285667Y-123776399D01*
X176278440Y-123800224D01*
X176276000Y-123825000D01*
X176276000Y-125603000D01*
X126961707Y-125603000D01*
X127039594Y-125525113D01*
X127331464Y-125088298D01*
X127532508Y-124602935D01*
X127635000Y-124087677D01*
X127635000Y-123598982D01*
X137439400Y-123598982D01*
X137439400Y-124051019D01*
X137461084Y-124271177D01*
X137546775Y-124553664D01*
X137685931Y-124814006D01*
X137873203Y-125042197D01*
X138101395Y-125229469D01*
X138361737Y-125368625D01*
X138644224Y-125454316D01*
X138938000Y-125483251D01*
X139231777Y-125454316D01*
X139514264Y-125368625D01*
X139774606Y-125229469D01*
X140002797Y-125042197D01*
X140190069Y-124814006D01*
X140208000Y-124780459D01*
X140225931Y-124814006D01*
X140413203Y-125042197D01*
X140641395Y-125229469D01*
X140901737Y-125368625D01*
X141184224Y-125454316D01*
X141478000Y-125483251D01*
X141771777Y-125454316D01*
X142054264Y-125368625D01*
X142314606Y-125229469D01*
X142542797Y-125042197D01*
X142730069Y-124814006D01*
X142748000Y-124780459D01*
X142765931Y-124814006D01*
X142953203Y-125042197D01*
X143181395Y-125229469D01*
X143441737Y-125368625D01*
X143724224Y-125454316D01*
X144018000Y-125483251D01*
X144311777Y-125454316D01*
X144594264Y-125368625D01*
X144854606Y-125229469D01*
X145082797Y-125042197D01*
X145270069Y-124814006D01*
X145288000Y-124780459D01*
X145305931Y-124814006D01*
X145493203Y-125042197D01*
X145721395Y-125229469D01*
X145981737Y-125368625D01*
X146264224Y-125454316D01*
X146558000Y-125483251D01*
X146851777Y-125454316D01*
X147134264Y-125368625D01*
X147394606Y-125229469D01*
X147622797Y-125042197D01*
X147810069Y-124814006D01*
X147828000Y-124780459D01*
X147845931Y-124814006D01*
X148033203Y-125042197D01*
X148261395Y-125229469D01*
X148521737Y-125368625D01*
X148804224Y-125454316D01*
X149098000Y-125483251D01*
X149391777Y-125454316D01*
X149674264Y-125368625D01*
X149934606Y-125229469D01*
X150162797Y-125042197D01*
X150350069Y-124814006D01*
X150371424Y-124774053D01*
X150519514Y-124976729D01*
X150735965Y-125175733D01*
X150987081Y-125328686D01*
X151263211Y-125429709D01*
X151278974Y-125432358D01*
X151511000Y-125311217D01*
X151511000Y-123952000D01*
X151765000Y-123952000D01*
X151765000Y-125311217D01*
X151997026Y-125432358D01*
X152012789Y-125429709D01*
X152288919Y-125328686D01*
X152540035Y-125175733D01*
X152756486Y-124976729D01*
X152908000Y-124769367D01*
X153059514Y-124976729D01*
X153275965Y-125175733D01*
X153527081Y-125328686D01*
X153803211Y-125429709D01*
X153818974Y-125432358D01*
X154051000Y-125311217D01*
X154051000Y-123952000D01*
X151765000Y-123952000D01*
X151511000Y-123952000D01*
X151491000Y-123952000D01*
X151491000Y-123698000D01*
X151511000Y-123698000D01*
X151511000Y-122338783D01*
X151765000Y-122338783D01*
X151765000Y-123698000D01*
X154051000Y-123698000D01*
X154051000Y-122338783D01*
X154305000Y-122338783D01*
X154305000Y-123698000D01*
X154325000Y-123698000D01*
X154325000Y-123952000D01*
X154305000Y-123952000D01*
X154305000Y-125311217D01*
X154537026Y-125432358D01*
X154552789Y-125429709D01*
X154828919Y-125328686D01*
X155080035Y-125175733D01*
X155296486Y-124976729D01*
X155444576Y-124774053D01*
X155465931Y-124814006D01*
X155653203Y-125042197D01*
X155881395Y-125229469D01*
X156141737Y-125368625D01*
X156424224Y-125454316D01*
X156718000Y-125483251D01*
X157011777Y-125454316D01*
X157294264Y-125368625D01*
X157554606Y-125229469D01*
X157782797Y-125042197D01*
X157970069Y-124814006D01*
X158109225Y-124553663D01*
X158194916Y-124271176D01*
X158216600Y-124051018D01*
X158216600Y-123598982D01*
X160299400Y-123598982D01*
X160299400Y-124051019D01*
X160321084Y-124271177D01*
X160406775Y-124553664D01*
X160545931Y-124814006D01*
X160733203Y-125042197D01*
X160961395Y-125229469D01*
X161221737Y-125368625D01*
X161504224Y-125454316D01*
X161798000Y-125483251D01*
X162091777Y-125454316D01*
X162374264Y-125368625D01*
X162634606Y-125229469D01*
X162862797Y-125042197D01*
X163050069Y-124814006D01*
X163068000Y-124780459D01*
X163085931Y-124814006D01*
X163273203Y-125042197D01*
X163501395Y-125229469D01*
X163761737Y-125368625D01*
X164044224Y-125454316D01*
X164338000Y-125483251D01*
X164631777Y-125454316D01*
X164914264Y-125368625D01*
X165174606Y-125229469D01*
X165402797Y-125042197D01*
X165590069Y-124814006D01*
X165608000Y-124780459D01*
X165625931Y-124814006D01*
X165813203Y-125042197D01*
X166041395Y-125229469D01*
X166301737Y-125368625D01*
X166584224Y-125454316D01*
X166878000Y-125483251D01*
X167171777Y-125454316D01*
X167454264Y-125368625D01*
X167714606Y-125229469D01*
X167942797Y-125042197D01*
X168130069Y-124814006D01*
X168148000Y-124780459D01*
X168165931Y-124814006D01*
X168353203Y-125042197D01*
X168581395Y-125229469D01*
X168841737Y-125368625D01*
X169124224Y-125454316D01*
X169418000Y-125483251D01*
X169711777Y-125454316D01*
X169994264Y-125368625D01*
X170254606Y-125229469D01*
X170482797Y-125042197D01*
X170670069Y-124814006D01*
X170688000Y-124780459D01*
X170705931Y-124814006D01*
X170893203Y-125042197D01*
X171121395Y-125229469D01*
X171381737Y-125368625D01*
X171664224Y-125454316D01*
X171958000Y-125483251D01*
X172251777Y-125454316D01*
X172534264Y-125368625D01*
X172794606Y-125229469D01*
X173022797Y-125042197D01*
X173210069Y-124814006D01*
X173228000Y-124780459D01*
X173245931Y-124814006D01*
X173433203Y-125042197D01*
X173661395Y-125229469D01*
X173921737Y-125368625D01*
X174204224Y-125454316D01*
X174498000Y-125483251D01*
X174791777Y-125454316D01*
X175074264Y-125368625D01*
X175334606Y-125229469D01*
X175562797Y-125042197D01*
X175750069Y-124814006D01*
X175889225Y-124553663D01*
X175974916Y-124271176D01*
X175996600Y-124051018D01*
X175996600Y-123598981D01*
X175974916Y-123378823D01*
X175889225Y-123096336D01*
X175750069Y-122835994D01*
X175562797Y-122607803D01*
X175334605Y-122420531D01*
X175074263Y-122281375D01*
X174791776Y-122195684D01*
X174498000Y-122166749D01*
X174204223Y-122195684D01*
X173921736Y-122281375D01*
X173661394Y-122420531D01*
X173433203Y-122607803D01*
X173245931Y-122835995D01*
X173228000Y-122869541D01*
X173210069Y-122835994D01*
X173022797Y-122607803D01*
X172794605Y-122420531D01*
X172534263Y-122281375D01*
X172251776Y-122195684D01*
X171958000Y-122166749D01*
X171664223Y-122195684D01*
X171381736Y-122281375D01*
X171121394Y-122420531D01*
X170893203Y-122607803D01*
X170705931Y-122835995D01*
X170688000Y-122869541D01*
X170670069Y-122835994D01*
X170482797Y-122607803D01*
X170254605Y-122420531D01*
X169994263Y-122281375D01*
X169711776Y-122195684D01*
X169418000Y-122166749D01*
X169124223Y-122195684D01*
X168841736Y-122281375D01*
X168581394Y-122420531D01*
X168353203Y-122607803D01*
X168165931Y-122835995D01*
X168148000Y-122869541D01*
X168130069Y-122835994D01*
X167942797Y-122607803D01*
X167714605Y-122420531D01*
X167454263Y-122281375D01*
X167171776Y-122195684D01*
X166878000Y-122166749D01*
X166584223Y-122195684D01*
X166301736Y-122281375D01*
X166041394Y-122420531D01*
X165813203Y-122607803D01*
X165625931Y-122835995D01*
X165608000Y-122869541D01*
X165590069Y-122835994D01*
X165402797Y-122607803D01*
X165174605Y-122420531D01*
X164914263Y-122281375D01*
X164631776Y-122195684D01*
X164338000Y-122166749D01*
X164044223Y-122195684D01*
X163761736Y-122281375D01*
X163501394Y-122420531D01*
X163273203Y-122607803D01*
X163085931Y-122835995D01*
X163068000Y-122869541D01*
X163050069Y-122835994D01*
X162862797Y-122607803D01*
X162634605Y-122420531D01*
X162374263Y-122281375D01*
X162091776Y-122195684D01*
X161798000Y-122166749D01*
X161504223Y-122195684D01*
X161221736Y-122281375D01*
X160961394Y-122420531D01*
X160733203Y-122607803D01*
X160545931Y-122835995D01*
X160406775Y-123096337D01*
X160321084Y-123378824D01*
X160299400Y-123598982D01*
X158216600Y-123598982D01*
X158216600Y-123598981D01*
X158194916Y-123378823D01*
X158109225Y-123096336D01*
X157970069Y-122835994D01*
X157782797Y-122607803D01*
X157554605Y-122420531D01*
X157294263Y-122281375D01*
X157011776Y-122195684D01*
X156718000Y-122166749D01*
X156424223Y-122195684D01*
X156141736Y-122281375D01*
X155881394Y-122420531D01*
X155653203Y-122607803D01*
X155465931Y-122835995D01*
X155444576Y-122875947D01*
X155296486Y-122673271D01*
X155080035Y-122474267D01*
X154828919Y-122321314D01*
X154552789Y-122220291D01*
X154537026Y-122217642D01*
X154305000Y-122338783D01*
X154051000Y-122338783D01*
X153818974Y-122217642D01*
X153803211Y-122220291D01*
X153527081Y-122321314D01*
X153275965Y-122474267D01*
X153059514Y-122673271D01*
X152908000Y-122880633D01*
X152756486Y-122673271D01*
X152540035Y-122474267D01*
X152288919Y-122321314D01*
X152012789Y-122220291D01*
X151997026Y-122217642D01*
X151765000Y-122338783D01*
X151511000Y-122338783D01*
X151278974Y-122217642D01*
X151263211Y-122220291D01*
X150987081Y-122321314D01*
X150735965Y-122474267D01*
X150519514Y-122673271D01*
X150371424Y-122875947D01*
X150350069Y-122835994D01*
X150162797Y-122607803D01*
X149934605Y-122420531D01*
X149674263Y-122281375D01*
X149391776Y-122195684D01*
X149098000Y-122166749D01*
X148804223Y-122195684D01*
X148521736Y-122281375D01*
X148261394Y-122420531D01*
X148033203Y-122607803D01*
X147845931Y-122835995D01*
X147828000Y-122869541D01*
X147810069Y-122835994D01*
X147622797Y-122607803D01*
X147394605Y-122420531D01*
X147134263Y-122281375D01*
X146851776Y-122195684D01*
X146558000Y-122166749D01*
X146264223Y-122195684D01*
X145981736Y-122281375D01*
X145721394Y-122420531D01*
X145493203Y-122607803D01*
X145305931Y-122835995D01*
X145288000Y-122869541D01*
X145270069Y-122835994D01*
X145082797Y-122607803D01*
X144854605Y-122420531D01*
X144594263Y-122281375D01*
X144311776Y-122195684D01*
X144018000Y-122166749D01*
X143724223Y-122195684D01*
X143441736Y-122281375D01*
X143181394Y-122420531D01*
X142953203Y-122607803D01*
X142765931Y-122835995D01*
X142748000Y-122869541D01*
X142730069Y-122835994D01*
X142542797Y-122607803D01*
X142314605Y-122420531D01*
X142054263Y-122281375D01*
X141771776Y-122195684D01*
X141478000Y-122166749D01*
X141184223Y-122195684D01*
X140901736Y-122281375D01*
X140641394Y-122420531D01*
X140413203Y-122607803D01*
X140225931Y-122835995D01*
X140208000Y-122869541D01*
X140190069Y-122835994D01*
X140002797Y-122607803D01*
X139774605Y-122420531D01*
X139514263Y-122281375D01*
X139231776Y-122195684D01*
X138938000Y-122166749D01*
X138644223Y-122195684D01*
X138361736Y-122281375D01*
X138101394Y-122420531D01*
X137873203Y-122607803D01*
X137685931Y-122835995D01*
X137546775Y-123096337D01*
X137461084Y-123378824D01*
X137439400Y-123598982D01*
X127635000Y-123598982D01*
X127635000Y-123562323D01*
X127532508Y-123047065D01*
X127331464Y-122561702D01*
X127039594Y-122124887D01*
X126668113Y-121753406D01*
X126231298Y-121461536D01*
X125745935Y-121260492D01*
X125230677Y-121158000D01*
X124705323Y-121158000D01*
X124190065Y-121260492D01*
X123704702Y-121461536D01*
X123267887Y-121753406D01*
X122896406Y-122124887D01*
X122604536Y-122561702D01*
X122403492Y-123047065D01*
X122301000Y-123562323D01*
X122301000Y-124087677D01*
X122403492Y-124602935D01*
X122604536Y-125088298D01*
X122896406Y-125525113D01*
X122974293Y-125603000D01*
X111760000Y-125603000D01*
X111760000Y-114773967D01*
X124603000Y-114773967D01*
X124603000Y-115096033D01*
X124665832Y-115411912D01*
X124789082Y-115709463D01*
X124968013Y-115977252D01*
X125195748Y-116204987D01*
X125463537Y-116383918D01*
X125761088Y-116507168D01*
X126076967Y-116570000D01*
X126399033Y-116570000D01*
X126714912Y-116507168D01*
X127012463Y-116383918D01*
X127280252Y-116204987D01*
X127507987Y-115977252D01*
X127686918Y-115709463D01*
X127810168Y-115411912D01*
X127873000Y-115096033D01*
X127873000Y-114773967D01*
X127810168Y-114458088D01*
X127686918Y-114160537D01*
X127507987Y-113892748D01*
X127280252Y-113665013D01*
X127012463Y-113486082D01*
X126714912Y-113362832D01*
X126399033Y-113300000D01*
X126076967Y-113300000D01*
X125761088Y-113362832D01*
X125463537Y-113486082D01*
X125195748Y-113665013D01*
X124968013Y-113892748D01*
X124789082Y-114160537D01*
X124665832Y-114458088D01*
X124603000Y-114773967D01*
X111760000Y-114773967D01*
X111760000Y-112302911D01*
X140543000Y-112302911D01*
X140543000Y-112487089D01*
X140578932Y-112667729D01*
X140649414Y-112837889D01*
X140751738Y-112991028D01*
X140881972Y-113121262D01*
X141035111Y-113223586D01*
X141205271Y-113294068D01*
X141385911Y-113330000D01*
X141570089Y-113330000D01*
X141750729Y-113294068D01*
X141920889Y-113223586D01*
X142023535Y-113155000D01*
X158977431Y-113155000D01*
X158911972Y-113198738D01*
X158781738Y-113328972D01*
X158679414Y-113482111D01*
X158608932Y-113652271D01*
X158573000Y-113832911D01*
X158573000Y-114017089D01*
X158608932Y-114197729D01*
X158679414Y-114367889D01*
X158781738Y-114521028D01*
X158911972Y-114651262D01*
X159065111Y-114753586D01*
X159235271Y-114824068D01*
X159415911Y-114860000D01*
X159600089Y-114860000D01*
X159780729Y-114824068D01*
X159950889Y-114753586D01*
X160053535Y-114685000D01*
X161420678Y-114685000D01*
X161458000Y-114688676D01*
X161495322Y-114685000D01*
X161495333Y-114685000D01*
X161606986Y-114674003D01*
X161750247Y-114630546D01*
X161882276Y-114559974D01*
X161998001Y-114465001D01*
X162021804Y-114435997D01*
X162885001Y-113572800D01*
X166028203Y-116716003D01*
X166052001Y-116745001D01*
X166080999Y-116768799D01*
X166167725Y-116839974D01*
X166295761Y-116908411D01*
X166299755Y-116910546D01*
X166443016Y-116954003D01*
X166554669Y-116965000D01*
X166554678Y-116965000D01*
X166592001Y-116968676D01*
X166629324Y-116965000D01*
X166659928Y-116965000D01*
X166659928Y-117055000D01*
X166672188Y-117179482D01*
X166708498Y-117299180D01*
X166767463Y-117409494D01*
X166846815Y-117506185D01*
X166943506Y-117585537D01*
X167053820Y-117644502D01*
X167173518Y-117680812D01*
X167298000Y-117693072D01*
X168998000Y-117693072D01*
X169122482Y-117680812D01*
X169242180Y-117644502D01*
X169352494Y-117585537D01*
X169449185Y-117506185D01*
X169528537Y-117409494D01*
X169587502Y-117299180D01*
X169609513Y-117226620D01*
X169741368Y-117358475D01*
X169984589Y-117520990D01*
X170254842Y-117632932D01*
X170541740Y-117690000D01*
X170834260Y-117690000D01*
X171121158Y-117632932D01*
X171391411Y-117520990D01*
X171634632Y-117358475D01*
X171841475Y-117151632D01*
X172003990Y-116908411D01*
X172115932Y-116638158D01*
X172173000Y-116351260D01*
X172173000Y-116058740D01*
X172115932Y-115771842D01*
X172003990Y-115501589D01*
X171841475Y-115258368D01*
X171634632Y-115051525D01*
X171391411Y-114889010D01*
X171121158Y-114777068D01*
X170834260Y-114720000D01*
X170541740Y-114720000D01*
X170254842Y-114777068D01*
X169984589Y-114889010D01*
X169741368Y-115051525D01*
X169609513Y-115183380D01*
X169587502Y-115110820D01*
X169528537Y-115000506D01*
X169449185Y-114903815D01*
X169352494Y-114824463D01*
X169242180Y-114765498D01*
X169122482Y-114729188D01*
X168998000Y-114716928D01*
X167298000Y-114716928D01*
X167173518Y-114729188D01*
X167053820Y-114765498D01*
X166943506Y-114824463D01*
X166846815Y-114903815D01*
X166767463Y-115000506D01*
X166708498Y-115110820D01*
X166676874Y-115215070D01*
X163645001Y-112183198D01*
X163645001Y-111072110D01*
X163676273Y-111093005D01*
X163930510Y-111198314D01*
X164200408Y-111252000D01*
X164475592Y-111252000D01*
X164745490Y-111198314D01*
X164999727Y-111093005D01*
X165228535Y-110940120D01*
X165423120Y-110745535D01*
X165576005Y-110516727D01*
X165608000Y-110439485D01*
X165639995Y-110516727D01*
X165792880Y-110745535D01*
X165987465Y-110940120D01*
X166216273Y-111093005D01*
X166470510Y-111198314D01*
X166740408Y-111252000D01*
X167015592Y-111252000D01*
X167285490Y-111198314D01*
X167539727Y-111093005D01*
X167768535Y-110940120D01*
X167963120Y-110745535D01*
X168116005Y-110516727D01*
X168148000Y-110439485D01*
X168179995Y-110516727D01*
X168332880Y-110745535D01*
X168527465Y-110940120D01*
X168756273Y-111093005D01*
X169010510Y-111198314D01*
X169280408Y-111252000D01*
X169555592Y-111252000D01*
X169825490Y-111198314D01*
X170079727Y-111093005D01*
X170308535Y-110940120D01*
X170503120Y-110745535D01*
X170656005Y-110516727D01*
X170688000Y-110439485D01*
X170719995Y-110516727D01*
X170872880Y-110745535D01*
X171067465Y-110940120D01*
X171296273Y-111093005D01*
X171550510Y-111198314D01*
X171820408Y-111252000D01*
X172095592Y-111252000D01*
X172365490Y-111198314D01*
X172619727Y-111093005D01*
X172848535Y-110940120D01*
X173043120Y-110745535D01*
X173196005Y-110516727D01*
X173228000Y-110439485D01*
X173259995Y-110516727D01*
X173412880Y-110745535D01*
X173607465Y-110940120D01*
X173836273Y-111093005D01*
X174090510Y-111198314D01*
X174360408Y-111252000D01*
X174635592Y-111252000D01*
X174905490Y-111198314D01*
X175159727Y-111093005D01*
X175388535Y-110940120D01*
X175583120Y-110745535D01*
X175736005Y-110516727D01*
X175768000Y-110439485D01*
X175799995Y-110516727D01*
X175952880Y-110745535D01*
X176147465Y-110940120D01*
X176376273Y-111093005D01*
X176630510Y-111198314D01*
X176900408Y-111252000D01*
X177175592Y-111252000D01*
X177445490Y-111198314D01*
X177699727Y-111093005D01*
X177928535Y-110940120D01*
X178123120Y-110745535D01*
X178276005Y-110516727D01*
X178381314Y-110262490D01*
X178435000Y-109992592D01*
X178435000Y-109717408D01*
X178381314Y-109447510D01*
X178276005Y-109193273D01*
X178123120Y-108964465D01*
X177928535Y-108769880D01*
X177699727Y-108616995D01*
X177445490Y-108511686D01*
X177175592Y-108458000D01*
X176900408Y-108458000D01*
X176630510Y-108511686D01*
X176376273Y-108616995D01*
X176147465Y-108769880D01*
X175952880Y-108964465D01*
X175799995Y-109193273D01*
X175768000Y-109270515D01*
X175736005Y-109193273D01*
X175583120Y-108964465D01*
X175388535Y-108769880D01*
X175159727Y-108616995D01*
X174905490Y-108511686D01*
X174635592Y-108458000D01*
X174360408Y-108458000D01*
X174090510Y-108511686D01*
X173836273Y-108616995D01*
X173607465Y-108769880D01*
X173412880Y-108964465D01*
X173259995Y-109193273D01*
X173228000Y-109270515D01*
X173196005Y-109193273D01*
X173043120Y-108964465D01*
X172848535Y-108769880D01*
X172619727Y-108616995D01*
X172365490Y-108511686D01*
X172095592Y-108458000D01*
X171820408Y-108458000D01*
X171550510Y-108511686D01*
X171296273Y-108616995D01*
X171067465Y-108769880D01*
X170872880Y-108964465D01*
X170719995Y-109193273D01*
X170688000Y-109270515D01*
X170656005Y-109193273D01*
X170503120Y-108964465D01*
X170308535Y-108769880D01*
X170079727Y-108616995D01*
X169825490Y-108511686D01*
X169555592Y-108458000D01*
X169280408Y-108458000D01*
X169010510Y-108511686D01*
X168756273Y-108616995D01*
X168527465Y-108769880D01*
X168332880Y-108964465D01*
X168179995Y-109193273D01*
X168148000Y-109270515D01*
X168116005Y-109193273D01*
X167963120Y-108964465D01*
X167768535Y-108769880D01*
X167539727Y-108616995D01*
X167285490Y-108511686D01*
X167015592Y-108458000D01*
X166740408Y-108458000D01*
X166470510Y-108511686D01*
X166216273Y-108616995D01*
X165987465Y-108769880D01*
X165792880Y-108964465D01*
X165639995Y-109193273D01*
X165608000Y-109270515D01*
X165576005Y-109193273D01*
X165423120Y-108964465D01*
X165228535Y-108769880D01*
X164999727Y-108616995D01*
X164745490Y-108511686D01*
X164475592Y-108458000D01*
X164200408Y-108458000D01*
X163930510Y-108511686D01*
X163676273Y-108616995D01*
X163619432Y-108654975D01*
X163590547Y-108559754D01*
X163519975Y-108427725D01*
X163425002Y-108312000D01*
X163396005Y-108288203D01*
X162497103Y-107389301D01*
X162503546Y-107377247D01*
X162547003Y-107233986D01*
X162558000Y-107122333D01*
X162561677Y-107085000D01*
X162558000Y-107047667D01*
X162558000Y-107024645D01*
X162583106Y-107011226D01*
X162631006Y-107050537D01*
X162741320Y-107109502D01*
X162861018Y-107145812D01*
X162985500Y-107158072D01*
X163237250Y-107155000D01*
X163396000Y-106996250D01*
X163396000Y-106172000D01*
X163650000Y-106172000D01*
X163650000Y-106996250D01*
X163808750Y-107155000D01*
X164060500Y-107158072D01*
X164184982Y-107145812D01*
X164304680Y-107109502D01*
X164414994Y-107050537D01*
X164511685Y-106971185D01*
X164591037Y-106874494D01*
X164650002Y-106764180D01*
X164686312Y-106644482D01*
X164698572Y-106520000D01*
X164695500Y-106330750D01*
X164536750Y-106172000D01*
X163650000Y-106172000D01*
X163396000Y-106172000D01*
X163376000Y-106172000D01*
X163376000Y-105918000D01*
X163396000Y-105918000D01*
X163396000Y-105093750D01*
X163650000Y-105093750D01*
X163650000Y-105918000D01*
X164536750Y-105918000D01*
X164695500Y-105759250D01*
X164698572Y-105570000D01*
X164686312Y-105445518D01*
X164650002Y-105325820D01*
X164591037Y-105215506D01*
X164511685Y-105118815D01*
X164414994Y-105039463D01*
X164304680Y-104980498D01*
X164184982Y-104944188D01*
X164060500Y-104931928D01*
X163808750Y-104935000D01*
X163650000Y-105093750D01*
X163396000Y-105093750D01*
X163237250Y-104935000D01*
X162985500Y-104931928D01*
X162861018Y-104944188D01*
X162741320Y-104980498D01*
X162631006Y-105039463D01*
X162583106Y-105078774D01*
X162433067Y-104998577D01*
X162268816Y-104948752D01*
X162098000Y-104931928D01*
X161498000Y-104931928D01*
X161327184Y-104948752D01*
X161162933Y-104998577D01*
X161011558Y-105079488D01*
X160878877Y-105188377D01*
X160769988Y-105321058D01*
X160689077Y-105472433D01*
X160639252Y-105636684D01*
X160622428Y-105807500D01*
X160622428Y-106282500D01*
X160639252Y-106453316D01*
X160689077Y-106617567D01*
X160720483Y-106676324D01*
X160600889Y-106596414D01*
X160430729Y-106525932D01*
X160250089Y-106490000D01*
X160065911Y-106490000D01*
X159885271Y-106525932D01*
X159778563Y-106570132D01*
X159777123Y-106568377D01*
X159644442Y-106459488D01*
X159493067Y-106378577D01*
X159328816Y-106328752D01*
X159158000Y-106311928D01*
X158558000Y-106311928D01*
X158387184Y-106328752D01*
X158222933Y-106378577D01*
X158072894Y-106458774D01*
X158024994Y-106419463D01*
X157914680Y-106360498D01*
X157794982Y-106324188D01*
X157670500Y-106311928D01*
X157418750Y-106315000D01*
X157260000Y-106473750D01*
X157260000Y-107298000D01*
X157280000Y-107298000D01*
X157280000Y-107552000D01*
X157260000Y-107552000D01*
X157260000Y-107572000D01*
X157006000Y-107572000D01*
X157006000Y-107552000D01*
X156119250Y-107552000D01*
X155960500Y-107710750D01*
X155957428Y-107900000D01*
X155969688Y-108024482D01*
X156005998Y-108144180D01*
X156064963Y-108254494D01*
X156144315Y-108351185D01*
X156241006Y-108430537D01*
X156351320Y-108489502D01*
X156379326Y-108497998D01*
X156310510Y-108511686D01*
X156056273Y-108616995D01*
X155827465Y-108769880D01*
X155632880Y-108964465D01*
X155479995Y-109193273D01*
X155448000Y-109270515D01*
X155416005Y-109193273D01*
X155263120Y-108964465D01*
X155068535Y-108769880D01*
X154839727Y-108616995D01*
X154585490Y-108511686D01*
X154315592Y-108458000D01*
X154040408Y-108458000D01*
X153770510Y-108511686D01*
X153516273Y-108616995D01*
X153287465Y-108769880D01*
X153092880Y-108964465D01*
X152939995Y-109193273D01*
X152910308Y-109264943D01*
X152905636Y-109251977D01*
X152843656Y-109136020D01*
X152603565Y-109069040D01*
X151817605Y-109855000D01*
X152603565Y-110640960D01*
X152843656Y-110573980D01*
X152907485Y-110438240D01*
X152939995Y-110516727D01*
X153092880Y-110745535D01*
X153287465Y-110940120D01*
X153516273Y-111093005D01*
X153770510Y-111198314D01*
X154040408Y-111252000D01*
X154315592Y-111252000D01*
X154585490Y-111198314D01*
X154839727Y-111093005D01*
X155068535Y-110940120D01*
X155263120Y-110745535D01*
X155416005Y-110516727D01*
X155448000Y-110439485D01*
X155479995Y-110516727D01*
X155632880Y-110745535D01*
X155827465Y-110940120D01*
X156056273Y-111093005D01*
X156310510Y-111198314D01*
X156580408Y-111252000D01*
X156855592Y-111252000D01*
X157125490Y-111198314D01*
X157379727Y-111093005D01*
X157608535Y-110940120D01*
X157803120Y-110745535D01*
X157956005Y-110516727D01*
X157988000Y-110439485D01*
X158019995Y-110516727D01*
X158172880Y-110745535D01*
X158367465Y-110940120D01*
X158596273Y-111093005D01*
X158850510Y-111198314D01*
X159120408Y-111252000D01*
X159395592Y-111252000D01*
X159665490Y-111198314D01*
X159698000Y-111184848D01*
X159698000Y-111635000D01*
X142023535Y-111635000D01*
X141920889Y-111566414D01*
X141750729Y-111495932D01*
X141570089Y-111460000D01*
X141385911Y-111460000D01*
X141205271Y-111495932D01*
X141035111Y-111566414D01*
X140881972Y-111668738D01*
X140751738Y-111798972D01*
X140649414Y-111952111D01*
X140578932Y-112122271D01*
X140543000Y-112302911D01*
X111760000Y-112302911D01*
X111760000Y-108438740D01*
X114593000Y-108438740D01*
X114593000Y-108731260D01*
X114650068Y-109018158D01*
X114762010Y-109288411D01*
X114924525Y-109531632D01*
X115131368Y-109738475D01*
X115374589Y-109900990D01*
X115644842Y-110012932D01*
X115931740Y-110070000D01*
X116224260Y-110070000D01*
X116511158Y-110012932D01*
X116781411Y-109900990D01*
X117024632Y-109738475D01*
X117231475Y-109531632D01*
X117348000Y-109357240D01*
X117464525Y-109531632D01*
X117671368Y-109738475D01*
X117914589Y-109900990D01*
X118184842Y-110012932D01*
X118471740Y-110070000D01*
X118764260Y-110070000D01*
X119051158Y-110012932D01*
X119321411Y-109900990D01*
X119564632Y-109738475D01*
X119696487Y-109606620D01*
X119718498Y-109679180D01*
X119777463Y-109789494D01*
X119856815Y-109886185D01*
X119953506Y-109965537D01*
X120063820Y-110024502D01*
X120183518Y-110060812D01*
X120308000Y-110073072D01*
X122008000Y-110073072D01*
X122132482Y-110060812D01*
X122252180Y-110024502D01*
X122362494Y-109965537D01*
X122459185Y-109886185D01*
X122538537Y-109789494D01*
X122597502Y-109679180D01*
X122633812Y-109559482D01*
X122646072Y-109435000D01*
X122646072Y-109220000D01*
X142744928Y-109220000D01*
X142744928Y-110490000D01*
X142757188Y-110614482D01*
X142793498Y-110734180D01*
X142852463Y-110844494D01*
X142931815Y-110941185D01*
X143028506Y-111020537D01*
X143138820Y-111079502D01*
X143258518Y-111115812D01*
X143383000Y-111128072D01*
X144653000Y-111128072D01*
X144777482Y-111115812D01*
X144897180Y-111079502D01*
X145007494Y-111020537D01*
X145104185Y-110941185D01*
X145183537Y-110844494D01*
X145242502Y-110734180D01*
X145278812Y-110614482D01*
X145291072Y-110490000D01*
X145291072Y-110446901D01*
X145319995Y-110516727D01*
X145472880Y-110745535D01*
X145667465Y-110940120D01*
X145896273Y-111093005D01*
X146150510Y-111198314D01*
X146420408Y-111252000D01*
X146695592Y-111252000D01*
X146965490Y-111198314D01*
X147219727Y-111093005D01*
X147448535Y-110940120D01*
X147643120Y-110745535D01*
X147796005Y-110516727D01*
X147828000Y-110439485D01*
X147859995Y-110516727D01*
X148012880Y-110745535D01*
X148207465Y-110940120D01*
X148436273Y-111093005D01*
X148690510Y-111198314D01*
X148960408Y-111252000D01*
X149235592Y-111252000D01*
X149505490Y-111198314D01*
X149759727Y-111093005D01*
X149988535Y-110940120D01*
X150108090Y-110820565D01*
X150852040Y-110820565D01*
X150919020Y-111060656D01*
X151168048Y-111177756D01*
X151435135Y-111244023D01*
X151710017Y-111256910D01*
X151982133Y-111215922D01*
X152241023Y-111122636D01*
X152356980Y-111060656D01*
X152423960Y-110820565D01*
X151638000Y-110034605D01*
X150852040Y-110820565D01*
X150108090Y-110820565D01*
X150183120Y-110745535D01*
X150336005Y-110516727D01*
X150365692Y-110445057D01*
X150370364Y-110458023D01*
X150432344Y-110573980D01*
X150672435Y-110640960D01*
X151458395Y-109855000D01*
X150672435Y-109069040D01*
X150432344Y-109136020D01*
X150368515Y-109271760D01*
X150336005Y-109193273D01*
X150183120Y-108964465D01*
X150108090Y-108889435D01*
X150852040Y-108889435D01*
X151638000Y-109675395D01*
X152423960Y-108889435D01*
X152356980Y-108649344D01*
X152107952Y-108532244D01*
X151840865Y-108465977D01*
X151565983Y-108453090D01*
X151293867Y-108494078D01*
X151034977Y-108587364D01*
X150919020Y-108649344D01*
X150852040Y-108889435D01*
X150108090Y-108889435D01*
X149988535Y-108769880D01*
X149759727Y-108616995D01*
X149505490Y-108511686D01*
X149235592Y-108458000D01*
X148960408Y-108458000D01*
X148690510Y-108511686D01*
X148436273Y-108616995D01*
X148207465Y-108769880D01*
X148012880Y-108964465D01*
X147859995Y-109193273D01*
X147828000Y-109270515D01*
X147796005Y-109193273D01*
X147643120Y-108964465D01*
X147448535Y-108769880D01*
X147318000Y-108682659D01*
X147318000Y-108263420D01*
X147414623Y-108184123D01*
X147523512Y-108051442D01*
X147604423Y-107900067D01*
X147654248Y-107735816D01*
X147671072Y-107565000D01*
X147671072Y-107065000D01*
X147659746Y-106950000D01*
X155957428Y-106950000D01*
X155960500Y-107139250D01*
X156119250Y-107298000D01*
X157006000Y-107298000D01*
X157006000Y-106473750D01*
X156847250Y-106315000D01*
X156595500Y-106311928D01*
X156471018Y-106324188D01*
X156351320Y-106360498D01*
X156241006Y-106419463D01*
X156144315Y-106498815D01*
X156064963Y-106595506D01*
X156005998Y-106705820D01*
X155969688Y-106825518D01*
X155957428Y-106950000D01*
X147659746Y-106950000D01*
X147654248Y-106894184D01*
X147604423Y-106729933D01*
X147523512Y-106578558D01*
X147434188Y-106469717D01*
X147484185Y-106428685D01*
X147563537Y-106331994D01*
X147622502Y-106221680D01*
X147658812Y-106101982D01*
X147671072Y-105977500D01*
X147668000Y-105775750D01*
X147509250Y-105617000D01*
X146685000Y-105617000D01*
X146685000Y-105637000D01*
X146431000Y-105637000D01*
X146431000Y-105617000D01*
X145606750Y-105617000D01*
X145448000Y-105775750D01*
X145444928Y-105977500D01*
X145457188Y-106101982D01*
X145493498Y-106221680D01*
X145552463Y-106331994D01*
X145631815Y-106428685D01*
X145681812Y-106469717D01*
X145592488Y-106578558D01*
X145511577Y-106729933D01*
X145461752Y-106894184D01*
X145444928Y-107065000D01*
X145444928Y-107565000D01*
X145461752Y-107735816D01*
X145511577Y-107900067D01*
X145592488Y-108051442D01*
X145701377Y-108184123D01*
X145798000Y-108263420D01*
X145798001Y-108682659D01*
X145667465Y-108769880D01*
X145472880Y-108964465D01*
X145319995Y-109193273D01*
X145291072Y-109263099D01*
X145291072Y-109220000D01*
X145278812Y-109095518D01*
X145242502Y-108975820D01*
X145183537Y-108865506D01*
X145104185Y-108768815D01*
X145007494Y-108689463D01*
X144897180Y-108630498D01*
X144778000Y-108594345D01*
X144778000Y-108263420D01*
X144874623Y-108184123D01*
X144983512Y-108051442D01*
X145064423Y-107900067D01*
X145114248Y-107735816D01*
X145131072Y-107565000D01*
X145131072Y-107065000D01*
X145114248Y-106894184D01*
X145064423Y-106729933D01*
X144983512Y-106578558D01*
X144894188Y-106469717D01*
X144944185Y-106428685D01*
X145023537Y-106331994D01*
X145082502Y-106221680D01*
X145118812Y-106101982D01*
X145131072Y-105977500D01*
X145128000Y-105775750D01*
X144969250Y-105617000D01*
X144145000Y-105617000D01*
X144145000Y-105637000D01*
X143891000Y-105637000D01*
X143891000Y-105617000D01*
X143066750Y-105617000D01*
X142908000Y-105775750D01*
X142904928Y-105977500D01*
X142917188Y-106101982D01*
X142953498Y-106221680D01*
X143012463Y-106331994D01*
X143091815Y-106428685D01*
X143141812Y-106469717D01*
X143052488Y-106578558D01*
X142971577Y-106729933D01*
X142921752Y-106894184D01*
X142904928Y-107065000D01*
X142904928Y-107565000D01*
X142921752Y-107735816D01*
X142971577Y-107900067D01*
X143052488Y-108051442D01*
X143161377Y-108184123D01*
X143258000Y-108263420D01*
X143258001Y-108594345D01*
X143138820Y-108630498D01*
X143028506Y-108689463D01*
X142931815Y-108768815D01*
X142852463Y-108865506D01*
X142793498Y-108975820D01*
X142757188Y-109095518D01*
X142744928Y-109220000D01*
X122646072Y-109220000D01*
X122646072Y-107735000D01*
X122633812Y-107610518D01*
X122597502Y-107490820D01*
X122538537Y-107380506D01*
X122459185Y-107283815D01*
X122362494Y-107204463D01*
X122252180Y-107145498D01*
X122132482Y-107109188D01*
X122008000Y-107096928D01*
X120308000Y-107096928D01*
X120183518Y-107109188D01*
X120063820Y-107145498D01*
X119953506Y-107204463D01*
X119856815Y-107283815D01*
X119777463Y-107380506D01*
X119718498Y-107490820D01*
X119696487Y-107563380D01*
X119564632Y-107431525D01*
X119321411Y-107269010D01*
X119051158Y-107157068D01*
X118764260Y-107100000D01*
X118471740Y-107100000D01*
X118184842Y-107157068D01*
X117914589Y-107269010D01*
X117671368Y-107431525D01*
X117464525Y-107638368D01*
X117348000Y-107812760D01*
X117231475Y-107638368D01*
X117024632Y-107431525D01*
X116781411Y-107269010D01*
X116511158Y-107157068D01*
X116224260Y-107100000D01*
X115931740Y-107100000D01*
X115644842Y-107157068D01*
X115374589Y-107269010D01*
X115131368Y-107431525D01*
X114924525Y-107638368D01*
X114762010Y-107881589D01*
X114650068Y-108151842D01*
X114593000Y-108438740D01*
X111760000Y-108438740D01*
X111760000Y-105002500D01*
X142904928Y-105002500D01*
X142908000Y-105204250D01*
X143066750Y-105363000D01*
X143891000Y-105363000D01*
X143891000Y-104526250D01*
X144145000Y-104526250D01*
X144145000Y-105363000D01*
X144969250Y-105363000D01*
X145128000Y-105204250D01*
X145131072Y-105002500D01*
X145444928Y-105002500D01*
X145448000Y-105204250D01*
X145606750Y-105363000D01*
X146431000Y-105363000D01*
X146431000Y-104526250D01*
X146685000Y-104526250D01*
X146685000Y-105363000D01*
X147509250Y-105363000D01*
X147668000Y-105204250D01*
X147671072Y-105002500D01*
X147658812Y-104878018D01*
X147622502Y-104758320D01*
X147563537Y-104648006D01*
X147484185Y-104551315D01*
X147387494Y-104471963D01*
X147277180Y-104412998D01*
X147157482Y-104376688D01*
X147033000Y-104364428D01*
X146843750Y-104367500D01*
X146685000Y-104526250D01*
X146431000Y-104526250D01*
X146272250Y-104367500D01*
X146083000Y-104364428D01*
X145958518Y-104376688D01*
X145838820Y-104412998D01*
X145728506Y-104471963D01*
X145631815Y-104551315D01*
X145552463Y-104648006D01*
X145493498Y-104758320D01*
X145457188Y-104878018D01*
X145444928Y-105002500D01*
X145131072Y-105002500D01*
X145118812Y-104878018D01*
X145082502Y-104758320D01*
X145023537Y-104648006D01*
X144944185Y-104551315D01*
X144847494Y-104471963D01*
X144737180Y-104412998D01*
X144617482Y-104376688D01*
X144493000Y-104364428D01*
X144303750Y-104367500D01*
X144145000Y-104526250D01*
X143891000Y-104526250D01*
X143732250Y-104367500D01*
X143543000Y-104364428D01*
X143418518Y-104376688D01*
X143298820Y-104412998D01*
X143188506Y-104471963D01*
X143091815Y-104551315D01*
X143012463Y-104648006D01*
X142953498Y-104758320D01*
X142917188Y-104878018D01*
X142904928Y-105002500D01*
X111760000Y-105002500D01*
X111760000Y-98278740D01*
X114593000Y-98278740D01*
X114593000Y-98571260D01*
X114650068Y-98858158D01*
X114762010Y-99128411D01*
X114924525Y-99371632D01*
X115131368Y-99578475D01*
X115374589Y-99740990D01*
X115644842Y-99852932D01*
X115931740Y-99910000D01*
X116224260Y-99910000D01*
X116511158Y-99852932D01*
X116781411Y-99740990D01*
X117024632Y-99578475D01*
X117135607Y-99467500D01*
X142904928Y-99467500D01*
X142917188Y-99591982D01*
X142953498Y-99711680D01*
X143012463Y-99821994D01*
X143091815Y-99918685D01*
X143188506Y-99998037D01*
X143298820Y-100057002D01*
X143418518Y-100093312D01*
X143543000Y-100105572D01*
X143732250Y-100102500D01*
X143891000Y-99943750D01*
X143891000Y-99107000D01*
X144145000Y-99107000D01*
X144145000Y-99943750D01*
X144303750Y-100102500D01*
X144493000Y-100105572D01*
X144617482Y-100093312D01*
X144737180Y-100057002D01*
X144847494Y-99998037D01*
X144944185Y-99918685D01*
X145023537Y-99821994D01*
X145082502Y-99711680D01*
X145118812Y-99591982D01*
X145131072Y-99467500D01*
X147984928Y-99467500D01*
X147997188Y-99591982D01*
X148033498Y-99711680D01*
X148092463Y-99821994D01*
X148171815Y-99918685D01*
X148268506Y-99998037D01*
X148378820Y-100057002D01*
X148498518Y-100093312D01*
X148623000Y-100105572D01*
X148812250Y-100102500D01*
X148971000Y-99943750D01*
X148971000Y-99107000D01*
X149225000Y-99107000D01*
X149225000Y-99943750D01*
X149383750Y-100102500D01*
X149459690Y-100103733D01*
X149433000Y-100237911D01*
X149433000Y-100422089D01*
X149468932Y-100602729D01*
X149539414Y-100772889D01*
X149608000Y-100875535D01*
X149608000Y-100927678D01*
X149604324Y-100965000D01*
X149608000Y-101002322D01*
X149608000Y-101002333D01*
X149618997Y-101113986D01*
X149662454Y-101257247D01*
X149687037Y-101303236D01*
X149733026Y-101389276D01*
X149766343Y-101429872D01*
X149828000Y-101505001D01*
X149856998Y-101528799D01*
X150079847Y-101751649D01*
X150103932Y-101872729D01*
X150174414Y-102042889D01*
X150276738Y-102196028D01*
X150406972Y-102326262D01*
X150560111Y-102428586D01*
X150730271Y-102499068D01*
X150910911Y-102535000D01*
X151095089Y-102535000D01*
X151275729Y-102499068D01*
X151445889Y-102428586D01*
X151599028Y-102326262D01*
X151729262Y-102196028D01*
X151831586Y-102042889D01*
X151902068Y-101872729D01*
X151938000Y-101692089D01*
X151938000Y-101507911D01*
X151902068Y-101327271D01*
X151831586Y-101157111D01*
X151729262Y-101003972D01*
X151599028Y-100873738D01*
X151445889Y-100771414D01*
X151275729Y-100700932D01*
X151230147Y-100691865D01*
X151267068Y-100602729D01*
X151303000Y-100422089D01*
X151303000Y-100237911D01*
X151276310Y-100103733D01*
X151352250Y-100102500D01*
X151511000Y-99943750D01*
X151511000Y-99107000D01*
X150686750Y-99107000D01*
X150528000Y-99265750D01*
X150525833Y-99408077D01*
X150460089Y-99395000D01*
X150275911Y-99395000D01*
X150210167Y-99408077D01*
X150208000Y-99265750D01*
X150049250Y-99107000D01*
X149225000Y-99107000D01*
X148971000Y-99107000D01*
X148146750Y-99107000D01*
X147988000Y-99265750D01*
X147984928Y-99467500D01*
X145131072Y-99467500D01*
X145128000Y-99265750D01*
X144969250Y-99107000D01*
X144145000Y-99107000D01*
X143891000Y-99107000D01*
X143066750Y-99107000D01*
X142908000Y-99265750D01*
X142904928Y-99467500D01*
X117135607Y-99467500D01*
X117231475Y-99371632D01*
X117393990Y-99128411D01*
X117505932Y-98858158D01*
X117563000Y-98571260D01*
X117563000Y-98278740D01*
X117505932Y-97991842D01*
X117393990Y-97721589D01*
X117231475Y-97478368D01*
X117024632Y-97271525D01*
X116842466Y-97149805D01*
X116959355Y-97080178D01*
X117175588Y-96885269D01*
X117349641Y-96651920D01*
X117474825Y-96389099D01*
X117519476Y-96241890D01*
X117398155Y-96012000D01*
X116205000Y-96012000D01*
X116205000Y-96032000D01*
X115951000Y-96032000D01*
X115951000Y-96012000D01*
X114757845Y-96012000D01*
X114636524Y-96241890D01*
X114681175Y-96389099D01*
X114806359Y-96651920D01*
X114980412Y-96885269D01*
X115196645Y-97080178D01*
X115313534Y-97149805D01*
X115131368Y-97271525D01*
X114924525Y-97478368D01*
X114762010Y-97721589D01*
X114650068Y-97991842D01*
X114593000Y-98278740D01*
X111760000Y-98278740D01*
X111760000Y-92495000D01*
X114589928Y-92495000D01*
X114589928Y-94195000D01*
X114602188Y-94319482D01*
X114638498Y-94439180D01*
X114697463Y-94549494D01*
X114776815Y-94646185D01*
X114873506Y-94725537D01*
X114983820Y-94784502D01*
X115064466Y-94808966D01*
X114980412Y-94884731D01*
X114806359Y-95118080D01*
X114681175Y-95380901D01*
X114636524Y-95528110D01*
X114757845Y-95758000D01*
X115951000Y-95758000D01*
X115951000Y-95738000D01*
X116205000Y-95738000D01*
X116205000Y-95758000D01*
X117398155Y-95758000D01*
X117519476Y-95528110D01*
X117474825Y-95380901D01*
X117349641Y-95118080D01*
X117175588Y-94884731D01*
X117091534Y-94808966D01*
X117172180Y-94784502D01*
X117282494Y-94725537D01*
X117379185Y-94646185D01*
X117458537Y-94549494D01*
X117517502Y-94439180D01*
X117553812Y-94319482D01*
X117566072Y-94195000D01*
X117566072Y-92495000D01*
X117553812Y-92370518D01*
X117517502Y-92250820D01*
X117458537Y-92140506D01*
X117379185Y-92043815D01*
X117282494Y-91964463D01*
X117172180Y-91905498D01*
X117052482Y-91869188D01*
X116928000Y-91856928D01*
X115228000Y-91856928D01*
X115103518Y-91869188D01*
X114983820Y-91905498D01*
X114873506Y-91964463D01*
X114776815Y-92043815D01*
X114697463Y-92140506D01*
X114638498Y-92250820D01*
X114602188Y-92370518D01*
X114589928Y-92495000D01*
X111760000Y-92495000D01*
X111760000Y-88118740D01*
X114593000Y-88118740D01*
X114593000Y-88411260D01*
X114650068Y-88698158D01*
X114762010Y-88968411D01*
X114924525Y-89211632D01*
X115131368Y-89418475D01*
X115374589Y-89580990D01*
X115644842Y-89692932D01*
X115931740Y-89750000D01*
X116224260Y-89750000D01*
X116511158Y-89692932D01*
X116781411Y-89580990D01*
X117024632Y-89418475D01*
X117231475Y-89211632D01*
X117348000Y-89037240D01*
X117464525Y-89211632D01*
X117671368Y-89418475D01*
X117914589Y-89580990D01*
X118184842Y-89692932D01*
X118471740Y-89750000D01*
X118764260Y-89750000D01*
X119051158Y-89692932D01*
X119321411Y-89580990D01*
X119564632Y-89418475D01*
X119696487Y-89286620D01*
X119718498Y-89359180D01*
X119777463Y-89469494D01*
X119856815Y-89566185D01*
X119953506Y-89645537D01*
X120063820Y-89704502D01*
X120183518Y-89740812D01*
X120308000Y-89753072D01*
X122008000Y-89753072D01*
X122132482Y-89740812D01*
X122252180Y-89704502D01*
X122362494Y-89645537D01*
X122459185Y-89566185D01*
X122538537Y-89469494D01*
X122597502Y-89359180D01*
X122633812Y-89239482D01*
X122646072Y-89115000D01*
X122646072Y-87415000D01*
X122633812Y-87290518D01*
X122597502Y-87170820D01*
X122538537Y-87060506D01*
X122459185Y-86963815D01*
X122362494Y-86884463D01*
X122252180Y-86825498D01*
X122132482Y-86789188D01*
X122008000Y-86776928D01*
X120308000Y-86776928D01*
X120183518Y-86789188D01*
X120063820Y-86825498D01*
X119953506Y-86884463D01*
X119856815Y-86963815D01*
X119777463Y-87060506D01*
X119718498Y-87170820D01*
X119696487Y-87243380D01*
X119564632Y-87111525D01*
X119321411Y-86949010D01*
X119051158Y-86837068D01*
X118764260Y-86780000D01*
X118471740Y-86780000D01*
X118184842Y-86837068D01*
X117914589Y-86949010D01*
X117671368Y-87111525D01*
X117464525Y-87318368D01*
X117348000Y-87492760D01*
X117231475Y-87318368D01*
X117024632Y-87111525D01*
X116781411Y-86949010D01*
X116511158Y-86837068D01*
X116224260Y-86780000D01*
X115931740Y-86780000D01*
X115644842Y-86837068D01*
X115374589Y-86949010D01*
X115131368Y-87111525D01*
X114924525Y-87318368D01*
X114762010Y-87561589D01*
X114650068Y-87831842D01*
X114593000Y-88118740D01*
X111760000Y-88118740D01*
X111760000Y-82668740D01*
X113463000Y-82668740D01*
X113463000Y-82961260D01*
X113520068Y-83248158D01*
X113632010Y-83518411D01*
X113794525Y-83761632D01*
X114001368Y-83968475D01*
X114244589Y-84130990D01*
X114514842Y-84242932D01*
X114801740Y-84300000D01*
X115094260Y-84300000D01*
X115381158Y-84242932D01*
X115651411Y-84130990D01*
X115894632Y-83968475D01*
X116019710Y-83843397D01*
X118599208Y-83843397D01*
X118676843Y-84092472D01*
X118940883Y-84218371D01*
X119224411Y-84290339D01*
X119516531Y-84305611D01*
X119806019Y-84263599D01*
X120081747Y-84165919D01*
X120219157Y-84092472D01*
X120296792Y-83843397D01*
X119448000Y-82994605D01*
X118599208Y-83843397D01*
X116019710Y-83843397D01*
X116101475Y-83761632D01*
X116263990Y-83518411D01*
X116375932Y-83248158D01*
X116433000Y-82961260D01*
X116433000Y-82883531D01*
X117957389Y-82883531D01*
X117999401Y-83173019D01*
X118097081Y-83448747D01*
X118170528Y-83586157D01*
X118419603Y-83663792D01*
X119268395Y-82815000D01*
X119627605Y-82815000D01*
X120476397Y-83663792D01*
X120725472Y-83586157D01*
X120851371Y-83322117D01*
X120920337Y-83050413D01*
X125282192Y-83050413D01*
X125377956Y-83314814D01*
X125667571Y-83455704D01*
X125979108Y-83537384D01*
X126300595Y-83556718D01*
X126619675Y-83512961D01*
X126924088Y-83407795D01*
X127098044Y-83314814D01*
X127193808Y-83050413D01*
X126238000Y-82094605D01*
X125282192Y-83050413D01*
X120920337Y-83050413D01*
X120923339Y-83038589D01*
X120938611Y-82746469D01*
X120896599Y-82456981D01*
X120798919Y-82181253D01*
X120725472Y-82043843D01*
X120512930Y-81977595D01*
X124596282Y-81977595D01*
X124640039Y-82296675D01*
X124745205Y-82601088D01*
X124838186Y-82775044D01*
X125102587Y-82870808D01*
X126058395Y-81915000D01*
X126417605Y-81915000D01*
X127373413Y-82870808D01*
X127637814Y-82775044D01*
X127778704Y-82485429D01*
X127860384Y-82173892D01*
X127879718Y-81852405D01*
X127835961Y-81533325D01*
X127730795Y-81228912D01*
X127637814Y-81054956D01*
X127373413Y-80959192D01*
X126417605Y-81915000D01*
X126058395Y-81915000D01*
X125102587Y-80959192D01*
X124838186Y-81054956D01*
X124697296Y-81344571D01*
X124615616Y-81656108D01*
X124596282Y-81977595D01*
X120512930Y-81977595D01*
X120476397Y-81966208D01*
X119627605Y-82815000D01*
X119268395Y-82815000D01*
X118419603Y-81966208D01*
X118170528Y-82043843D01*
X118044629Y-82307883D01*
X117972661Y-82591411D01*
X117957389Y-82883531D01*
X116433000Y-82883531D01*
X116433000Y-82668740D01*
X116375932Y-82381842D01*
X116263990Y-82111589D01*
X116101475Y-81868368D01*
X116019710Y-81786603D01*
X118599208Y-81786603D01*
X119448000Y-82635395D01*
X120296792Y-81786603D01*
X120219157Y-81537528D01*
X119955117Y-81411629D01*
X119671589Y-81339661D01*
X119379469Y-81324389D01*
X119089981Y-81366401D01*
X118814253Y-81464081D01*
X118676843Y-81537528D01*
X118599208Y-81786603D01*
X116019710Y-81786603D01*
X115894632Y-81661525D01*
X115651411Y-81499010D01*
X115381158Y-81387068D01*
X115094260Y-81330000D01*
X114801740Y-81330000D01*
X114514842Y-81387068D01*
X114244589Y-81499010D01*
X114001368Y-81661525D01*
X113794525Y-81868368D01*
X113632010Y-82111589D01*
X113520068Y-82381842D01*
X113463000Y-82668740D01*
X111760000Y-82668740D01*
X111760000Y-80779587D01*
X125282192Y-80779587D01*
X126238000Y-81735395D01*
X127193808Y-80779587D01*
X127098044Y-80515186D01*
X126808429Y-80374296D01*
X126496892Y-80292616D01*
X126175405Y-80273282D01*
X125856325Y-80317039D01*
X125551912Y-80422205D01*
X125377956Y-80515186D01*
X125282192Y-80779587D01*
X111760000Y-80779587D01*
X111760000Y-76168740D01*
X113463000Y-76168740D01*
X113463000Y-76461260D01*
X113520068Y-76748158D01*
X113632010Y-77018411D01*
X113794525Y-77261632D01*
X114001368Y-77468475D01*
X114244589Y-77630990D01*
X114514842Y-77742932D01*
X114801740Y-77800000D01*
X115094260Y-77800000D01*
X115381158Y-77742932D01*
X115651411Y-77630990D01*
X115894632Y-77468475D01*
X116019710Y-77343397D01*
X118599208Y-77343397D01*
X118676843Y-77592472D01*
X118940883Y-77718371D01*
X119224411Y-77790339D01*
X119516531Y-77805611D01*
X119806019Y-77763599D01*
X120081747Y-77665919D01*
X120219157Y-77592472D01*
X120296792Y-77343397D01*
X119448000Y-76494605D01*
X118599208Y-77343397D01*
X116019710Y-77343397D01*
X116101475Y-77261632D01*
X116263990Y-77018411D01*
X116375932Y-76748158D01*
X116433000Y-76461260D01*
X116433000Y-76383531D01*
X117957389Y-76383531D01*
X117999401Y-76673019D01*
X118097081Y-76948747D01*
X118170528Y-77086157D01*
X118419603Y-77163792D01*
X119268395Y-76315000D01*
X119627605Y-76315000D01*
X120476397Y-77163792D01*
X120725472Y-77086157D01*
X120851371Y-76822117D01*
X120923339Y-76538589D01*
X120938611Y-76246469D01*
X120896599Y-75956981D01*
X120798919Y-75681253D01*
X120725472Y-75543843D01*
X120476397Y-75466208D01*
X119627605Y-76315000D01*
X119268395Y-76315000D01*
X118419603Y-75466208D01*
X118170528Y-75543843D01*
X118044629Y-75807883D01*
X117972661Y-76091411D01*
X117957389Y-76383531D01*
X116433000Y-76383531D01*
X116433000Y-76168740D01*
X116375932Y-75881842D01*
X116263990Y-75611589D01*
X116101475Y-75368368D01*
X116019710Y-75286603D01*
X118599208Y-75286603D01*
X119448000Y-76135395D01*
X120296792Y-75286603D01*
X120219157Y-75037528D01*
X119955117Y-74911629D01*
X119671589Y-74839661D01*
X119379469Y-74824389D01*
X119089981Y-74866401D01*
X118814253Y-74964081D01*
X118676843Y-75037528D01*
X118599208Y-75286603D01*
X116019710Y-75286603D01*
X115894632Y-75161525D01*
X115651411Y-74999010D01*
X115381158Y-74887068D01*
X115094260Y-74830000D01*
X114801740Y-74830000D01*
X114514842Y-74887068D01*
X114244589Y-74999010D01*
X114001368Y-75161525D01*
X113794525Y-75368368D01*
X113632010Y-75611589D01*
X113520068Y-75881842D01*
X113463000Y-76168740D01*
X111760000Y-76168740D01*
X111760000Y-73787000D01*
X124244293Y-73787000D01*
X124166406Y-73864887D01*
G04 #@! TA.AperFunction,Conductor*
D21*
G36*
X124166406Y-73864887D02*
G01*
X123874536Y-74301702D01*
X123673492Y-74787065D01*
X123571000Y-75302323D01*
X123571000Y-75827677D01*
X123673492Y-76342935D01*
X123874536Y-76828298D01*
X124166406Y-77265113D01*
X124537887Y-77636594D01*
X124974702Y-77928464D01*
X125460065Y-78129508D01*
X125975323Y-78232000D01*
X126500677Y-78232000D01*
X127015935Y-78129508D01*
X127501298Y-77928464D01*
X127938113Y-77636594D01*
X128309594Y-77265113D01*
X128601464Y-76828298D01*
X128657001Y-76694219D01*
X128729203Y-76782197D01*
X128957395Y-76969469D01*
X129217737Y-77108625D01*
X129500224Y-77194316D01*
X129794000Y-77223251D01*
X130087777Y-77194316D01*
X130370264Y-77108625D01*
X130630606Y-76969469D01*
X130858797Y-76782197D01*
X131046069Y-76554006D01*
X131064000Y-76520459D01*
X131081931Y-76554006D01*
X131269203Y-76782197D01*
X131497395Y-76969469D01*
X131757737Y-77108625D01*
X132040224Y-77194316D01*
X132334000Y-77223251D01*
X132627777Y-77194316D01*
X132910264Y-77108625D01*
X133170606Y-76969469D01*
X133398797Y-76782197D01*
X133586069Y-76554006D01*
X133604000Y-76520459D01*
X133621931Y-76554006D01*
X133809203Y-76782197D01*
X134037395Y-76969469D01*
X134297737Y-77108625D01*
X134580224Y-77194316D01*
X134874000Y-77223251D01*
X135167777Y-77194316D01*
X135450264Y-77108625D01*
X135710606Y-76969469D01*
X135938797Y-76782197D01*
X136126069Y-76554006D01*
X136147424Y-76514053D01*
X136295514Y-76716729D01*
X136511965Y-76915733D01*
X136763081Y-77068686D01*
X137039211Y-77169709D01*
X137054974Y-77172358D01*
X137287000Y-77051217D01*
X137287000Y-75692000D01*
X137267000Y-75692000D01*
X137267000Y-75438000D01*
X137287000Y-75438000D01*
X137287000Y-74078783D01*
X137541000Y-74078783D01*
X137541000Y-75438000D01*
X137561000Y-75438000D01*
X137561000Y-75692000D01*
X137541000Y-75692000D01*
X137541000Y-77051217D01*
X137773026Y-77172358D01*
X137788789Y-77169709D01*
X138064919Y-77068686D01*
X138316035Y-76915733D01*
X138532486Y-76716729D01*
X138680576Y-76514053D01*
X138701931Y-76554006D01*
X138889203Y-76782197D01*
X139117395Y-76969469D01*
X139377737Y-77108625D01*
X139660224Y-77194316D01*
X139954000Y-77223251D01*
X140247777Y-77194316D01*
X140530264Y-77108625D01*
X140790606Y-76969469D01*
X141018797Y-76782197D01*
X141206069Y-76554006D01*
X141224000Y-76520459D01*
X141241931Y-76554006D01*
X141429203Y-76782197D01*
X141657395Y-76969469D01*
X141917737Y-77108625D01*
X142200224Y-77194316D01*
X142494000Y-77223251D01*
X142787777Y-77194316D01*
X143070264Y-77108625D01*
X143330606Y-76969469D01*
X143558797Y-76782197D01*
X143746069Y-76554006D01*
X143764000Y-76520459D01*
X143781931Y-76554006D01*
X143969203Y-76782197D01*
X144197395Y-76969469D01*
X144457737Y-77108625D01*
X144740224Y-77194316D01*
X145034000Y-77223251D01*
X145327777Y-77194316D01*
X145610264Y-77108625D01*
X145870606Y-76969469D01*
X146098797Y-76782197D01*
X146286069Y-76554006D01*
X146304000Y-76520459D01*
X146321931Y-76554006D01*
X146509203Y-76782197D01*
X146737395Y-76969469D01*
X146997737Y-77108625D01*
X147280224Y-77194316D01*
X147574000Y-77223251D01*
X147867777Y-77194316D01*
X148150264Y-77108625D01*
X148410606Y-76969469D01*
X148638797Y-76782197D01*
X148826069Y-76554006D01*
X148844000Y-76520459D01*
X148861931Y-76554006D01*
X149049203Y-76782197D01*
X149277395Y-76969469D01*
X149537737Y-77108625D01*
X149820224Y-77194316D01*
X150114000Y-77223251D01*
X150407777Y-77194316D01*
X150690264Y-77108625D01*
X150950606Y-76969469D01*
X151178797Y-76782197D01*
X151366069Y-76554006D01*
X151384000Y-76520459D01*
X151401931Y-76554006D01*
X151589203Y-76782197D01*
X151817395Y-76969469D01*
X152077737Y-77108625D01*
X152360224Y-77194316D01*
X152654000Y-77223251D01*
X152947777Y-77194316D01*
X153230264Y-77108625D01*
X153490606Y-76969469D01*
X153718797Y-76782197D01*
X153906069Y-76554006D01*
X154045225Y-76293663D01*
X154130916Y-76011176D01*
X154152600Y-75791018D01*
X154152600Y-75338982D01*
X155219400Y-75338982D01*
X155219400Y-75791019D01*
X155241084Y-76011177D01*
X155326775Y-76293664D01*
X155465931Y-76554006D01*
X155653203Y-76782197D01*
X155881395Y-76969469D01*
X156141737Y-77108625D01*
X156424224Y-77194316D01*
X156718000Y-77223251D01*
X157011777Y-77194316D01*
X157294264Y-77108625D01*
X157554606Y-76969469D01*
X157782797Y-76782197D01*
X157970069Y-76554006D01*
X157988000Y-76520459D01*
X158005931Y-76554006D01*
X158193203Y-76782197D01*
X158421395Y-76969469D01*
X158681737Y-77108625D01*
X158964224Y-77194316D01*
X159258000Y-77223251D01*
X159551777Y-77194316D01*
X159834264Y-77108625D01*
X160094606Y-76969469D01*
X160322797Y-76782197D01*
X160510069Y-76554006D01*
X160528000Y-76520459D01*
X160545931Y-76554006D01*
X160733203Y-76782197D01*
X160961395Y-76969469D01*
X161221737Y-77108625D01*
X161504224Y-77194316D01*
X161798000Y-77223251D01*
X162091777Y-77194316D01*
X162374264Y-77108625D01*
X162634606Y-76969469D01*
X162862797Y-76782197D01*
X163050069Y-76554006D01*
X163068000Y-76520459D01*
X163085931Y-76554006D01*
X163273203Y-76782197D01*
X163501395Y-76969469D01*
X163761737Y-77108625D01*
X164044224Y-77194316D01*
X164338000Y-77223251D01*
X164631777Y-77194316D01*
X164914264Y-77108625D01*
X165174606Y-76969469D01*
X165402797Y-76782197D01*
X165590069Y-76554006D01*
X165608000Y-76520459D01*
X165625931Y-76554006D01*
X165813203Y-76782197D01*
X166041395Y-76969469D01*
X166301737Y-77108625D01*
X166584224Y-77194316D01*
X166878000Y-77223251D01*
X167171777Y-77194316D01*
X167454264Y-77108625D01*
X167714606Y-76969469D01*
X167942797Y-76782197D01*
X168130069Y-76554006D01*
X168148000Y-76520459D01*
X168165931Y-76554006D01*
X168353203Y-76782197D01*
X168581395Y-76969469D01*
X168841737Y-77108625D01*
X169124224Y-77194316D01*
X169418000Y-77223251D01*
X169711777Y-77194316D01*
X169994264Y-77108625D01*
X170254606Y-76969469D01*
X170482797Y-76782197D01*
X170670069Y-76554006D01*
X170688000Y-76520459D01*
X170705931Y-76554006D01*
X170893203Y-76782197D01*
X171121395Y-76969469D01*
X171381737Y-77108625D01*
X171664224Y-77194316D01*
X171958000Y-77223251D01*
X172251777Y-77194316D01*
X172534264Y-77108625D01*
X172794606Y-76969469D01*
X173022797Y-76782197D01*
X173210069Y-76554006D01*
X173228000Y-76520459D01*
X173245931Y-76554006D01*
X173433203Y-76782197D01*
X173661395Y-76969469D01*
X173921737Y-77108625D01*
X174204224Y-77194316D01*
X174498000Y-77223251D01*
X174791777Y-77194316D01*
X175074264Y-77108625D01*
X175334606Y-76969469D01*
X175562797Y-76782197D01*
X175750069Y-76554006D01*
X175889225Y-76293663D01*
X175974916Y-76011176D01*
X175996600Y-75791018D01*
X175996600Y-75338981D01*
X175974916Y-75118823D01*
X175889225Y-74836336D01*
X175750069Y-74575994D01*
X175562797Y-74347803D01*
X175334605Y-74160531D01*
X175074263Y-74021375D01*
X174791776Y-73935684D01*
X174498000Y-73906749D01*
X174204223Y-73935684D01*
X173921736Y-74021375D01*
X173661394Y-74160531D01*
X173433203Y-74347803D01*
X173245931Y-74575995D01*
X173228000Y-74609541D01*
X173210069Y-74575994D01*
X173022797Y-74347803D01*
X172794605Y-74160531D01*
X172534263Y-74021375D01*
X172251776Y-73935684D01*
X171958000Y-73906749D01*
X171664223Y-73935684D01*
X171381736Y-74021375D01*
X171121394Y-74160531D01*
X170893203Y-74347803D01*
X170705931Y-74575995D01*
X170688000Y-74609541D01*
X170670069Y-74575994D01*
X170482797Y-74347803D01*
X170254605Y-74160531D01*
X169994263Y-74021375D01*
X169711776Y-73935684D01*
X169418000Y-73906749D01*
X169124223Y-73935684D01*
X168841736Y-74021375D01*
X168581394Y-74160531D01*
X168353203Y-74347803D01*
X168165931Y-74575995D01*
X168148000Y-74609541D01*
X168130069Y-74575994D01*
X167942797Y-74347803D01*
X167714605Y-74160531D01*
X167454263Y-74021375D01*
X167171776Y-73935684D01*
X166878000Y-73906749D01*
X166584223Y-73935684D01*
X166301736Y-74021375D01*
X166041394Y-74160531D01*
X165813203Y-74347803D01*
X165625931Y-74575995D01*
X165608000Y-74609541D01*
X165590069Y-74575994D01*
X165402797Y-74347803D01*
X165174605Y-74160531D01*
X164914263Y-74021375D01*
X164631776Y-73935684D01*
X164338000Y-73906749D01*
X164044223Y-73935684D01*
X163761736Y-74021375D01*
X163501394Y-74160531D01*
X163273203Y-74347803D01*
X163085931Y-74575995D01*
X163068000Y-74609541D01*
X163050069Y-74575994D01*
X162862797Y-74347803D01*
X162634605Y-74160531D01*
X162374263Y-74021375D01*
X162091776Y-73935684D01*
X161798000Y-73906749D01*
X161504223Y-73935684D01*
X161221736Y-74021375D01*
X160961394Y-74160531D01*
X160733203Y-74347803D01*
X160545931Y-74575995D01*
X160528000Y-74609541D01*
X160510069Y-74575994D01*
X160322797Y-74347803D01*
X160094605Y-74160531D01*
X159834263Y-74021375D01*
X159551776Y-73935684D01*
X159258000Y-73906749D01*
X158964223Y-73935684D01*
X158681736Y-74021375D01*
X158421394Y-74160531D01*
X158193203Y-74347803D01*
X158005931Y-74575995D01*
X157988000Y-74609541D01*
X157970069Y-74575994D01*
X157782797Y-74347803D01*
X157554605Y-74160531D01*
X157294263Y-74021375D01*
X157011776Y-73935684D01*
X156718000Y-73906749D01*
X156424223Y-73935684D01*
X156141736Y-74021375D01*
X155881394Y-74160531D01*
X155653203Y-74347803D01*
X155465931Y-74575995D01*
X155326775Y-74836337D01*
X155241084Y-75118824D01*
X155219400Y-75338982D01*
X154152600Y-75338982D01*
X154152600Y-75338981D01*
X154130916Y-75118823D01*
X154045225Y-74836336D01*
X153906069Y-74575994D01*
X153718797Y-74347803D01*
X153490605Y-74160531D01*
X153230263Y-74021375D01*
X152947776Y-73935684D01*
X152654000Y-73906749D01*
X152360223Y-73935684D01*
X152077736Y-74021375D01*
X151817394Y-74160531D01*
X151589203Y-74347803D01*
X151401931Y-74575995D01*
X151384000Y-74609541D01*
X151366069Y-74575994D01*
X151178797Y-74347803D01*
X150950605Y-74160531D01*
X150690263Y-74021375D01*
X150407776Y-73935684D01*
X150114000Y-73906749D01*
X149820223Y-73935684D01*
X149537736Y-74021375D01*
X149277394Y-74160531D01*
X149049203Y-74347803D01*
X148861931Y-74575995D01*
X148844000Y-74609541D01*
X148826069Y-74575994D01*
X148638797Y-74347803D01*
X148410605Y-74160531D01*
X148150263Y-74021375D01*
X147867776Y-73935684D01*
X147574000Y-73906749D01*
X147280223Y-73935684D01*
X146997736Y-74021375D01*
X146737394Y-74160531D01*
X146509203Y-74347803D01*
X146321931Y-74575995D01*
X146304000Y-74609541D01*
X146286069Y-74575994D01*
X146098797Y-74347803D01*
X145870605Y-74160531D01*
X145610263Y-74021375D01*
X145327776Y-73935684D01*
X145034000Y-73906749D01*
X144740223Y-73935684D01*
X144457736Y-74021375D01*
X144197394Y-74160531D01*
X143969203Y-74347803D01*
X143781931Y-74575995D01*
X143764000Y-74609541D01*
X143746069Y-74575994D01*
X143558797Y-74347803D01*
X143330605Y-74160531D01*
X143070263Y-74021375D01*
X142787776Y-73935684D01*
X142494000Y-73906749D01*
X142200223Y-73935684D01*
X141917736Y-74021375D01*
X141657394Y-74160531D01*
X141429203Y-74347803D01*
X141241931Y-74575995D01*
X141224000Y-74609541D01*
X141206069Y-74575994D01*
X141018797Y-74347803D01*
X140790605Y-74160531D01*
X140530263Y-74021375D01*
X140247776Y-73935684D01*
X139954000Y-73906749D01*
X139660223Y-73935684D01*
X139377736Y-74021375D01*
X139117394Y-74160531D01*
X138889203Y-74347803D01*
X138701931Y-74575995D01*
X138680576Y-74615947D01*
X138532486Y-74413271D01*
X138316035Y-74214267D01*
X138064919Y-74061314D01*
X137788789Y-73960291D01*
X137773026Y-73957642D01*
X137541000Y-74078783D01*
X137287000Y-74078783D01*
X137054974Y-73957642D01*
X137039211Y-73960291D01*
X136763081Y-74061314D01*
X136511965Y-74214267D01*
X136295514Y-74413271D01*
X136147424Y-74615947D01*
X136126069Y-74575994D01*
X135938797Y-74347803D01*
X135710605Y-74160531D01*
X135450263Y-74021375D01*
X135167776Y-73935684D01*
X134874000Y-73906749D01*
X134580223Y-73935684D01*
X134297736Y-74021375D01*
X134037394Y-74160531D01*
X133809203Y-74347803D01*
X133621931Y-74575995D01*
X133604000Y-74609541D01*
X133586069Y-74575994D01*
X133398797Y-74347803D01*
X133170605Y-74160531D01*
X132910263Y-74021375D01*
X132627776Y-73935684D01*
X132334000Y-73906749D01*
X132040223Y-73935684D01*
X131757736Y-74021375D01*
X131497394Y-74160531D01*
X131269203Y-74347803D01*
X131081931Y-74575995D01*
X131064000Y-74609541D01*
X131046069Y-74575994D01*
X130858797Y-74347803D01*
X130630605Y-74160531D01*
X130370263Y-74021375D01*
X130087776Y-73935684D01*
X129794000Y-73906749D01*
X129500223Y-73935684D01*
X129217736Y-74021375D01*
X128957394Y-74160531D01*
X128729203Y-74347803D01*
X128657001Y-74435781D01*
X128601464Y-74301702D01*
X128309594Y-73864887D01*
X128231707Y-73787000D01*
X175080394Y-73787000D01*
X176276000Y-74982606D01*
X176276000Y-86360000D01*
X176278440Y-86384776D01*
X176285667Y-86408601D01*
X176297403Y-86430557D01*
X176313197Y-86449803D01*
X178312244Y-88448850D01*
X178301298Y-88441536D01*
X177815935Y-88240492D01*
X177300677Y-88138000D01*
X176775323Y-88138000D01*
X176260065Y-88240492D01*
X175774702Y-88441536D01*
X175337887Y-88733406D01*
X174966406Y-89104887D01*
X174674536Y-89541702D01*
X174473492Y-90027065D01*
X174371000Y-90542323D01*
X174371000Y-91067677D01*
X174473492Y-91582935D01*
X174674536Y-92068298D01*
X174966406Y-92505113D01*
X175337887Y-92876594D01*
X175774702Y-93168464D01*
X176260065Y-93369508D01*
X176358249Y-93389038D01*
X176147465Y-93529880D01*
X175952880Y-93724465D01*
X175799995Y-93953273D01*
X175768000Y-94030515D01*
X175736005Y-93953273D01*
X175583120Y-93724465D01*
X175388535Y-93529880D01*
X175159727Y-93376995D01*
X174905490Y-93271686D01*
X174635592Y-93218000D01*
X174360408Y-93218000D01*
X174090510Y-93271686D01*
X173836273Y-93376995D01*
X173607465Y-93529880D01*
X173412880Y-93724465D01*
X173259995Y-93953273D01*
X173228000Y-94030515D01*
X173196005Y-93953273D01*
X173043120Y-93724465D01*
X172848535Y-93529880D01*
X172619727Y-93376995D01*
X172365490Y-93271686D01*
X172095592Y-93218000D01*
X171820408Y-93218000D01*
X171550510Y-93271686D01*
X171296273Y-93376995D01*
X171067465Y-93529880D01*
X170872880Y-93724465D01*
X170719995Y-93953273D01*
X170688000Y-94030515D01*
X170656005Y-93953273D01*
X170503120Y-93724465D01*
X170308535Y-93529880D01*
X170079727Y-93376995D01*
X169825490Y-93271686D01*
X169555592Y-93218000D01*
X169280408Y-93218000D01*
X169010510Y-93271686D01*
X168756273Y-93376995D01*
X168527465Y-93529880D01*
X168332880Y-93724465D01*
X168179995Y-93953273D01*
X168148000Y-94030515D01*
X168116005Y-93953273D01*
X167963120Y-93724465D01*
X167768535Y-93529880D01*
X167539727Y-93376995D01*
X167285490Y-93271686D01*
X167015592Y-93218000D01*
X166740408Y-93218000D01*
X166470510Y-93271686D01*
X166216273Y-93376995D01*
X165987465Y-93529880D01*
X165792880Y-93724465D01*
X165639995Y-93953273D01*
X165608000Y-94030515D01*
X165576005Y-93953273D01*
X165423120Y-93724465D01*
X165228535Y-93529880D01*
X164999727Y-93376995D01*
X164745490Y-93271686D01*
X164475592Y-93218000D01*
X164200408Y-93218000D01*
X163930510Y-93271686D01*
X163676273Y-93376995D01*
X163447465Y-93529880D01*
X163252880Y-93724465D01*
X163099995Y-93953273D01*
X163068000Y-94030515D01*
X163036005Y-93953273D01*
X162883120Y-93724465D01*
X162688535Y-93529880D01*
X162459727Y-93376995D01*
X162205490Y-93271686D01*
X161935592Y-93218000D01*
X161660408Y-93218000D01*
X161390510Y-93271686D01*
X161288000Y-93314147D01*
X161288000Y-86270535D01*
X161356586Y-86167889D01*
X161427068Y-85997729D01*
X161463000Y-85817089D01*
X161463000Y-85632911D01*
X161427068Y-85452271D01*
X161356586Y-85282111D01*
X161254262Y-85128972D01*
X161124028Y-84998738D01*
X160970889Y-84896414D01*
X160800729Y-84825932D01*
X160620089Y-84790000D01*
X160435911Y-84790000D01*
X160255271Y-84825932D01*
X160085111Y-84896414D01*
X159931972Y-84998738D01*
X159801738Y-85128972D01*
X159699414Y-85282111D01*
X159628932Y-85452271D01*
X159593000Y-85632911D01*
X159593000Y-85817089D01*
X159628932Y-85997729D01*
X159699414Y-86167889D01*
X159768001Y-86270537D01*
X159768000Y-93314147D01*
X159665490Y-93271686D01*
X159395592Y-93218000D01*
X159120408Y-93218000D01*
X158850510Y-93271686D01*
X158748000Y-93314147D01*
X158748000Y-86270535D01*
X158816586Y-86167889D01*
X158887068Y-85997729D01*
X158923000Y-85817089D01*
X158923000Y-85632911D01*
X158887068Y-85452271D01*
X158816586Y-85282111D01*
X158714262Y-85128972D01*
X158584028Y-84998738D01*
X158430889Y-84896414D01*
X158260729Y-84825932D01*
X158080089Y-84790000D01*
X157895911Y-84790000D01*
X157715271Y-84825932D01*
X157545111Y-84896414D01*
X157391972Y-84998738D01*
X157261738Y-85128972D01*
X157159414Y-85282111D01*
X157088932Y-85452271D01*
X157053000Y-85632911D01*
X157053000Y-85817089D01*
X157088932Y-85997729D01*
X157159414Y-86167889D01*
X157228001Y-86270537D01*
X157228000Y-93314147D01*
X157125490Y-93271686D01*
X156855592Y-93218000D01*
X156580408Y-93218000D01*
X156310510Y-93271686D01*
X156208000Y-93314147D01*
X156208000Y-86270535D01*
X156276586Y-86167889D01*
X156347068Y-85997729D01*
X156383000Y-85817089D01*
X156383000Y-85632911D01*
X156347068Y-85452271D01*
X156276586Y-85282111D01*
X156174262Y-85128972D01*
X156044028Y-84998738D01*
X155890889Y-84896414D01*
X155720729Y-84825932D01*
X155540089Y-84790000D01*
X155355911Y-84790000D01*
X155175271Y-84825932D01*
X155005111Y-84896414D01*
X154851972Y-84998738D01*
X154721738Y-85128972D01*
X154619414Y-85282111D01*
X154548932Y-85452271D01*
X154513000Y-85632911D01*
X154513000Y-85817089D01*
X154548932Y-85997729D01*
X154619414Y-86167889D01*
X154688001Y-86270537D01*
X154688001Y-93314147D01*
X154585490Y-93271686D01*
X154315592Y-93218000D01*
X154040408Y-93218000D01*
X153770510Y-93271686D01*
X153668000Y-93314147D01*
X153668000Y-86270535D01*
X153736586Y-86167889D01*
X153807068Y-85997729D01*
X153843000Y-85817089D01*
X153843000Y-85632911D01*
X153807068Y-85452271D01*
X153736586Y-85282111D01*
X153634262Y-85128972D01*
X153504028Y-84998738D01*
X153350889Y-84896414D01*
X153180729Y-84825932D01*
X153000089Y-84790000D01*
X152815911Y-84790000D01*
X152635271Y-84825932D01*
X152465111Y-84896414D01*
X152311972Y-84998738D01*
X152181738Y-85128972D01*
X152079414Y-85282111D01*
X152008932Y-85452271D01*
X151973000Y-85632911D01*
X151973000Y-85817089D01*
X152008932Y-85997729D01*
X152079414Y-86167889D01*
X152148001Y-86270537D01*
X152148001Y-93314147D01*
X152045490Y-93271686D01*
X151775592Y-93218000D01*
X151500408Y-93218000D01*
X151230510Y-93271686D01*
X150976273Y-93376995D01*
X150747465Y-93529880D01*
X150552880Y-93724465D01*
X150399995Y-93953273D01*
X150368000Y-94030515D01*
X150336005Y-93953273D01*
X150183120Y-93724465D01*
X149988535Y-93529880D01*
X149759727Y-93376995D01*
X149505490Y-93271686D01*
X149235592Y-93218000D01*
X148960408Y-93218000D01*
X148690510Y-93271686D01*
X148436273Y-93376995D01*
X148207465Y-93529880D01*
X148012880Y-93724465D01*
X147859995Y-93953273D01*
X147828000Y-94030515D01*
X147796005Y-93953273D01*
X147643120Y-93724465D01*
X147448535Y-93529880D01*
X147219727Y-93376995D01*
X146965490Y-93271686D01*
X146695592Y-93218000D01*
X146420408Y-93218000D01*
X146150510Y-93271686D01*
X145896273Y-93376995D01*
X145667465Y-93529880D01*
X145472880Y-93724465D01*
X145319995Y-93953273D01*
X145288000Y-94030515D01*
X145256005Y-93953273D01*
X145103120Y-93724465D01*
X144908535Y-93529880D01*
X144679727Y-93376995D01*
X144425490Y-93271686D01*
X144155592Y-93218000D01*
X143880408Y-93218000D01*
X143610510Y-93271686D01*
X143356273Y-93376995D01*
X143127465Y-93529880D01*
X142932880Y-93724465D01*
X142779995Y-93953273D01*
X142674686Y-94207510D01*
X142621000Y-94477408D01*
X142621000Y-94752592D01*
X142674686Y-95022490D01*
X142779995Y-95276727D01*
X142932880Y-95505535D01*
X143127465Y-95700120D01*
X143258001Y-95787341D01*
X143258000Y-96206580D01*
X143161377Y-96285877D01*
X143052488Y-96418558D01*
X142971577Y-96569933D01*
X142921752Y-96734184D01*
X142904928Y-96905000D01*
X142904928Y-97405000D01*
X142921752Y-97575816D01*
X142971577Y-97740067D01*
X143052488Y-97891442D01*
X143141812Y-98000283D01*
X143091815Y-98041315D01*
X143012463Y-98138006D01*
X142953498Y-98248320D01*
X142917188Y-98368018D01*
X142904928Y-98492500D01*
X142908000Y-98694250D01*
X143066750Y-98853000D01*
X143891000Y-98853000D01*
X143891000Y-98833000D01*
X144145000Y-98833000D01*
X144145000Y-98853000D01*
X144969250Y-98853000D01*
X145128000Y-98694250D01*
X145131072Y-98492500D01*
X145118812Y-98368018D01*
X145082502Y-98248320D01*
X145023537Y-98138006D01*
X144944185Y-98041315D01*
X144894188Y-98000283D01*
X144983512Y-97891442D01*
X145064423Y-97740067D01*
X145114248Y-97575816D01*
X145131072Y-97405000D01*
X145131072Y-96905000D01*
X145114248Y-96734184D01*
X145064423Y-96569933D01*
X144983512Y-96418558D01*
X144874623Y-96285877D01*
X144778000Y-96206580D01*
X144778000Y-95787341D01*
X144908535Y-95700120D01*
X145103120Y-95505535D01*
X145256005Y-95276727D01*
X145288000Y-95199485D01*
X145319995Y-95276727D01*
X145472880Y-95505535D01*
X145667465Y-95700120D01*
X145896273Y-95853005D01*
X146150510Y-95958314D01*
X146420408Y-96012000D01*
X146695592Y-96012000D01*
X146965490Y-95958314D01*
X147219727Y-95853005D01*
X147448535Y-95700120D01*
X147643120Y-95505535D01*
X147796005Y-95276727D01*
X147828000Y-95199485D01*
X147859995Y-95276727D01*
X148012880Y-95505535D01*
X148207465Y-95700120D01*
X148338001Y-95787341D01*
X148338000Y-96206580D01*
X148241377Y-96285877D01*
X148132488Y-96418558D01*
X148051577Y-96569933D01*
X148001752Y-96734184D01*
X147984928Y-96905000D01*
X147984928Y-97405000D01*
X148001752Y-97575816D01*
X148051577Y-97740067D01*
X148132488Y-97891442D01*
X148221812Y-98000283D01*
X148171815Y-98041315D01*
X148092463Y-98138006D01*
X148033498Y-98248320D01*
X147997188Y-98368018D01*
X147984928Y-98492500D01*
X147988000Y-98694250D01*
X148146750Y-98853000D01*
X148971000Y-98853000D01*
X148971000Y-98833000D01*
X149225000Y-98833000D01*
X149225000Y-98853000D01*
X150049250Y-98853000D01*
X150208000Y-98694250D01*
X150211072Y-98492500D01*
X150198812Y-98368018D01*
X150162502Y-98248320D01*
X150103537Y-98138006D01*
X150024185Y-98041315D01*
X149974188Y-98000283D01*
X150063512Y-97891442D01*
X150144423Y-97740067D01*
X150194248Y-97575816D01*
X150211072Y-97405000D01*
X150211072Y-96905000D01*
X150194248Y-96734184D01*
X150144423Y-96569933D01*
X150063512Y-96418558D01*
X149954623Y-96285877D01*
X149858000Y-96206580D01*
X149858000Y-95787341D01*
X149988535Y-95700120D01*
X150183120Y-95505535D01*
X150336005Y-95276727D01*
X150368000Y-95199485D01*
X150399995Y-95276727D01*
X150552880Y-95505535D01*
X150747465Y-95700120D01*
X150878001Y-95787341D01*
X150878000Y-96206580D01*
X150781377Y-96285877D01*
X150672488Y-96418558D01*
X150591577Y-96569933D01*
X150541752Y-96734184D01*
X150524928Y-96905000D01*
X150524928Y-97405000D01*
X150541752Y-97575816D01*
X150591577Y-97740067D01*
X150672488Y-97891442D01*
X150761812Y-98000283D01*
X150711815Y-98041315D01*
X150632463Y-98138006D01*
X150573498Y-98248320D01*
X150537188Y-98368018D01*
X150524928Y-98492500D01*
X150528000Y-98694250D01*
X150686750Y-98853000D01*
X151511000Y-98853000D01*
X151511000Y-98833000D01*
X151765000Y-98833000D01*
X151765000Y-98853000D01*
X151785000Y-98853000D01*
X151785000Y-99107000D01*
X151765000Y-99107000D01*
X151765000Y-99943750D01*
X151923750Y-100102500D01*
X152113000Y-100105572D01*
X152148000Y-100102125D01*
X152148000Y-101437678D01*
X152144324Y-101475000D01*
X152148000Y-101512322D01*
X152148000Y-101512332D01*
X152158997Y-101623985D01*
X152191806Y-101732143D01*
X152202454Y-101767246D01*
X152273026Y-101899276D01*
X152300500Y-101932753D01*
X152367999Y-102015001D01*
X152397003Y-102038804D01*
X153384847Y-103026649D01*
X153408932Y-103147729D01*
X153479414Y-103317889D01*
X153581738Y-103471028D01*
X153711972Y-103601262D01*
X153865111Y-103703586D01*
X154035271Y-103774068D01*
X154215911Y-103810000D01*
X154400089Y-103810000D01*
X154580729Y-103774068D01*
X154750889Y-103703586D01*
X154904028Y-103601262D01*
X155034262Y-103471028D01*
X155136586Y-103317889D01*
X155207068Y-103147729D01*
X155243000Y-102967089D01*
X155243000Y-102782911D01*
X155207068Y-102602271D01*
X155136586Y-102432111D01*
X155034262Y-102278972D01*
X154904028Y-102148738D01*
X154750889Y-102046414D01*
X154580729Y-101975932D01*
X154459649Y-101951847D01*
X153668000Y-101160199D01*
X153668000Y-100102125D01*
X153703000Y-100105572D01*
X153892250Y-100102500D01*
X154051000Y-99943750D01*
X154051000Y-99107000D01*
X154031000Y-99107000D01*
X154031000Y-98853000D01*
X154051000Y-98853000D01*
X154051000Y-98833000D01*
X154305000Y-98833000D01*
X154305000Y-98853000D01*
X154325000Y-98853000D01*
X154325000Y-99107000D01*
X154305000Y-99107000D01*
X154305000Y-99943750D01*
X154463750Y-100102500D01*
X154653000Y-100105572D01*
X154688000Y-100102125D01*
X154688000Y-101525571D01*
X154684708Y-101550769D01*
X154688000Y-101600245D01*
X154688000Y-101612332D01*
X154690479Y-101637498D01*
X154694647Y-101700145D01*
X154697805Y-101711885D01*
X154698997Y-101723985D01*
X154717227Y-101784082D01*
X154733537Y-101844712D01*
X154738924Y-101855608D01*
X154742454Y-101867246D01*
X154772064Y-101922641D01*
X154799884Y-101978914D01*
X154807294Y-101988551D01*
X154813026Y-101999275D01*
X154852865Y-102047819D01*
X154868271Y-102067856D01*
X154876537Y-102076664D01*
X154907999Y-102115001D01*
X154927647Y-102131126D01*
X155486544Y-102726674D01*
X155517999Y-102765001D01*
X155566532Y-102804831D01*
X155613789Y-102846191D01*
X155624324Y-102852259D01*
X155633724Y-102859974D01*
X155689112Y-102889580D01*
X155743513Y-102920917D01*
X155755027Y-102924813D01*
X155765753Y-102930546D01*
X155825857Y-102948778D01*
X155885322Y-102968898D01*
X155897376Y-102970473D01*
X155909014Y-102974003D01*
X155971535Y-102980161D01*
X156033768Y-102988291D01*
X156083229Y-102985000D01*
X156362465Y-102985000D01*
X156465111Y-103053586D01*
X156635271Y-103124068D01*
X156815911Y-103160000D01*
X157000089Y-103160000D01*
X157180729Y-103124068D01*
X157350889Y-103053586D01*
X157504028Y-102951262D01*
X157634262Y-102821028D01*
X157736586Y-102667889D01*
X157807068Y-102497729D01*
X157843000Y-102317089D01*
X157843000Y-102132911D01*
X157807068Y-101952271D01*
X157736586Y-101782111D01*
X157634262Y-101628972D01*
X157504028Y-101498738D01*
X157350889Y-101396414D01*
X157180729Y-101325932D01*
X157000089Y-101290000D01*
X156815911Y-101290000D01*
X156635271Y-101325932D01*
X156465111Y-101396414D01*
X156377560Y-101454914D01*
X156208000Y-101274236D01*
X156208000Y-100102125D01*
X156243000Y-100105572D01*
X156432250Y-100102500D01*
X156591000Y-99943750D01*
X156591000Y-99107000D01*
X156571000Y-99107000D01*
X156571000Y-98853000D01*
X156591000Y-98853000D01*
X156591000Y-98833000D01*
X156845000Y-98833000D01*
X156845000Y-98853000D01*
X156865000Y-98853000D01*
X156865000Y-99107000D01*
X156845000Y-99107000D01*
X156845000Y-99943750D01*
X157003750Y-100102500D01*
X157193000Y-100105572D01*
X157228000Y-100102125D01*
X157228000Y-100392676D01*
X157224324Y-100429998D01*
X157228000Y-100467320D01*
X157228000Y-100467330D01*
X157238997Y-100578983D01*
X157265090Y-100665000D01*
X157282454Y-100722244D01*
X157353026Y-100854274D01*
X157392871Y-100902824D01*
X157447999Y-100969999D01*
X157477003Y-100993802D01*
X158773901Y-102290701D01*
X158679415Y-102432110D01*
X158608933Y-102602270D01*
X158573001Y-102782910D01*
X158573001Y-102967088D01*
X158608933Y-103147728D01*
X158679415Y-103317888D01*
X158781739Y-103471027D01*
X158911973Y-103601261D01*
X159065112Y-103703585D01*
X159235272Y-103774067D01*
X159415912Y-103809999D01*
X159600090Y-103809999D01*
X159780730Y-103774067D01*
X159950890Y-103703585D01*
X160104029Y-103601261D01*
X160234263Y-103471027D01*
X160336587Y-103317888D01*
X160407069Y-103147728D01*
X160443001Y-102967088D01*
X160443001Y-102782910D01*
X160407069Y-102602270D01*
X160336587Y-102432110D01*
X160297550Y-102373686D01*
X160315383Y-102058181D01*
X160321164Y-101999485D01*
X160315931Y-101946359D01*
X160313705Y-101893007D01*
X160308608Y-101872001D01*
X160306490Y-101850499D01*
X160290994Y-101799413D01*
X160278402Y-101747522D01*
X160269308Y-101727922D01*
X160263034Y-101707239D01*
X160237858Y-101660139D01*
X160215393Y-101611721D01*
X160202651Y-101594273D01*
X160192461Y-101575209D01*
X160158579Y-101533923D01*
X160127102Y-101490821D01*
X160083706Y-101450902D01*
X158748000Y-100115197D01*
X158748000Y-100102125D01*
X158783000Y-100105572D01*
X158972250Y-100102500D01*
X159131000Y-99943750D01*
X159131000Y-99107000D01*
X159385000Y-99107000D01*
X159385000Y-99943750D01*
X159543750Y-100102500D01*
X159733000Y-100105572D01*
X159857482Y-100093312D01*
X159977180Y-100057002D01*
X160087494Y-99998037D01*
X160184185Y-99918685D01*
X160263537Y-99821994D01*
X160322502Y-99711680D01*
X160358812Y-99591982D01*
X160371072Y-99467500D01*
X160684928Y-99467500D01*
X160697188Y-99591982D01*
X160733498Y-99711680D01*
X160792463Y-99821994D01*
X160871815Y-99918685D01*
X160968506Y-99998037D01*
X161078820Y-100057002D01*
X161198518Y-100093312D01*
X161323000Y-100105572D01*
X161512250Y-100102500D01*
X161671000Y-99943750D01*
X161671000Y-99107000D01*
X161925000Y-99107000D01*
X161925000Y-99943750D01*
X162083750Y-100102500D01*
X162273000Y-100105572D01*
X162397482Y-100093312D01*
X162517180Y-100057002D01*
X162627494Y-99998037D01*
X162724185Y-99918685D01*
X162803537Y-99821994D01*
X162862502Y-99711680D01*
X162898812Y-99591982D01*
X162911072Y-99467500D01*
X162908000Y-99265750D01*
X162749250Y-99107000D01*
X161925000Y-99107000D01*
X161671000Y-99107000D01*
X160846750Y-99107000D01*
X160688000Y-99265750D01*
X160684928Y-99467500D01*
X160371072Y-99467500D01*
X160368000Y-99265750D01*
X160209250Y-99107000D01*
X159385000Y-99107000D01*
X159131000Y-99107000D01*
X159111000Y-99107000D01*
X159111000Y-98853000D01*
X159131000Y-98853000D01*
X159131000Y-98833000D01*
X159385000Y-98833000D01*
X159385000Y-98853000D01*
X160209250Y-98853000D01*
X160368000Y-98694250D01*
X160371072Y-98492500D01*
X160358812Y-98368018D01*
X160322502Y-98248320D01*
X160263537Y-98138006D01*
X160184185Y-98041315D01*
X160143120Y-98007614D01*
X160255271Y-98054068D01*
X160435911Y-98090000D01*
X160620089Y-98090000D01*
X160800729Y-98054068D01*
X160912880Y-98007614D01*
X160871815Y-98041315D01*
X160792463Y-98138006D01*
X160733498Y-98248320D01*
X160697188Y-98368018D01*
X160684928Y-98492500D01*
X160688000Y-98694250D01*
X160846750Y-98853000D01*
X161671000Y-98853000D01*
X161671000Y-98833000D01*
X161925000Y-98833000D01*
X161925000Y-98853000D01*
X162749250Y-98853000D01*
X162908000Y-98694250D01*
X162911072Y-98492500D01*
X162898812Y-98368018D01*
X162862502Y-98248320D01*
X162803537Y-98138006D01*
X162724185Y-98041315D01*
X162674188Y-98000283D01*
X162763512Y-97891442D01*
X162844423Y-97740067D01*
X162894248Y-97575816D01*
X162911072Y-97405000D01*
X162911072Y-96905000D01*
X162894248Y-96734184D01*
X162844423Y-96569933D01*
X162763512Y-96418558D01*
X162654623Y-96285877D01*
X162558000Y-96206580D01*
X162558000Y-95787341D01*
X162688535Y-95700120D01*
X162883120Y-95505535D01*
X163036005Y-95276727D01*
X163068000Y-95199485D01*
X163099995Y-95276727D01*
X163252880Y-95505535D01*
X163447465Y-95700120D01*
X163676273Y-95853005D01*
X163930510Y-95958314D01*
X164200408Y-96012000D01*
X164475592Y-96012000D01*
X164745490Y-95958314D01*
X164999727Y-95853005D01*
X165228535Y-95700120D01*
X165423120Y-95505535D01*
X165576005Y-95276727D01*
X165608000Y-95199485D01*
X165639995Y-95276727D01*
X165792880Y-95505535D01*
X165987465Y-95700120D01*
X166216273Y-95853005D01*
X166470510Y-95958314D01*
X166740408Y-96012000D01*
X167015592Y-96012000D01*
X167285490Y-95958314D01*
X167539727Y-95853005D01*
X167768535Y-95700120D01*
X167963120Y-95505535D01*
X168116005Y-95276727D01*
X168148000Y-95199485D01*
X168179995Y-95276727D01*
X168332880Y-95505535D01*
X168527465Y-95700120D01*
X168756273Y-95853005D01*
X169010510Y-95958314D01*
X169280408Y-96012000D01*
X169555592Y-96012000D01*
X169825490Y-95958314D01*
X170079727Y-95853005D01*
X170308535Y-95700120D01*
X170503120Y-95505535D01*
X170656005Y-95276727D01*
X170688000Y-95199485D01*
X170719995Y-95276727D01*
X170872880Y-95505535D01*
X171067465Y-95700120D01*
X171296273Y-95853005D01*
X171550510Y-95958314D01*
X171820408Y-96012000D01*
X172095592Y-96012000D01*
X172365490Y-95958314D01*
X172619727Y-95853005D01*
X172848535Y-95700120D01*
X173043120Y-95505535D01*
X173196005Y-95276727D01*
X173228000Y-95199485D01*
X173259995Y-95276727D01*
X173412880Y-95505535D01*
X173607465Y-95700120D01*
X173836273Y-95853005D01*
X174090510Y-95958314D01*
X174360408Y-96012000D01*
X174635592Y-96012000D01*
X174905490Y-95958314D01*
X175159727Y-95853005D01*
X175388535Y-95700120D01*
X175583120Y-95505535D01*
X175736005Y-95276727D01*
X175768000Y-95199485D01*
X175799995Y-95276727D01*
X175952880Y-95505535D01*
X176147465Y-95700120D01*
X176376273Y-95853005D01*
X176630510Y-95958314D01*
X176900408Y-96012000D01*
X177175592Y-96012000D01*
X177445490Y-95958314D01*
X177699727Y-95853005D01*
X177928535Y-95700120D01*
X178123120Y-95505535D01*
X178276005Y-95276727D01*
X178381314Y-95022490D01*
X178435000Y-94752592D01*
X178435000Y-94477408D01*
X178381314Y-94207510D01*
X178276005Y-93953273D01*
X178123120Y-93724465D01*
X177928535Y-93529880D01*
X177717751Y-93389038D01*
X177815935Y-93369508D01*
X178301298Y-93168464D01*
X178738113Y-92876594D01*
X178816000Y-92798707D01*
X178816000Y-116751293D01*
X178738113Y-116673406D01*
X178301298Y-116381536D01*
X177815935Y-116180492D01*
X177300677Y-116078000D01*
X176775323Y-116078000D01*
X176260065Y-116180492D01*
X175774702Y-116381536D01*
X175337887Y-116673406D01*
X174966406Y-117044887D01*
X174674536Y-117481702D01*
X174473492Y-117967065D01*
X174371000Y-118482323D01*
X174371000Y-119007677D01*
X174473492Y-119522935D01*
X174674536Y-120008298D01*
X174966406Y-120445113D01*
X175337887Y-120816594D01*
X175774702Y-121108464D01*
X176260065Y-121309508D01*
X176775323Y-121412000D01*
X177300677Y-121412000D01*
X177815935Y-121309508D01*
X178301298Y-121108464D01*
X178738113Y-120816594D01*
X178816000Y-120738707D01*
X178816000Y-121042908D01*
X176560617Y-123298292D01*
X176533526Y-123320525D01*
X176511293Y-123347616D01*
X176444801Y-123428637D01*
X176378872Y-123551981D01*
X176338274Y-123685816D01*
X176335619Y-123712775D01*
X176313197Y-123735197D01*
X176297403Y-123754443D01*
X176285667Y-123776399D01*
X176278440Y-123800224D01*
X176276000Y-123825000D01*
X176276000Y-125603000D01*
X126961707Y-125603000D01*
X127039594Y-125525113D01*
X127331464Y-125088298D01*
X127532508Y-124602935D01*
X127635000Y-124087677D01*
X127635000Y-123598982D01*
X137439400Y-123598982D01*
X137439400Y-124051019D01*
X137461084Y-124271177D01*
X137546775Y-124553664D01*
X137685931Y-124814006D01*
X137873203Y-125042197D01*
X138101395Y-125229469D01*
X138361737Y-125368625D01*
X138644224Y-125454316D01*
X138938000Y-125483251D01*
X139231777Y-125454316D01*
X139514264Y-125368625D01*
X139774606Y-125229469D01*
X140002797Y-125042197D01*
X140190069Y-124814006D01*
X140208000Y-124780459D01*
X140225931Y-124814006D01*
X140413203Y-125042197D01*
X140641395Y-125229469D01*
X140901737Y-125368625D01*
X141184224Y-125454316D01*
X141478000Y-125483251D01*
X141771777Y-125454316D01*
X142054264Y-125368625D01*
X142314606Y-125229469D01*
X142542797Y-125042197D01*
X142730069Y-124814006D01*
X142748000Y-124780459D01*
X142765931Y-124814006D01*
X142953203Y-125042197D01*
X143181395Y-125229469D01*
X143441737Y-125368625D01*
X143724224Y-125454316D01*
X144018000Y-125483251D01*
X144311777Y-125454316D01*
X144594264Y-125368625D01*
X144854606Y-125229469D01*
X145082797Y-125042197D01*
X145270069Y-124814006D01*
X145288000Y-124780459D01*
X145305931Y-124814006D01*
X145493203Y-125042197D01*
X145721395Y-125229469D01*
X145981737Y-125368625D01*
X146264224Y-125454316D01*
X146558000Y-125483251D01*
X146851777Y-125454316D01*
X147134264Y-125368625D01*
X147394606Y-125229469D01*
X147622797Y-125042197D01*
X147810069Y-124814006D01*
X147828000Y-124780459D01*
X147845931Y-124814006D01*
X148033203Y-125042197D01*
X148261395Y-125229469D01*
X148521737Y-125368625D01*
X148804224Y-125454316D01*
X149098000Y-125483251D01*
X149391777Y-125454316D01*
X149674264Y-125368625D01*
X149934606Y-125229469D01*
X150162797Y-125042197D01*
X150350069Y-124814006D01*
X150371424Y-124774053D01*
X150519514Y-124976729D01*
X150735965Y-125175733D01*
X150987081Y-125328686D01*
X151263211Y-125429709D01*
X151278974Y-125432358D01*
X151511000Y-125311217D01*
X151511000Y-123952000D01*
X151765000Y-123952000D01*
X151765000Y-125311217D01*
X151997026Y-125432358D01*
X152012789Y-125429709D01*
X152288919Y-125328686D01*
X152540035Y-125175733D01*
X152756486Y-124976729D01*
X152908000Y-124769367D01*
X153059514Y-124976729D01*
X153275965Y-125175733D01*
X153527081Y-125328686D01*
X153803211Y-125429709D01*
X153818974Y-125432358D01*
X154051000Y-125311217D01*
X154051000Y-123952000D01*
X151765000Y-123952000D01*
X151511000Y-123952000D01*
X151491000Y-123952000D01*
X151491000Y-123698000D01*
X151511000Y-123698000D01*
X151511000Y-122338783D01*
X151765000Y-122338783D01*
X151765000Y-123698000D01*
X154051000Y-123698000D01*
X154051000Y-122338783D01*
X154305000Y-122338783D01*
X154305000Y-123698000D01*
X154325000Y-123698000D01*
X154325000Y-123952000D01*
X154305000Y-123952000D01*
X154305000Y-125311217D01*
X154537026Y-125432358D01*
X154552789Y-125429709D01*
X154828919Y-125328686D01*
X155080035Y-125175733D01*
X155296486Y-124976729D01*
X155444576Y-124774053D01*
X155465931Y-124814006D01*
X155653203Y-125042197D01*
X155881395Y-125229469D01*
X156141737Y-125368625D01*
X156424224Y-125454316D01*
X156718000Y-125483251D01*
X157011777Y-125454316D01*
X157294264Y-125368625D01*
X157554606Y-125229469D01*
X157782797Y-125042197D01*
X157970069Y-124814006D01*
X158109225Y-124553663D01*
X158194916Y-124271176D01*
X158216600Y-124051018D01*
X158216600Y-123598982D01*
X160299400Y-123598982D01*
X160299400Y-124051019D01*
X160321084Y-124271177D01*
X160406775Y-124553664D01*
X160545931Y-124814006D01*
X160733203Y-125042197D01*
X160961395Y-125229469D01*
X161221737Y-125368625D01*
X161504224Y-125454316D01*
X161798000Y-125483251D01*
X162091777Y-125454316D01*
X162374264Y-125368625D01*
X162634606Y-125229469D01*
X162862797Y-125042197D01*
X163050069Y-124814006D01*
X163068000Y-124780459D01*
X163085931Y-124814006D01*
X163273203Y-125042197D01*
X163501395Y-125229469D01*
X163761737Y-125368625D01*
X164044224Y-125454316D01*
X164338000Y-125483251D01*
X164631777Y-125454316D01*
X164914264Y-125368625D01*
X165174606Y-125229469D01*
X165402797Y-125042197D01*
X165590069Y-124814006D01*
X165608000Y-124780459D01*
X165625931Y-124814006D01*
X165813203Y-125042197D01*
X166041395Y-125229469D01*
X166301737Y-125368625D01*
X166584224Y-125454316D01*
X166878000Y-125483251D01*
X167171777Y-125454316D01*
X167454264Y-125368625D01*
X167714606Y-125229469D01*
X167942797Y-125042197D01*
X168130069Y-124814006D01*
X168148000Y-124780459D01*
X168165931Y-124814006D01*
X168353203Y-125042197D01*
X168581395Y-125229469D01*
X168841737Y-125368625D01*
X169124224Y-125454316D01*
X169418000Y-125483251D01*
X169711777Y-125454316D01*
X169994264Y-125368625D01*
X170254606Y-125229469D01*
X170482797Y-125042197D01*
X170670069Y-124814006D01*
X170688000Y-124780459D01*
X170705931Y-124814006D01*
X170893203Y-125042197D01*
X171121395Y-125229469D01*
X171381737Y-125368625D01*
X171664224Y-125454316D01*
X171958000Y-125483251D01*
X172251777Y-125454316D01*
X172534264Y-125368625D01*
X172794606Y-125229469D01*
X173022797Y-125042197D01*
X173210069Y-124814006D01*
X173228000Y-124780459D01*
X173245931Y-124814006D01*
X173433203Y-125042197D01*
X173661395Y-125229469D01*
X173921737Y-125368625D01*
X174204224Y-125454316D01*
X174498000Y-125483251D01*
X174791777Y-125454316D01*
X175074264Y-125368625D01*
X175334606Y-125229469D01*
X175562797Y-125042197D01*
X175750069Y-124814006D01*
X175889225Y-124553663D01*
X175974916Y-124271176D01*
X175996600Y-124051018D01*
X175996600Y-123598981D01*
X175974916Y-123378823D01*
X175889225Y-123096336D01*
X175750069Y-122835994D01*
X175562797Y-122607803D01*
X175334605Y-122420531D01*
X175074263Y-122281375D01*
X174791776Y-122195684D01*
X174498000Y-122166749D01*
X174204223Y-122195684D01*
X173921736Y-122281375D01*
X173661394Y-122420531D01*
X173433203Y-122607803D01*
X173245931Y-122835995D01*
X173228000Y-122869541D01*
X173210069Y-122835994D01*
X173022797Y-122607803D01*
X172794605Y-122420531D01*
X172534263Y-122281375D01*
X172251776Y-122195684D01*
X171958000Y-122166749D01*
X171664223Y-122195684D01*
X171381736Y-122281375D01*
X171121394Y-122420531D01*
X170893203Y-122607803D01*
X170705931Y-122835995D01*
X170688000Y-122869541D01*
X170670069Y-122835994D01*
X170482797Y-122607803D01*
X170254605Y-122420531D01*
X169994263Y-122281375D01*
X169711776Y-122195684D01*
X169418000Y-122166749D01*
X169124223Y-122195684D01*
X168841736Y-122281375D01*
X168581394Y-122420531D01*
X168353203Y-122607803D01*
X168165931Y-122835995D01*
X168148000Y-122869541D01*
X168130069Y-122835994D01*
X167942797Y-122607803D01*
X167714605Y-122420531D01*
X167454263Y-122281375D01*
X167171776Y-122195684D01*
X166878000Y-122166749D01*
X166584223Y-122195684D01*
X166301736Y-122281375D01*
X166041394Y-122420531D01*
X165813203Y-122607803D01*
X165625931Y-122835995D01*
X165608000Y-122869541D01*
X165590069Y-122835994D01*
X165402797Y-122607803D01*
X165174605Y-122420531D01*
X164914263Y-122281375D01*
X164631776Y-122195684D01*
X164338000Y-122166749D01*
X164044223Y-122195684D01*
X163761736Y-122281375D01*
X163501394Y-122420531D01*
X163273203Y-122607803D01*
X163085931Y-122835995D01*
X163068000Y-122869541D01*
X163050069Y-122835994D01*
X162862797Y-122607803D01*
X162634605Y-122420531D01*
X162374263Y-122281375D01*
X162091776Y-122195684D01*
X161798000Y-122166749D01*
X161504223Y-122195684D01*
X161221736Y-122281375D01*
X160961394Y-122420531D01*
X160733203Y-122607803D01*
X160545931Y-122835995D01*
X160406775Y-123096337D01*
X160321084Y-123378824D01*
X160299400Y-123598982D01*
X158216600Y-123598982D01*
X158216600Y-123598981D01*
X158194916Y-123378823D01*
X158109225Y-123096336D01*
X157970069Y-122835994D01*
X157782797Y-122607803D01*
X157554605Y-122420531D01*
X157294263Y-122281375D01*
X157011776Y-122195684D01*
X156718000Y-122166749D01*
X156424223Y-122195684D01*
X156141736Y-122281375D01*
X155881394Y-122420531D01*
X155653203Y-122607803D01*
X155465931Y-122835995D01*
X155444576Y-122875947D01*
X155296486Y-122673271D01*
X155080035Y-122474267D01*
X154828919Y-122321314D01*
X154552789Y-122220291D01*
X154537026Y-122217642D01*
X154305000Y-122338783D01*
X154051000Y-122338783D01*
X153818974Y-122217642D01*
X153803211Y-122220291D01*
X153527081Y-122321314D01*
X153275965Y-122474267D01*
X153059514Y-122673271D01*
X152908000Y-122880633D01*
X152756486Y-122673271D01*
X152540035Y-122474267D01*
X152288919Y-122321314D01*
X152012789Y-122220291D01*
X151997026Y-122217642D01*
X151765000Y-122338783D01*
X151511000Y-122338783D01*
X151278974Y-122217642D01*
X151263211Y-122220291D01*
X150987081Y-122321314D01*
X150735965Y-122474267D01*
X150519514Y-122673271D01*
X150371424Y-122875947D01*
X150350069Y-122835994D01*
X150162797Y-122607803D01*
X149934605Y-122420531D01*
X149674263Y-122281375D01*
X149391776Y-122195684D01*
X149098000Y-122166749D01*
X148804223Y-122195684D01*
X148521736Y-122281375D01*
X148261394Y-122420531D01*
X148033203Y-122607803D01*
X147845931Y-122835995D01*
X147828000Y-122869541D01*
X147810069Y-122835994D01*
X147622797Y-122607803D01*
X147394605Y-122420531D01*
X147134263Y-122281375D01*
X146851776Y-122195684D01*
X146558000Y-122166749D01*
X146264223Y-122195684D01*
X145981736Y-122281375D01*
X145721394Y-122420531D01*
X145493203Y-122607803D01*
X145305931Y-122835995D01*
X145288000Y-122869541D01*
X145270069Y-122835994D01*
X145082797Y-122607803D01*
X144854605Y-122420531D01*
X144594263Y-122281375D01*
X144311776Y-122195684D01*
X144018000Y-122166749D01*
X143724223Y-122195684D01*
X143441736Y-122281375D01*
X143181394Y-122420531D01*
X142953203Y-122607803D01*
X142765931Y-122835995D01*
X142748000Y-122869541D01*
X142730069Y-122835994D01*
X142542797Y-122607803D01*
X142314605Y-122420531D01*
X142054263Y-122281375D01*
X141771776Y-122195684D01*
X141478000Y-122166749D01*
X141184223Y-122195684D01*
X140901736Y-122281375D01*
X140641394Y-122420531D01*
X140413203Y-122607803D01*
X140225931Y-122835995D01*
X140208000Y-122869541D01*
X140190069Y-122835994D01*
X140002797Y-122607803D01*
X139774605Y-122420531D01*
X139514263Y-122281375D01*
X139231776Y-122195684D01*
X138938000Y-122166749D01*
X138644223Y-122195684D01*
X138361736Y-122281375D01*
X138101394Y-122420531D01*
X137873203Y-122607803D01*
X137685931Y-122835995D01*
X137546775Y-123096337D01*
X137461084Y-123378824D01*
X137439400Y-123598982D01*
X127635000Y-123598982D01*
X127635000Y-123562323D01*
X127532508Y-123047065D01*
X127331464Y-122561702D01*
X127039594Y-122124887D01*
X126668113Y-121753406D01*
X126231298Y-121461536D01*
X125745935Y-121260492D01*
X125230677Y-121158000D01*
X124705323Y-121158000D01*
X124190065Y-121260492D01*
X123704702Y-121461536D01*
X123267887Y-121753406D01*
X122896406Y-122124887D01*
X122604536Y-122561702D01*
X122403492Y-123047065D01*
X122301000Y-123562323D01*
X122301000Y-124087677D01*
X122403492Y-124602935D01*
X122604536Y-125088298D01*
X122896406Y-125525113D01*
X122974293Y-125603000D01*
X111760000Y-125603000D01*
X111760000Y-114773967D01*
X124603000Y-114773967D01*
X124603000Y-115096033D01*
X124665832Y-115411912D01*
X124789082Y-115709463D01*
X124968013Y-115977252D01*
X125195748Y-116204987D01*
X125463537Y-116383918D01*
X125761088Y-116507168D01*
X126076967Y-116570000D01*
X126399033Y-116570000D01*
X126714912Y-116507168D01*
X127012463Y-116383918D01*
X127280252Y-116204987D01*
X127507987Y-115977252D01*
X127686918Y-115709463D01*
X127810168Y-115411912D01*
X127873000Y-115096033D01*
X127873000Y-114773967D01*
X127810168Y-114458088D01*
X127686918Y-114160537D01*
X127507987Y-113892748D01*
X127280252Y-113665013D01*
X127012463Y-113486082D01*
X126714912Y-113362832D01*
X126399033Y-113300000D01*
X126076967Y-113300000D01*
X125761088Y-113362832D01*
X125463537Y-113486082D01*
X125195748Y-113665013D01*
X124968013Y-113892748D01*
X124789082Y-114160537D01*
X124665832Y-114458088D01*
X124603000Y-114773967D01*
X111760000Y-114773967D01*
X111760000Y-112302911D01*
X140543000Y-112302911D01*
X140543000Y-112487089D01*
X140578932Y-112667729D01*
X140649414Y-112837889D01*
X140751738Y-112991028D01*
X140881972Y-113121262D01*
X141035111Y-113223586D01*
X141205271Y-113294068D01*
X141385911Y-113330000D01*
X141570089Y-113330000D01*
X141750729Y-113294068D01*
X141920889Y-113223586D01*
X142023535Y-113155000D01*
X158977431Y-113155000D01*
X158911972Y-113198738D01*
X158781738Y-113328972D01*
X158679414Y-113482111D01*
X158608932Y-113652271D01*
X158573000Y-113832911D01*
X158573000Y-114017089D01*
X158608932Y-114197729D01*
X158679414Y-114367889D01*
X158781738Y-114521028D01*
X158911972Y-114651262D01*
X159065111Y-114753586D01*
X159235271Y-114824068D01*
X159415911Y-114860000D01*
X159600089Y-114860000D01*
X159780729Y-114824068D01*
X159950889Y-114753586D01*
X160053535Y-114685000D01*
X161420678Y-114685000D01*
X161458000Y-114688676D01*
X161495322Y-114685000D01*
X161495333Y-114685000D01*
X161606986Y-114674003D01*
X161750247Y-114630546D01*
X161882276Y-114559974D01*
X161998001Y-114465001D01*
X162021804Y-114435997D01*
X162885001Y-113572800D01*
X166028203Y-116716003D01*
X166052001Y-116745001D01*
X166080999Y-116768799D01*
X166167725Y-116839974D01*
X166295761Y-116908411D01*
X166299755Y-116910546D01*
X166443016Y-116954003D01*
X166554669Y-116965000D01*
X166554678Y-116965000D01*
X166592001Y-116968676D01*
X166629324Y-116965000D01*
X166659928Y-116965000D01*
X166659928Y-117055000D01*
X166672188Y-117179482D01*
X166708498Y-117299180D01*
X166767463Y-117409494D01*
X166846815Y-117506185D01*
X166943506Y-117585537D01*
X167053820Y-117644502D01*
X167173518Y-117680812D01*
X167298000Y-117693072D01*
X168998000Y-117693072D01*
X169122482Y-117680812D01*
X169242180Y-117644502D01*
X169352494Y-117585537D01*
X169449185Y-117506185D01*
X169528537Y-117409494D01*
X169587502Y-117299180D01*
X169609513Y-117226620D01*
X169741368Y-117358475D01*
X169984589Y-117520990D01*
X170254842Y-117632932D01*
X170541740Y-117690000D01*
X170834260Y-117690000D01*
X171121158Y-117632932D01*
X171391411Y-117520990D01*
X171634632Y-117358475D01*
X171841475Y-117151632D01*
X172003990Y-116908411D01*
X172115932Y-116638158D01*
X172173000Y-116351260D01*
X172173000Y-116058740D01*
X172115932Y-115771842D01*
X172003990Y-115501589D01*
X171841475Y-115258368D01*
X171634632Y-115051525D01*
X171391411Y-114889010D01*
X171121158Y-114777068D01*
X170834260Y-114720000D01*
X170541740Y-114720000D01*
X170254842Y-114777068D01*
X169984589Y-114889010D01*
X169741368Y-115051525D01*
X169609513Y-115183380D01*
X169587502Y-115110820D01*
X169528537Y-115000506D01*
X169449185Y-114903815D01*
X169352494Y-114824463D01*
X169242180Y-114765498D01*
X169122482Y-114729188D01*
X168998000Y-114716928D01*
X167298000Y-114716928D01*
X167173518Y-114729188D01*
X167053820Y-114765498D01*
X166943506Y-114824463D01*
X166846815Y-114903815D01*
X166767463Y-115000506D01*
X166708498Y-115110820D01*
X166676874Y-115215070D01*
X163645001Y-112183198D01*
X163645001Y-111072110D01*
X163676273Y-111093005D01*
X163930510Y-111198314D01*
X164200408Y-111252000D01*
X164475592Y-111252000D01*
X164745490Y-111198314D01*
X164999727Y-111093005D01*
X165228535Y-110940120D01*
X165423120Y-110745535D01*
X165576005Y-110516727D01*
X165608000Y-110439485D01*
X165639995Y-110516727D01*
X165792880Y-110745535D01*
X165987465Y-110940120D01*
X166216273Y-111093005D01*
X166470510Y-111198314D01*
X166740408Y-111252000D01*
X167015592Y-111252000D01*
X167285490Y-111198314D01*
X167539727Y-111093005D01*
X167768535Y-110940120D01*
X167963120Y-110745535D01*
X168116005Y-110516727D01*
X168148000Y-110439485D01*
X168179995Y-110516727D01*
X168332880Y-110745535D01*
X168527465Y-110940120D01*
X168756273Y-111093005D01*
X169010510Y-111198314D01*
X169280408Y-111252000D01*
X169555592Y-111252000D01*
X169825490Y-111198314D01*
X170079727Y-111093005D01*
X170308535Y-110940120D01*
X170503120Y-110745535D01*
X170656005Y-110516727D01*
X170688000Y-110439485D01*
X170719995Y-110516727D01*
X170872880Y-110745535D01*
X171067465Y-110940120D01*
X171296273Y-111093005D01*
X171550510Y-111198314D01*
X171820408Y-111252000D01*
X172095592Y-111252000D01*
X172365490Y-111198314D01*
X172619727Y-111093005D01*
X172848535Y-110940120D01*
X173043120Y-110745535D01*
X173196005Y-110516727D01*
X173228000Y-110439485D01*
X173259995Y-110516727D01*
X173412880Y-110745535D01*
X173607465Y-110940120D01*
X173836273Y-111093005D01*
X174090510Y-111198314D01*
X174360408Y-111252000D01*
X174635592Y-111252000D01*
X174905490Y-111198314D01*
X175159727Y-111093005D01*
X175388535Y-110940120D01*
X175583120Y-110745535D01*
X175736005Y-110516727D01*
X175768000Y-110439485D01*
X175799995Y-110516727D01*
X175952880Y-110745535D01*
X176147465Y-110940120D01*
X176376273Y-111093005D01*
X176630510Y-111198314D01*
X176900408Y-111252000D01*
X177175592Y-111252000D01*
X177445490Y-111198314D01*
X177699727Y-111093005D01*
X177928535Y-110940120D01*
X178123120Y-110745535D01*
X178276005Y-110516727D01*
X178381314Y-110262490D01*
X178435000Y-109992592D01*
X178435000Y-109717408D01*
X178381314Y-109447510D01*
X178276005Y-109193273D01*
X178123120Y-108964465D01*
X177928535Y-108769880D01*
X177699727Y-108616995D01*
X177445490Y-108511686D01*
X177175592Y-108458000D01*
X176900408Y-108458000D01*
X176630510Y-108511686D01*
X176376273Y-108616995D01*
X176147465Y-108769880D01*
X175952880Y-108964465D01*
X175799995Y-109193273D01*
X175768000Y-109270515D01*
X175736005Y-109193273D01*
X175583120Y-108964465D01*
X175388535Y-108769880D01*
X175159727Y-108616995D01*
X174905490Y-108511686D01*
X174635592Y-108458000D01*
X174360408Y-108458000D01*
X174090510Y-108511686D01*
X173836273Y-108616995D01*
X173607465Y-108769880D01*
X173412880Y-108964465D01*
X173259995Y-109193273D01*
X173228000Y-109270515D01*
X173196005Y-109193273D01*
X173043120Y-108964465D01*
X172848535Y-108769880D01*
X172619727Y-108616995D01*
X172365490Y-108511686D01*
X172095592Y-108458000D01*
X171820408Y-108458000D01*
X171550510Y-108511686D01*
X171296273Y-108616995D01*
X171067465Y-108769880D01*
X170872880Y-108964465D01*
X170719995Y-109193273D01*
X170688000Y-109270515D01*
X170656005Y-109193273D01*
X170503120Y-108964465D01*
X170308535Y-108769880D01*
X170079727Y-108616995D01*
X169825490Y-108511686D01*
X169555592Y-108458000D01*
X169280408Y-108458000D01*
X169010510Y-108511686D01*
X168756273Y-108616995D01*
X168527465Y-108769880D01*
X168332880Y-108964465D01*
X168179995Y-109193273D01*
X168148000Y-109270515D01*
X168116005Y-109193273D01*
X167963120Y-108964465D01*
X167768535Y-108769880D01*
X167539727Y-108616995D01*
X167285490Y-108511686D01*
X167015592Y-108458000D01*
X166740408Y-108458000D01*
X166470510Y-108511686D01*
X166216273Y-108616995D01*
X165987465Y-108769880D01*
X165792880Y-108964465D01*
X165639995Y-109193273D01*
X165608000Y-109270515D01*
X165576005Y-109193273D01*
X165423120Y-108964465D01*
X165228535Y-108769880D01*
X164999727Y-108616995D01*
X164745490Y-108511686D01*
X164475592Y-108458000D01*
X164200408Y-108458000D01*
X163930510Y-108511686D01*
X163676273Y-108616995D01*
X163619432Y-108654975D01*
X163590547Y-108559754D01*
X163519975Y-108427725D01*
X163425002Y-108312000D01*
X163396005Y-108288203D01*
X162497103Y-107389301D01*
X162503546Y-107377247D01*
X162547003Y-107233986D01*
X162558000Y-107122333D01*
X162561677Y-107085000D01*
X162558000Y-107047667D01*
X162558000Y-107024645D01*
X162583106Y-107011226D01*
X162631006Y-107050537D01*
X162741320Y-107109502D01*
X162861018Y-107145812D01*
X162985500Y-107158072D01*
X163237250Y-107155000D01*
X163396000Y-106996250D01*
X163396000Y-106172000D01*
X163650000Y-106172000D01*
X163650000Y-106996250D01*
X163808750Y-107155000D01*
X164060500Y-107158072D01*
X164184982Y-107145812D01*
X164304680Y-107109502D01*
X164414994Y-107050537D01*
X164511685Y-106971185D01*
X164591037Y-106874494D01*
X164650002Y-106764180D01*
X164686312Y-106644482D01*
X164698572Y-106520000D01*
X164695500Y-106330750D01*
X164536750Y-106172000D01*
X163650000Y-106172000D01*
X163396000Y-106172000D01*
X163376000Y-106172000D01*
X163376000Y-105918000D01*
X163396000Y-105918000D01*
X163396000Y-105093750D01*
X163650000Y-105093750D01*
X163650000Y-105918000D01*
X164536750Y-105918000D01*
X164695500Y-105759250D01*
X164698572Y-105570000D01*
X164686312Y-105445518D01*
X164650002Y-105325820D01*
X164591037Y-105215506D01*
X164511685Y-105118815D01*
X164414994Y-105039463D01*
X164304680Y-104980498D01*
X164184982Y-104944188D01*
X164060500Y-104931928D01*
X163808750Y-104935000D01*
X163650000Y-105093750D01*
X163396000Y-105093750D01*
X163237250Y-104935000D01*
X162985500Y-104931928D01*
X162861018Y-104944188D01*
X162741320Y-104980498D01*
X162631006Y-105039463D01*
X162583106Y-105078774D01*
X162433067Y-104998577D01*
X162268816Y-104948752D01*
X162098000Y-104931928D01*
X161498000Y-104931928D01*
X161327184Y-104948752D01*
X161162933Y-104998577D01*
X161011558Y-105079488D01*
X160878877Y-105188377D01*
X160769988Y-105321058D01*
X160689077Y-105472433D01*
X160639252Y-105636684D01*
X160622428Y-105807500D01*
X160622428Y-106282500D01*
X160639252Y-106453316D01*
X160689077Y-106617567D01*
X160720483Y-106676324D01*
X160600889Y-106596414D01*
X160430729Y-106525932D01*
X160250089Y-106490000D01*
X160065911Y-106490000D01*
X159885271Y-106525932D01*
X159778563Y-106570132D01*
X159777123Y-106568377D01*
X159644442Y-106459488D01*
X159493067Y-106378577D01*
X159328816Y-106328752D01*
X159158000Y-106311928D01*
X158558000Y-106311928D01*
X158387184Y-106328752D01*
X158222933Y-106378577D01*
X158072894Y-106458774D01*
X158024994Y-106419463D01*
X157914680Y-106360498D01*
X157794982Y-106324188D01*
X157670500Y-106311928D01*
X157418750Y-106315000D01*
X157260000Y-106473750D01*
X157260000Y-107298000D01*
X157280000Y-107298000D01*
X157280000Y-107552000D01*
X157260000Y-107552000D01*
X157260000Y-107572000D01*
X157006000Y-107572000D01*
X157006000Y-107552000D01*
X156119250Y-107552000D01*
X155960500Y-107710750D01*
X155957428Y-107900000D01*
X155969688Y-108024482D01*
X156005998Y-108144180D01*
X156064963Y-108254494D01*
X156144315Y-108351185D01*
X156241006Y-108430537D01*
X156351320Y-108489502D01*
X156379326Y-108497998D01*
X156310510Y-108511686D01*
X156056273Y-108616995D01*
X155827465Y-108769880D01*
X155632880Y-108964465D01*
X155479995Y-109193273D01*
X155448000Y-109270515D01*
X155416005Y-109193273D01*
X155263120Y-108964465D01*
X155068535Y-108769880D01*
X154839727Y-108616995D01*
X154585490Y-108511686D01*
X154315592Y-108458000D01*
X154040408Y-108458000D01*
X153770510Y-108511686D01*
X153516273Y-108616995D01*
X153287465Y-108769880D01*
X153092880Y-108964465D01*
X152939995Y-109193273D01*
X152910308Y-109264943D01*
X152905636Y-109251977D01*
X152843656Y-109136020D01*
X152603565Y-109069040D01*
X151817605Y-109855000D01*
X152603565Y-110640960D01*
X152843656Y-110573980D01*
X152907485Y-110438240D01*
X152939995Y-110516727D01*
X153092880Y-110745535D01*
X153287465Y-110940120D01*
X153516273Y-111093005D01*
X153770510Y-111198314D01*
X154040408Y-111252000D01*
X154315592Y-111252000D01*
X154585490Y-111198314D01*
X154839727Y-111093005D01*
X155068535Y-110940120D01*
X155263120Y-110745535D01*
X155416005Y-110516727D01*
X155448000Y-110439485D01*
X155479995Y-110516727D01*
X155632880Y-110745535D01*
X155827465Y-110940120D01*
X156056273Y-111093005D01*
X156310510Y-111198314D01*
X156580408Y-111252000D01*
X156855592Y-111252000D01*
X157125490Y-111198314D01*
X157379727Y-111093005D01*
X157608535Y-110940120D01*
X157803120Y-110745535D01*
X157956005Y-110516727D01*
X157988000Y-110439485D01*
X158019995Y-110516727D01*
X158172880Y-110745535D01*
X158367465Y-110940120D01*
X158596273Y-111093005D01*
X158850510Y-111198314D01*
X159120408Y-111252000D01*
X159395592Y-111252000D01*
X159665490Y-111198314D01*
X159698000Y-111184848D01*
X159698000Y-111635000D01*
X142023535Y-111635000D01*
X141920889Y-111566414D01*
X141750729Y-111495932D01*
X141570089Y-111460000D01*
X141385911Y-111460000D01*
X141205271Y-111495932D01*
X141035111Y-111566414D01*
X140881972Y-111668738D01*
X140751738Y-111798972D01*
X140649414Y-111952111D01*
X140578932Y-112122271D01*
X140543000Y-112302911D01*
X111760000Y-112302911D01*
X111760000Y-108438740D01*
X114593000Y-108438740D01*
X114593000Y-108731260D01*
X114650068Y-109018158D01*
X114762010Y-109288411D01*
X114924525Y-109531632D01*
X115131368Y-109738475D01*
X115374589Y-109900990D01*
X115644842Y-110012932D01*
X115931740Y-110070000D01*
X116224260Y-110070000D01*
X116511158Y-110012932D01*
X116781411Y-109900990D01*
X117024632Y-109738475D01*
X117231475Y-109531632D01*
X117348000Y-109357240D01*
X117464525Y-109531632D01*
X117671368Y-109738475D01*
X117914589Y-109900990D01*
X118184842Y-110012932D01*
X118471740Y-110070000D01*
X118764260Y-110070000D01*
X119051158Y-110012932D01*
X119321411Y-109900990D01*
X119564632Y-109738475D01*
X119696487Y-109606620D01*
X119718498Y-109679180D01*
X119777463Y-109789494D01*
X119856815Y-109886185D01*
X119953506Y-109965537D01*
X120063820Y-110024502D01*
X120183518Y-110060812D01*
X120308000Y-110073072D01*
X122008000Y-110073072D01*
X122132482Y-110060812D01*
X122252180Y-110024502D01*
X122362494Y-109965537D01*
X122459185Y-109886185D01*
X122538537Y-109789494D01*
X122597502Y-109679180D01*
X122633812Y-109559482D01*
X122646072Y-109435000D01*
X122646072Y-109220000D01*
X142744928Y-109220000D01*
X142744928Y-110490000D01*
X142757188Y-110614482D01*
X142793498Y-110734180D01*
X142852463Y-110844494D01*
X142931815Y-110941185D01*
X143028506Y-111020537D01*
X143138820Y-111079502D01*
X143258518Y-111115812D01*
X143383000Y-111128072D01*
X144653000Y-111128072D01*
X144777482Y-111115812D01*
X144897180Y-111079502D01*
X145007494Y-111020537D01*
X145104185Y-110941185D01*
X145183537Y-110844494D01*
X145242502Y-110734180D01*
X145278812Y-110614482D01*
X145291072Y-110490000D01*
X145291072Y-110446901D01*
X145319995Y-110516727D01*
X145472880Y-110745535D01*
X145667465Y-110940120D01*
X145896273Y-111093005D01*
X146150510Y-111198314D01*
X146420408Y-111252000D01*
X146695592Y-111252000D01*
X146965490Y-111198314D01*
X147219727Y-111093005D01*
X147448535Y-110940120D01*
X147643120Y-110745535D01*
X147796005Y-110516727D01*
X147828000Y-110439485D01*
X147859995Y-110516727D01*
X148012880Y-110745535D01*
X148207465Y-110940120D01*
X148436273Y-111093005D01*
X148690510Y-111198314D01*
X148960408Y-111252000D01*
X149235592Y-111252000D01*
X149505490Y-111198314D01*
X149759727Y-111093005D01*
X149988535Y-110940120D01*
X150108090Y-110820565D01*
X150852040Y-110820565D01*
X150919020Y-111060656D01*
X151168048Y-111177756D01*
X151435135Y-111244023D01*
X151710017Y-111256910D01*
X151982133Y-111215922D01*
X152241023Y-111122636D01*
X152356980Y-111060656D01*
X152423960Y-110820565D01*
X151638000Y-110034605D01*
X150852040Y-110820565D01*
X150108090Y-110820565D01*
X150183120Y-110745535D01*
X150336005Y-110516727D01*
X150365692Y-110445057D01*
X150370364Y-110458023D01*
X150432344Y-110573980D01*
X150672435Y-110640960D01*
X151458395Y-109855000D01*
X150672435Y-109069040D01*
X150432344Y-109136020D01*
X150368515Y-109271760D01*
X150336005Y-109193273D01*
X150183120Y-108964465D01*
X150108090Y-108889435D01*
X150852040Y-108889435D01*
X151638000Y-109675395D01*
X152423960Y-108889435D01*
X152356980Y-108649344D01*
X152107952Y-108532244D01*
X151840865Y-108465977D01*
X151565983Y-108453090D01*
X151293867Y-108494078D01*
X151034977Y-108587364D01*
X150919020Y-108649344D01*
X150852040Y-108889435D01*
X150108090Y-108889435D01*
X149988535Y-108769880D01*
X149759727Y-108616995D01*
X149505490Y-108511686D01*
X149235592Y-108458000D01*
X148960408Y-108458000D01*
X148690510Y-108511686D01*
X148436273Y-108616995D01*
X148207465Y-108769880D01*
X148012880Y-108964465D01*
X147859995Y-109193273D01*
X147828000Y-109270515D01*
X147796005Y-109193273D01*
X147643120Y-108964465D01*
X147448535Y-108769880D01*
X147318000Y-108682659D01*
X147318000Y-108263420D01*
X147414623Y-108184123D01*
X147523512Y-108051442D01*
X147604423Y-107900067D01*
X147654248Y-107735816D01*
X147671072Y-107565000D01*
X147671072Y-107065000D01*
X147659746Y-106950000D01*
X155957428Y-106950000D01*
X155960500Y-107139250D01*
X156119250Y-107298000D01*
X157006000Y-107298000D01*
X157006000Y-106473750D01*
X156847250Y-106315000D01*
X156595500Y-106311928D01*
X156471018Y-106324188D01*
X156351320Y-106360498D01*
X156241006Y-106419463D01*
X156144315Y-106498815D01*
X156064963Y-106595506D01*
X156005998Y-106705820D01*
X155969688Y-106825518D01*
X155957428Y-106950000D01*
X147659746Y-106950000D01*
X147654248Y-106894184D01*
X147604423Y-106729933D01*
X147523512Y-106578558D01*
X147434188Y-106469717D01*
X147484185Y-106428685D01*
X147563537Y-106331994D01*
X147622502Y-106221680D01*
X147658812Y-106101982D01*
X147671072Y-105977500D01*
X147668000Y-105775750D01*
X147509250Y-105617000D01*
X146685000Y-105617000D01*
X146685000Y-105637000D01*
X146431000Y-105637000D01*
X146431000Y-105617000D01*
X145606750Y-105617000D01*
X145448000Y-105775750D01*
X145444928Y-105977500D01*
X145457188Y-106101982D01*
X145493498Y-106221680D01*
X145552463Y-106331994D01*
X145631815Y-106428685D01*
X145681812Y-106469717D01*
X145592488Y-106578558D01*
X145511577Y-106729933D01*
X145461752Y-106894184D01*
X145444928Y-107065000D01*
X145444928Y-107565000D01*
X145461752Y-107735816D01*
X145511577Y-107900067D01*
X145592488Y-108051442D01*
X145701377Y-108184123D01*
X145798000Y-108263420D01*
X145798001Y-108682659D01*
X145667465Y-108769880D01*
X145472880Y-108964465D01*
X145319995Y-109193273D01*
X145291072Y-109263099D01*
X145291072Y-109220000D01*
X145278812Y-109095518D01*
X145242502Y-108975820D01*
X145183537Y-108865506D01*
X145104185Y-108768815D01*
X145007494Y-108689463D01*
X144897180Y-108630498D01*
X144778000Y-108594345D01*
X144778000Y-108263420D01*
X144874623Y-108184123D01*
X144983512Y-108051442D01*
X145064423Y-107900067D01*
X145114248Y-107735816D01*
X145131072Y-107565000D01*
X145131072Y-107065000D01*
X145114248Y-106894184D01*
X145064423Y-106729933D01*
X144983512Y-106578558D01*
X144894188Y-106469717D01*
X144944185Y-106428685D01*
X145023537Y-106331994D01*
X145082502Y-106221680D01*
X145118812Y-106101982D01*
X145131072Y-105977500D01*
X145128000Y-105775750D01*
X144969250Y-105617000D01*
X144145000Y-105617000D01*
X144145000Y-105637000D01*
X143891000Y-105637000D01*
X143891000Y-105617000D01*
X143066750Y-105617000D01*
X142908000Y-105775750D01*
X142904928Y-105977500D01*
X142917188Y-106101982D01*
X142953498Y-106221680D01*
X143012463Y-106331994D01*
X143091815Y-106428685D01*
X143141812Y-106469717D01*
X143052488Y-106578558D01*
X142971577Y-106729933D01*
X142921752Y-106894184D01*
X142904928Y-107065000D01*
X142904928Y-107565000D01*
X142921752Y-107735816D01*
X142971577Y-107900067D01*
X143052488Y-108051442D01*
X143161377Y-108184123D01*
X143258000Y-108263420D01*
X143258001Y-108594345D01*
X143138820Y-108630498D01*
X143028506Y-108689463D01*
X142931815Y-108768815D01*
X142852463Y-108865506D01*
X142793498Y-108975820D01*
X142757188Y-109095518D01*
X142744928Y-109220000D01*
X122646072Y-109220000D01*
X122646072Y-107735000D01*
X122633812Y-107610518D01*
X122597502Y-107490820D01*
X122538537Y-107380506D01*
X122459185Y-107283815D01*
X122362494Y-107204463D01*
X122252180Y-107145498D01*
X122132482Y-107109188D01*
X122008000Y-107096928D01*
X120308000Y-107096928D01*
X120183518Y-107109188D01*
X120063820Y-107145498D01*
X119953506Y-107204463D01*
X119856815Y-107283815D01*
X119777463Y-107380506D01*
X119718498Y-107490820D01*
X119696487Y-107563380D01*
X119564632Y-107431525D01*
X119321411Y-107269010D01*
X119051158Y-107157068D01*
X118764260Y-107100000D01*
X118471740Y-107100000D01*
X118184842Y-107157068D01*
X117914589Y-107269010D01*
X117671368Y-107431525D01*
X117464525Y-107638368D01*
X117348000Y-107812760D01*
X117231475Y-107638368D01*
X117024632Y-107431525D01*
X116781411Y-107269010D01*
X116511158Y-107157068D01*
X116224260Y-107100000D01*
X115931740Y-107100000D01*
X115644842Y-107157068D01*
X115374589Y-107269010D01*
X115131368Y-107431525D01*
X114924525Y-107638368D01*
X114762010Y-107881589D01*
X114650068Y-108151842D01*
X114593000Y-108438740D01*
X111760000Y-108438740D01*
X111760000Y-105002500D01*
X142904928Y-105002500D01*
X142908000Y-105204250D01*
X143066750Y-105363000D01*
X143891000Y-105363000D01*
X143891000Y-104526250D01*
X144145000Y-104526250D01*
X144145000Y-105363000D01*
X144969250Y-105363000D01*
X145128000Y-105204250D01*
X145131072Y-105002500D01*
X145444928Y-105002500D01*
X145448000Y-105204250D01*
X145606750Y-105363000D01*
X146431000Y-105363000D01*
X146431000Y-104526250D01*
X146685000Y-104526250D01*
X146685000Y-105363000D01*
X147509250Y-105363000D01*
X147668000Y-105204250D01*
X147671072Y-105002500D01*
X147658812Y-104878018D01*
X147622502Y-104758320D01*
X147563537Y-104648006D01*
X147484185Y-104551315D01*
X147387494Y-104471963D01*
X147277180Y-104412998D01*
X147157482Y-104376688D01*
X147033000Y-104364428D01*
X146843750Y-104367500D01*
X146685000Y-104526250D01*
X146431000Y-104526250D01*
X146272250Y-104367500D01*
X146083000Y-104364428D01*
X145958518Y-104376688D01*
X145838820Y-104412998D01*
X145728506Y-104471963D01*
X145631815Y-104551315D01*
X145552463Y-104648006D01*
X145493498Y-104758320D01*
X145457188Y-104878018D01*
X145444928Y-105002500D01*
X145131072Y-105002500D01*
X145118812Y-104878018D01*
X145082502Y-104758320D01*
X145023537Y-104648006D01*
X144944185Y-104551315D01*
X144847494Y-104471963D01*
X144737180Y-104412998D01*
X144617482Y-104376688D01*
X144493000Y-104364428D01*
X144303750Y-104367500D01*
X144145000Y-104526250D01*
X143891000Y-104526250D01*
X143732250Y-104367500D01*
X143543000Y-104364428D01*
X143418518Y-104376688D01*
X143298820Y-104412998D01*
X143188506Y-104471963D01*
X143091815Y-104551315D01*
X143012463Y-104648006D01*
X142953498Y-104758320D01*
X142917188Y-104878018D01*
X142904928Y-105002500D01*
X111760000Y-105002500D01*
X111760000Y-98278740D01*
X114593000Y-98278740D01*
X114593000Y-98571260D01*
X114650068Y-98858158D01*
X114762010Y-99128411D01*
X114924525Y-99371632D01*
X115131368Y-99578475D01*
X115374589Y-99740990D01*
X115644842Y-99852932D01*
X115931740Y-99910000D01*
X116224260Y-99910000D01*
X116511158Y-99852932D01*
X116781411Y-99740990D01*
X117024632Y-99578475D01*
X117135607Y-99467500D01*
X142904928Y-99467500D01*
X142917188Y-99591982D01*
X142953498Y-99711680D01*
X143012463Y-99821994D01*
X143091815Y-99918685D01*
X143188506Y-99998037D01*
X143298820Y-100057002D01*
X143418518Y-100093312D01*
X143543000Y-100105572D01*
X143732250Y-100102500D01*
X143891000Y-99943750D01*
X143891000Y-99107000D01*
X144145000Y-99107000D01*
X144145000Y-99943750D01*
X144303750Y-100102500D01*
X144493000Y-100105572D01*
X144617482Y-100093312D01*
X144737180Y-100057002D01*
X144847494Y-99998037D01*
X144944185Y-99918685D01*
X145023537Y-99821994D01*
X145082502Y-99711680D01*
X145118812Y-99591982D01*
X145131072Y-99467500D01*
X147984928Y-99467500D01*
X147997188Y-99591982D01*
X148033498Y-99711680D01*
X148092463Y-99821994D01*
X148171815Y-99918685D01*
X148268506Y-99998037D01*
X148378820Y-100057002D01*
X148498518Y-100093312D01*
X148623000Y-100105572D01*
X148812250Y-100102500D01*
X148971000Y-99943750D01*
X148971000Y-99107000D01*
X149225000Y-99107000D01*
X149225000Y-99943750D01*
X149383750Y-100102500D01*
X149459690Y-100103733D01*
X149433000Y-100237911D01*
X149433000Y-100422089D01*
X149468932Y-100602729D01*
X149539414Y-100772889D01*
X149608000Y-100875535D01*
X149608000Y-100927678D01*
X149604324Y-100965000D01*
X149608000Y-101002322D01*
X149608000Y-101002333D01*
X149618997Y-101113986D01*
X149662454Y-101257247D01*
X149687037Y-101303236D01*
X149733026Y-101389276D01*
X149766343Y-101429872D01*
X149828000Y-101505001D01*
X149856998Y-101528799D01*
X150079847Y-101751649D01*
X150103932Y-101872729D01*
X150174414Y-102042889D01*
X150276738Y-102196028D01*
X150406972Y-102326262D01*
X150560111Y-102428586D01*
X150730271Y-102499068D01*
X150910911Y-102535000D01*
X151095089Y-102535000D01*
X151275729Y-102499068D01*
X151445889Y-102428586D01*
X151599028Y-102326262D01*
X151729262Y-102196028D01*
X151831586Y-102042889D01*
X151902068Y-101872729D01*
X151938000Y-101692089D01*
X151938000Y-101507911D01*
X151902068Y-101327271D01*
X151831586Y-101157111D01*
X151729262Y-101003972D01*
X151599028Y-100873738D01*
X151445889Y-100771414D01*
X151275729Y-100700932D01*
X151230147Y-100691865D01*
X151267068Y-100602729D01*
X151303000Y-100422089D01*
X151303000Y-100237911D01*
X151276310Y-100103733D01*
X151352250Y-100102500D01*
X151511000Y-99943750D01*
X151511000Y-99107000D01*
X150686750Y-99107000D01*
X150528000Y-99265750D01*
X150525833Y-99408077D01*
X150460089Y-99395000D01*
X150275911Y-99395000D01*
X150210167Y-99408077D01*
X150208000Y-99265750D01*
X150049250Y-99107000D01*
X149225000Y-99107000D01*
X148971000Y-99107000D01*
X148146750Y-99107000D01*
X147988000Y-99265750D01*
X147984928Y-99467500D01*
X145131072Y-99467500D01*
X145128000Y-99265750D01*
X144969250Y-99107000D01*
X144145000Y-99107000D01*
X143891000Y-99107000D01*
X143066750Y-99107000D01*
X142908000Y-99265750D01*
X142904928Y-99467500D01*
X117135607Y-99467500D01*
X117231475Y-99371632D01*
X117393990Y-99128411D01*
X117505932Y-98858158D01*
X117563000Y-98571260D01*
X117563000Y-98278740D01*
X117505932Y-97991842D01*
X117393990Y-97721589D01*
X117231475Y-97478368D01*
X117024632Y-97271525D01*
X116842466Y-97149805D01*
X116959355Y-97080178D01*
X117175588Y-96885269D01*
X117349641Y-96651920D01*
X117474825Y-96389099D01*
X117519476Y-96241890D01*
X117398155Y-96012000D01*
X116205000Y-96012000D01*
X116205000Y-96032000D01*
X115951000Y-96032000D01*
X115951000Y-96012000D01*
X114757845Y-96012000D01*
X114636524Y-96241890D01*
X114681175Y-96389099D01*
X114806359Y-96651920D01*
X114980412Y-96885269D01*
X115196645Y-97080178D01*
X115313534Y-97149805D01*
X115131368Y-97271525D01*
X114924525Y-97478368D01*
X114762010Y-97721589D01*
X114650068Y-97991842D01*
X114593000Y-98278740D01*
X111760000Y-98278740D01*
X111760000Y-92495000D01*
X114589928Y-92495000D01*
X114589928Y-94195000D01*
X114602188Y-94319482D01*
X114638498Y-94439180D01*
X114697463Y-94549494D01*
X114776815Y-94646185D01*
X114873506Y-94725537D01*
X114983820Y-94784502D01*
X115064466Y-94808966D01*
X114980412Y-94884731D01*
X114806359Y-95118080D01*
X114681175Y-95380901D01*
X114636524Y-95528110D01*
X114757845Y-95758000D01*
X115951000Y-95758000D01*
X115951000Y-95738000D01*
X116205000Y-95738000D01*
X116205000Y-95758000D01*
X117398155Y-95758000D01*
X117519476Y-95528110D01*
X117474825Y-95380901D01*
X117349641Y-95118080D01*
X117175588Y-94884731D01*
X117091534Y-94808966D01*
X117172180Y-94784502D01*
X117282494Y-94725537D01*
X117379185Y-94646185D01*
X117458537Y-94549494D01*
X117517502Y-94439180D01*
X117553812Y-94319482D01*
X117566072Y-94195000D01*
X117566072Y-92495000D01*
X117553812Y-92370518D01*
X117517502Y-92250820D01*
X117458537Y-92140506D01*
X117379185Y-92043815D01*
X117282494Y-91964463D01*
X117172180Y-91905498D01*
X117052482Y-91869188D01*
X116928000Y-91856928D01*
X115228000Y-91856928D01*
X115103518Y-91869188D01*
X114983820Y-91905498D01*
X114873506Y-91964463D01*
X114776815Y-92043815D01*
X114697463Y-92140506D01*
X114638498Y-92250820D01*
X114602188Y-92370518D01*
X114589928Y-92495000D01*
X111760000Y-92495000D01*
X111760000Y-88118740D01*
X114593000Y-88118740D01*
X114593000Y-88411260D01*
X114650068Y-88698158D01*
X114762010Y-88968411D01*
X114924525Y-89211632D01*
X115131368Y-89418475D01*
X115374589Y-89580990D01*
X115644842Y-89692932D01*
X115931740Y-89750000D01*
X116224260Y-89750000D01*
X116511158Y-89692932D01*
X116781411Y-89580990D01*
X117024632Y-89418475D01*
X117231475Y-89211632D01*
X117348000Y-89037240D01*
X117464525Y-89211632D01*
X117671368Y-89418475D01*
X117914589Y-89580990D01*
X118184842Y-89692932D01*
X118471740Y-89750000D01*
X118764260Y-89750000D01*
X119051158Y-89692932D01*
X119321411Y-89580990D01*
X119564632Y-89418475D01*
X119696487Y-89286620D01*
X119718498Y-89359180D01*
X119777463Y-89469494D01*
X119856815Y-89566185D01*
X119953506Y-89645537D01*
X120063820Y-89704502D01*
X120183518Y-89740812D01*
X120308000Y-89753072D01*
X122008000Y-89753072D01*
X122132482Y-89740812D01*
X122252180Y-89704502D01*
X122362494Y-89645537D01*
X122459185Y-89566185D01*
X122538537Y-89469494D01*
X122597502Y-89359180D01*
X122633812Y-89239482D01*
X122646072Y-89115000D01*
X122646072Y-87415000D01*
X122633812Y-87290518D01*
X122597502Y-87170820D01*
X122538537Y-87060506D01*
X122459185Y-86963815D01*
X122362494Y-86884463D01*
X122252180Y-86825498D01*
X122132482Y-86789188D01*
X122008000Y-86776928D01*
X120308000Y-86776928D01*
X120183518Y-86789188D01*
X120063820Y-86825498D01*
X119953506Y-86884463D01*
X119856815Y-86963815D01*
X119777463Y-87060506D01*
X119718498Y-87170820D01*
X119696487Y-87243380D01*
X119564632Y-87111525D01*
X119321411Y-86949010D01*
X119051158Y-86837068D01*
X118764260Y-86780000D01*
X118471740Y-86780000D01*
X118184842Y-86837068D01*
X117914589Y-86949010D01*
X117671368Y-87111525D01*
X117464525Y-87318368D01*
X117348000Y-87492760D01*
X117231475Y-87318368D01*
X117024632Y-87111525D01*
X116781411Y-86949010D01*
X116511158Y-86837068D01*
X116224260Y-86780000D01*
X115931740Y-86780000D01*
X115644842Y-86837068D01*
X115374589Y-86949010D01*
X115131368Y-87111525D01*
X114924525Y-87318368D01*
X114762010Y-87561589D01*
X114650068Y-87831842D01*
X114593000Y-88118740D01*
X111760000Y-88118740D01*
X111760000Y-82668740D01*
X113463000Y-82668740D01*
X113463000Y-82961260D01*
X113520068Y-83248158D01*
X113632010Y-83518411D01*
X113794525Y-83761632D01*
X114001368Y-83968475D01*
X114244589Y-84130990D01*
X114514842Y-84242932D01*
X114801740Y-84300000D01*
X115094260Y-84300000D01*
X115381158Y-84242932D01*
X115651411Y-84130990D01*
X115894632Y-83968475D01*
X116019710Y-83843397D01*
X118599208Y-83843397D01*
X118676843Y-84092472D01*
X118940883Y-84218371D01*
X119224411Y-84290339D01*
X119516531Y-84305611D01*
X119806019Y-84263599D01*
X120081747Y-84165919D01*
X120219157Y-84092472D01*
X120296792Y-83843397D01*
X119448000Y-82994605D01*
X118599208Y-83843397D01*
X116019710Y-83843397D01*
X116101475Y-83761632D01*
X116263990Y-83518411D01*
X116375932Y-83248158D01*
X116433000Y-82961260D01*
X116433000Y-82883531D01*
X117957389Y-82883531D01*
X117999401Y-83173019D01*
X118097081Y-83448747D01*
X118170528Y-83586157D01*
X118419603Y-83663792D01*
X119268395Y-82815000D01*
X119627605Y-82815000D01*
X120476397Y-83663792D01*
X120725472Y-83586157D01*
X120851371Y-83322117D01*
X120920337Y-83050413D01*
X125282192Y-83050413D01*
X125377956Y-83314814D01*
X125667571Y-83455704D01*
X125979108Y-83537384D01*
X126300595Y-83556718D01*
X126619675Y-83512961D01*
X126924088Y-83407795D01*
X127098044Y-83314814D01*
X127193808Y-83050413D01*
X126238000Y-82094605D01*
X125282192Y-83050413D01*
X120920337Y-83050413D01*
X120923339Y-83038589D01*
X120938611Y-82746469D01*
X120896599Y-82456981D01*
X120798919Y-82181253D01*
X120725472Y-82043843D01*
X120512930Y-81977595D01*
X124596282Y-81977595D01*
X124640039Y-82296675D01*
X124745205Y-82601088D01*
X124838186Y-82775044D01*
X125102587Y-82870808D01*
X126058395Y-81915000D01*
X126417605Y-81915000D01*
X127373413Y-82870808D01*
X127637814Y-82775044D01*
X127778704Y-82485429D01*
X127860384Y-82173892D01*
X127879718Y-81852405D01*
X127835961Y-81533325D01*
X127730795Y-81228912D01*
X127637814Y-81054956D01*
X127373413Y-80959192D01*
X126417605Y-81915000D01*
X126058395Y-81915000D01*
X125102587Y-80959192D01*
X124838186Y-81054956D01*
X124697296Y-81344571D01*
X124615616Y-81656108D01*
X124596282Y-81977595D01*
X120512930Y-81977595D01*
X120476397Y-81966208D01*
X119627605Y-82815000D01*
X119268395Y-82815000D01*
X118419603Y-81966208D01*
X118170528Y-82043843D01*
X118044629Y-82307883D01*
X117972661Y-82591411D01*
X117957389Y-82883531D01*
X116433000Y-82883531D01*
X116433000Y-82668740D01*
X116375932Y-82381842D01*
X116263990Y-82111589D01*
X116101475Y-81868368D01*
X116019710Y-81786603D01*
X118599208Y-81786603D01*
X119448000Y-82635395D01*
X120296792Y-81786603D01*
X120219157Y-81537528D01*
X119955117Y-81411629D01*
X119671589Y-81339661D01*
X119379469Y-81324389D01*
X119089981Y-81366401D01*
X118814253Y-81464081D01*
X118676843Y-81537528D01*
X118599208Y-81786603D01*
X116019710Y-81786603D01*
X115894632Y-81661525D01*
X115651411Y-81499010D01*
X115381158Y-81387068D01*
X115094260Y-81330000D01*
X114801740Y-81330000D01*
X114514842Y-81387068D01*
X114244589Y-81499010D01*
X114001368Y-81661525D01*
X113794525Y-81868368D01*
X113632010Y-82111589D01*
X113520068Y-82381842D01*
X113463000Y-82668740D01*
X111760000Y-82668740D01*
X111760000Y-80779587D01*
X125282192Y-80779587D01*
X126238000Y-81735395D01*
X127193808Y-80779587D01*
X127098044Y-80515186D01*
X126808429Y-80374296D01*
X126496892Y-80292616D01*
X126175405Y-80273282D01*
X125856325Y-80317039D01*
X125551912Y-80422205D01*
X125377956Y-80515186D01*
X125282192Y-80779587D01*
X111760000Y-80779587D01*
X111760000Y-76168740D01*
X113463000Y-76168740D01*
X113463000Y-76461260D01*
X113520068Y-76748158D01*
X113632010Y-77018411D01*
X113794525Y-77261632D01*
X114001368Y-77468475D01*
X114244589Y-77630990D01*
X114514842Y-77742932D01*
X114801740Y-77800000D01*
X115094260Y-77800000D01*
X115381158Y-77742932D01*
X115651411Y-77630990D01*
X115894632Y-77468475D01*
X116019710Y-77343397D01*
X118599208Y-77343397D01*
X118676843Y-77592472D01*
X118940883Y-77718371D01*
X119224411Y-77790339D01*
X119516531Y-77805611D01*
X119806019Y-77763599D01*
X120081747Y-77665919D01*
X120219157Y-77592472D01*
X120296792Y-77343397D01*
X119448000Y-76494605D01*
X118599208Y-77343397D01*
X116019710Y-77343397D01*
X116101475Y-77261632D01*
X116263990Y-77018411D01*
X116375932Y-76748158D01*
X116433000Y-76461260D01*
X116433000Y-76383531D01*
X117957389Y-76383531D01*
X117999401Y-76673019D01*
X118097081Y-76948747D01*
X118170528Y-77086157D01*
X118419603Y-77163792D01*
X119268395Y-76315000D01*
X119627605Y-76315000D01*
X120476397Y-77163792D01*
X120725472Y-77086157D01*
X120851371Y-76822117D01*
X120923339Y-76538589D01*
X120938611Y-76246469D01*
X120896599Y-75956981D01*
X120798919Y-75681253D01*
X120725472Y-75543843D01*
X120476397Y-75466208D01*
X119627605Y-76315000D01*
X119268395Y-76315000D01*
X118419603Y-75466208D01*
X118170528Y-75543843D01*
X118044629Y-75807883D01*
X117972661Y-76091411D01*
X117957389Y-76383531D01*
X116433000Y-76383531D01*
X116433000Y-76168740D01*
X116375932Y-75881842D01*
X116263990Y-75611589D01*
X116101475Y-75368368D01*
X116019710Y-75286603D01*
X118599208Y-75286603D01*
X119448000Y-76135395D01*
X120296792Y-75286603D01*
X120219157Y-75037528D01*
X119955117Y-74911629D01*
X119671589Y-74839661D01*
X119379469Y-74824389D01*
X119089981Y-74866401D01*
X118814253Y-74964081D01*
X118676843Y-75037528D01*
X118599208Y-75286603D01*
X116019710Y-75286603D01*
X115894632Y-75161525D01*
X115651411Y-74999010D01*
X115381158Y-74887068D01*
X115094260Y-74830000D01*
X114801740Y-74830000D01*
X114514842Y-74887068D01*
X114244589Y-74999010D01*
X114001368Y-75161525D01*
X113794525Y-75368368D01*
X113632010Y-75611589D01*
X113520068Y-75881842D01*
X113463000Y-76168740D01*
X111760000Y-76168740D01*
X111760000Y-73787000D01*
X124244293Y-73787000D01*
X124166406Y-73864887D01*
G37*
G04 #@! TD.AperFunction*
G04 #@! TD*
M02*
